/* XPM */
static char *player_41671053768[] = {
/* columns rows colors chars-per-pixel */
"48 48 239 2 ",
"   c #000100",
".  c #0C0201",
"X  c #0A0709",
"o  c #140100",
"O  c #1C0301",
"+  c #18050A",
"@  c #190615",
"#  c #1A1415",
"$  c #060016",
"%  c #230200",
"&  c #2C0100",
"*  c #240A06",
"=  c #340100",
"-  c #390907",
";  c #28140E",
":  c #2D1514",
">  c #2A1A17",
",  c #3B1513",
"<  c #351A16",
"1  c #341717",
"2  c #3E180B",
"3  c #3A211D",
"4  c #28231F",
"5  c #100928",
"6  c #150D29",
"7  c #241C22",
"8  c #391E22",
"9  c #221335",
"0  c #242123",
"q  c #29272B",
"w  c #3B2324",
"e  c #342524",
"r  c #362A31",
"t  c #3A3337",
"y  c #440D01",
"u  c #480B08",
"i  c #550C07",
"p  c #421201",
"a  c #4C130D",
"s  c #491509",
"d  c #53140D",
"f  c #5E140E",
"g  c #501E05",
"h  c #4B1414",
"j  c #451A14",
"k  c #471918",
"l  c #541913",
"z  c #5B1D1A",
"x  c #571715",
"c  c #430F11",
"v  c #74140C",
"b  c #651B1B",
"n  c #691E1B",
"m  c #661A14",
"M  c #761C16",
"N  c #69170C",
"B  c #48241D",
"V  c #57241A",
"C  c #57311A",
"Z  c #72200D",
"A  c #63231D",
"S  c #6B221D",
"D  c #642C1D",
"F  c #7C231D",
"G  c #74251D",
"H  c #561F22",
"J  c #641F22",
"K  c #4B2B24",
"L  c #482828",
"P  c #532A2A",
"I  c #582726",
"U  c #593728",
"Y  c #572F32",
"T  c #463B3C",
"R  c #5B3934",
"E  c #4F322A",
"W  c #642423",
"Q  c #6C2424",
"!  c #632C2B",
"~  c #6B2C2B",
"^  c #682826",
"/  c #742522",
"(  c #7D2A24",
")  c #742C2D",
"_  c #772A28",
"`  c #7E332C",
"'  c #7C3D27",
"]  c #6C3433",
"[  c #653937",
"{  c #793937",
"}  c #6C3928",
"|  c #53433E",
" . c #7F533D",
".. c #714633",
"X. c #1C1A41",
"o. c #29194B",
"O. c #2C2A56",
"+. c #352954",
"@. c #382E47",
"#. c #393267",
"$. c #443D43",
"%. c #413563",
"&. c #47444A",
"*. c #544954",
"=. c #794B44",
"-. c #6A5245",
";. c #73544A",
":. c #7A5D57",
">. c #66504D",
",. c #7C635A",
"<. c #6B615F",
"1. c #7D7468",
"2. c #6D676A",
"3. c #821D18",
"4. c #86261C",
"5. c #82311C",
"6. c #842A24",
"7. c #842E2B",
"8. c #882823",
"9. c #922C27",
"0. c #88332A",
"q. c #94332D",
"w. c #9A332A",
"e. c #893936",
"r. c #9B3C33",
"t. c #943934",
"y. c #802E30",
"u. c #A43C34",
"i. c #84463B",
"p. c #99433A",
"a. c #86523C",
"s. c #895447",
"d. c #93534A",
"f. c #AC5956",
"g. c #B75B54",
"h. c #A74B44",
"j. c #89685A",
"k. c #9C6859",
"l. c #99765D",
"z. c #936649",
"x. c #A66A5B",
"c. c #B56256",
"v. c #AC6B55",
"b. c #83736C",
"n. c #987769",
"m. c #896F6A",
"M. c #A67567",
"N. c #BA7065",
"B. c #C45C55",
"V. c #C55B55",
"C. c #C9625B",
"Z. c #D26962",
"A. c #C27471",
"S. c #C36B67",
"D. c #BF927D",
"F. c #93836C",
"G. c #CF8F78",
"H. c #E49D7D",
"J. c #615E89",
"K. c #6B6591",
"L. c #574F82",
"P. c #9A8A88",
"I. c #9A9597",
"U. c #8A8796",
"Y. c #B89492",
"T. c #BEA497",
"R. c #8E8DA9",
"E. c #A09EA9",
"W. c #ACABB8",
"Q. c #B3B0B5",
"!. c #C89989",
"~. c #D79B87",
"^. c #C89C93",
"/. c #D39F92",
"(. c #EA9688",
"). c #EC978E",
"_. c #D7A489",
"`. c #C7A498",
"'. c #DCA997",
"]. c #EAB699",
"[. c #FBBD9A",
"{. c #F6B694",
"}. c #E4AB95",
"|. c #C1ACA4",
" X c #CBB3AE",
".X c #E8BBA7",
"XX c #F6BEA4",
"oX c #EBBEB4",
"OX c #DEC7AF",
"+X c #EEC0AA",
"@X c #FDC4A5",
"#X c #F3C3A9",
"$X c #FAC3AA",
"%X c #FCCAAC",
"&X c #F1C2A6",
"*X c #EAC2B3",
"=X c #E8C7BB",
"-X c #F4C4B2",
";X c #FDCCB5",
":X c #F6C9BA",
">X c #FBD4BA",
",X c #E6D4BC",
"<X c #BAB7C9",
"1X c #B7BBD5",
"2X c #A7ADC5",
"3X c #C5BDC6",
"4X c #C2C0D3",
"5X c #C3C3CB",
"6X c #FCCBC2",
"7X c #FCD5C4",
"8X c #FDDCC5",
"9X c #FDD3CA",
"0X c #FEDBCA",
"qX c #F4D5C3",
"wX c #E7D9D9",
"eX c #FFDBD2",
"rX c #E7CAC2",
"tX c #FDE2C9",
"yX c #FFE7DC",
"uX c #FFF3DC",
"iX c #D6DFFF",
"pX c #D2DBEC",
"aX c #DCE7FD",
"sX c #FDECE4",
"dX c #FFEDEC",
"fX c #FDE4E3",
"gX c #FFF1E4",
"hX c #FFF3EC",
"jX c #FFF9ED",
"kX c #F6F6EE",
"lX c #F8EFF2",
"zX c #F6F5F5",
"xX c #FEF5F3",
"cX c #FEFAF5",
"vX c #FDF7FA",
"bX c #F6FCFB",
"nX c #FEFDFD",
"mX c #F3FAF7",
"MX c #EDEAEF",
/* pixels */
"nXbXbXnXnXnXnXnXnXnXvXvXnXnXnXnXbXnXnXnXcXcXcXxXhXdXhXxXcXcXnXbXmXbXbXbXbXnXvXnXbXmXnXnXnXnXnXnX",
"nXnXbXnXnXnXnXnXnXnXnXnXvXnXnXcXnXnXnXzXnXzXbXvXL w xXxXxXnXbXbXnXbXbXnXbXvXvXnXbXmXcXnXnXnXnXnX",
"bXbXnXnXnXnXnXnXnXbXnXbXnXvXvXvXvXvXnXxXvXcXxXdX> >.L hXhXxXcXnXzXcXnXvXvXvXvXvXcXmXnXnXnXnXnXnX",
"nXbXnXnXnXnXnXnXbXbXbXbXzXbXnX@ 8 8 1 dXdXdXdXdX: [ [ P K dXhXdXxXxXhXxXxX$.vXnXnXmXnXbXnXnXnXnX",
"nXnXnXnXnXnXnXnXbXnXnXbXnXnXvX@ 8 L L c , c H h x A { ..] ~ ! fXfXsXdXsXL L xXnXnXbXnXnXnXnXnXnX",
"nXnXnXnXnXnXnXnXnXnXnXzXnXxXdXxXO L ] ] { { { J i i / y.d.d.e.I H I 2 U ] [ dXxXnXnXbXnXnXnXnXnX",
"nXbXnXnXnXnXnXnXnXnXvXnXxXxXxXdXeX& ! Q ) p.A.f.t.( M F e.f.f.e.) l } l.i.h dXvXnXnXnXnXnXnXnXnX",
"nXnXnXnXnXnXnXnXnXnXX @ e : 1 8 k c n M F M 7.h.g.g.9.4.3.p.f.f.e.n ' (.N.W fXdXvXnXnXbXnXnXnXnX",
"nXmXnXcXnXnXvXnXnXnXnX. w P Y { e.e.q.9.w.3.M v w.B.C.w.4.v q.).S.N 5.H.(.` Y dXnXnXnXnXnXnXnXnX",
"nXnXcXcXnXnXnXnXbXzXnXdX% P ! ) e.7.q.V.Z.C.V.r.9.w.9.u.u.4.8.g.(.p.5.c.H.v.Y dXxXnXnXnXnXnXnXnX",
"nXnXbXzXnXnXvXnXnXxXvXdX& c x x Q y.3.9.V.V.Z.B.g.w.4.q.h.r.4.e.c.c.Z p.(.).s.L vXvXnXnXnXnXnXnX",
"nXnXnXnXvXbXnXnXvXvXdX1 - H ^ b / 7.9.u.w.w.C.C.g.B.F 4.0.e.( F ` c.Z 5.g.A.] R xXcXnXnXnXnXnXnX",
"nXnXzXnXnXnXnXvXvX: k L I ! Q _ y.7.r.8.4.9.9.q.p.t.i.` S f f m S i.N G p.N.=.B jXcXnXnXnXnXnXnX",
"nXnXbXnXnXnXnXX 7 w Y Y I W Q n M F v 3.4.v 8.v N 7.( _ D d a s a V f f J e.] P hXcXnXnXvXnXnXnX",
"nXnXnXnXnXbXnXnX+ o L P I z J / / 8.q.9.r.0.8.M / / x l D a 9X:XI = u J Q ) I , jXcXcXnXnXnXnXnX",
"nXnXnXvXnXnXnXvXvXxXO & a i n ( 8.t.q.q.8.n ( m f u d 9X6Xj 9XeX9XeXu x W ~ 2 sXhXcXcXnXnXnXnXnX",
"nXcXnXnXnXnXvXxXlXk k h J ^ / / 0.7.7./ b _ y.t.y._ a 9XeX0X:X7X>XtX>Xp l U ; xXcXnXcXnXnXnXnXnX",
"nXnXcXnXcXcXcXe L L I J ~ b b ) _ n S b J ) _ y.e.y.W j .XqXtXtX>X8X>X8XK n.sXe nXcXnXnXnXnXnXnX",
"nXnXcXnXnXzX. < L P I ~ J ~ Q f n N i d A Q Q m / Q a y yX>X>X>X>X>X;X>X*Xn.lX# cXnXnXnXnXnXnXnX",
"nXnXnXcXnXnXcXo 7 k Y k z x b b m u y u I ^ f f d A p #XD.l.a.z..._.$X;X:Xj.vXcXcXnXnXnXnXnXnXnX",
"nXnXnXnXnXvXvXvX* : , h h a z b n n H = = = D z d y g >X_.&X%X].G.].@X.X`.n.hXxXnXcXnXnXnXnXnXnX",
"nXnXnXnXnXnXvXnXlX+ 1 , c c ~ W A z s.M.'.x.l f s #X+X&X!...a...z.' @X'.n.gXhXxXcXnXnXnXnXnXnXnX",
"nXnXnXnXnXvXvXnXvXxXo * k I I ^ _ W s..XoX!.d D - $X#X&Xz.a. .= = a.@X;Xz.uXjXjXnXnXnXnXnXnXnXnX",
"nXnXnXnXnXnXnXnXcXvXxXO 2 B ! V l z & 6X;X'.y V g -X&X&Xk.!.!.& i._.&X.Xn.uXjXcXmXnXnXnXnXnXnXnX",
"nXnXnXnXnXnXnXnXnXcXcX3 K K B k c h - k.XX/.XXy p &X&X%Xx.!.sXB & /.;X.Xl.tXjXkXcXnXnXnXnXnXnXnX",
"nXnXnXvXnXnXvXnXcX  0 > > w , c h c , - x.!.XX;Xg %X].XXk.'.yX;.& ^.7X>Xl.uXgXnXnXnXnXnXnXnXnXnX",
"nXnXnXnXbXvXnXnXnXnX.   > > < < , c , '.- u $XXX&X].@X#X$XoXeX`.Y.oX7XtXOXF.uXkXnXnXnXnXnXnXnXnX",
"nXnXnXnXnXnXnXnXnXnXcXnX  . o > 1 8 , c !.}.!.{.@X%X@X[.XX-XrXqXeX0X0XqX,X1.kXcXnXnXnXnXnXnXnXnX",
"nXnXnXcXnXvXnXnXcXnXnXcXnXcXvXo : : 8 , j !.~.@X[.{.[.[.$X%XXX=X9X9X0XOX|.1.cXvXcXnXnXnXnXnXnXnX",
"nXnXbXnXzXnXnXnXnXnXnXnXzXzXnXvXo : > 1 2 - '.~.{.[.[.@X$XXX$X#X#X*X,XT.. cXcXvXcXnXnXnXnXnXnXnX",
"nXnXnXzXnXcXcXnXnXnXnXnXnXnXzXnXxX. . : < k y _.H.H.[.{.[.[.{.%X#X`.j.O cXcXnXnXnXnXnXnXnXnXnXnX",
"nXnXnXnXnXnXnXnXnXnXnXnXnXnXnXnXnXnXxX. o % n.l.G.H._._._._._.z.l.% * sXcXbXnXzXnXnXnXnXnXnXnXnX",
"nXnXnXnXnXnXnXnXcXnXnXnXnXnXnXnXcXcXnXt t t . o O o + . . . O . . nXcXcXnXnXnXnXnXnXnXnXnXnXnXnX",
"nXnXnXnXnXnXnXnXnXcXcXnXnXnXvXvXzXnX$.I.Q.Q.T <.P.T 0 E.2.Q.$.*.nXnXnXnXnXnXnXnXnXnXnXnXnXnXnXnX",
"nXnXnXnXnXnXnXnXcXnXnXnXnXnXnXcXhXo P.I. X3XwXe 4 1.X W.I.2.U.&.&.MXnXnXzXnXnXnXnXnXnXnXnXnXnXnX",
"nXnXnXnXnXnXnXcXnXnXnXnXvXbXcXjXhX-.* o P. XfX|       5XW.E.<XI.@.nXnXnXnXnXnXnXnXnXnXnXnXnXnXnX",
"nXnXnXnXnXnXnXnXnXnXnXnXnXnXcXjXgX;.T.`.% O O o t 0 5XW.aXW.1X<X&.# nXnXnXnXnXbXnXnXnXnXnXnXnXnX",
"nXnXnXnXnXnXnXnXnXnXnXnXnXnXkXgX..n.`.rX^.j.>.r &.6 4X1X1X3X4XU.@.t 0 nXmXnXbXnXnXnXnXnXnXnXnXnX",
"nXnXnXnXnXnXnXnXnXnXnXnXnXnXjXjXj.!.*X*X=.-.1 2.0 <X2X1X1X2XpX&.q &.0 # nXnXnXnXnXnXnXnXnXnXnXnX",
"nXnXnXnXnXnXnXnXbXnXnXnXnXcXjXjX| 9X7X9X`.=.8 7 R.R.R.1XiXiXaX@.r | 4 q nXnXnXnXnXnXnXnXnXnXnXnX",
"nXnXnXnXnXnXnXnXnXnXnXnXnXnXjXjX-.*XqX7X^.% 8 @ 9 #.o.X.O.O.X.6 r e   vXnXnXnXnXnXnXnXnXnXnXnXnX",
"nXnXnXnXnXnXcXnXnXbXbXnXnXnXjXjXO `.`.n.`.O L $.+.#.J.L.#.K.K.U.  . zXnXnXnXnXnXnXnXnXnXnXnXnXnX",
"nXnXnXnXnXnXnXcXnXnXnXnXcXzXkXjXo O T.m.% 1 r @.6 o.o.#.#.R.J.5 nXzXnXnXvXnXnXnXnXnXnXnXnXnXnXnX",
"nXnXnXnXnXnXnXcXnXnXnXnXnXnXnXnXO &.o O ,.<.+ + @ 9 o.O.5 5 $   nXcXzXnXnXbXnXnXnXnXnXnXnXnXnXnX",
"nXnXnXnXnXnXnXnXcXnXnXbXnXnXnXnXvX. . b.|.b.-.j.m.O @ @ + wX1.<.wXcXcXnXnXnXnXnXnXnXnXnXnXnXnXnX",
"nXnXnXnXnXnXnXcXcXvXbXbXnXnXnXbXvXnX. <.F.O | F.m.;.% ^.=XrX;.,.; MXcXcXnXnXnXnXnXnXnXnXnXnXnXnX",
"nXnXnXnXnXnXnXcXcXcXnXnXbXzXmXbXnXbXnXX X . 3 U C } % B R j.:.| . cXnXnXnXnXnXnXnXnXnXnXnXnXnXnX",
"nXbXnXnXnXnXnXcXnXcXbXnXnXbXbXnXnXzXnXzXcXnXo K U U K O R E % o cXnXcXnXnXnXnXnXnXnXnXnXnXnXnXnX"
};
