/* XPM */
static char *player_81671053768[] = {
/* columns rows colors chars-per-pixel */
"48 48 245 2 ",
"   c #020103",
".  c #0B0102",
"X  c #03020B",
"o  c #0A050C",
"O  c #130101",
"+  c #1A0202",
"@  c #180706",
"#  c #0B0013",
"$  c #100E17",
"%  c #1B1A1D",
"&  c #181416",
"*  c #1F1307",
"=  c #240301",
"-  c #2B0201",
";  c #290A0A",
":  c #330100",
">  c #3B0100",
",  c #330C02",
"<  c #3C0C0A",
"1  c #2D120F",
"2  c #3C1509",
"3  c #2A1617",
"4  c #3D1314",
"5  c #3C1C1B",
"6  c #351717",
"7  c #3B0C12",
"8  c #35211D",
"9  c #170725",
"0  c #1B1A28",
"q  c #160835",
"w  c #19193B",
"e  c #0A0925",
"r  c #2A142F",
"t  c #1D2131",
"y  c #252427",
"u  c #362628",
"i  c #262737",
"p  c #392E37",
"a  c #383439",
"s  c #33322D",
"d  c #440D01",
"f  c #4A0C03",
"g  c #4B1502",
"h  c #48180A",
"j  c #52140D",
"k  c #561708",
"l  c #451314",
"z  c #441A1A",
"x  c #491717",
"c  c #551A14",
"v  c #5B1B15",
"b  c #571A19",
"n  c #4E0F0D",
"m  c #64130C",
"M  c #621B13",
"N  c #671B16",
"B  c #761B16",
"V  c #71170E",
"C  c #4B231A",
"Z  c #5A221C",
"A  c #592017",
"S  c #58220B",
"D  c #64231A",
"F  c #6B231D",
"G  c #622C14",
"H  c #74241C",
"J  c #7C231C",
"K  c #792419",
"L  c #6B3C1E",
"P  c #591D22",
"I  c #401C20",
"U  c #492827",
"Y  c #5C2324",
"T  c #562928",
"R  c #5C352C",
"E  c #4E3A38",
"W  c #5D3132",
"Q  c #583733",
"!  c #632423",
"~  c #692422",
"^  c #612B2A",
"/  c #682829",
"(  c #7B2B24",
")  c #792C28",
"_  c #742926",
"`  c #633427",
"'  c #78342C",
"]  c #6B3234",
"[  c #653839",
"{  c #763835",
"}  c #662A32",
"|  c #53413D",
" . c #77492B",
".. c #78463A",
"X. c #6C433D",
"o. c #3A3758",
"O. c #312E52",
"+. c #3B316A",
"@. c #271344",
"#. c #443F45",
"$. c #483971",
"%. c #454346",
"&. c #4A4751",
"*. c #5D5D59",
"=. c #534F51",
"-. c #7D4642",
";. c #6D534F",
":. c #524C6D",
">. c #666569",
",. c #766664",
"<. c #74727C",
"1. c #6A6A71",
"2. c #821B15",
"3. c #83231C",
"4. c #8C261C",
"5. c #832C25",
"6. c #892D27",
"7. c #932D29",
"8. c #952D2A",
"9. c #82332E",
"0. c #8C322B",
"q. c #83362B",
"w. c #93332D",
"e. c #9A332B",
"r. c #96362B",
"t. c #873935",
"y. c #973933",
"u. c #A23D38",
"i. c #8A5539",
"p. c #91473B",
"a. c #A6433A",
"s. c #854841",
"d. c #825B4B",
"f. c #985E5B",
"g. c #A74B44",
"h. c #B8564C",
"j. c #A85A55",
"k. c #BB5851",
"l. c #A8584D",
"z. c #8B624B",
"x. c #8E6455",
"c. c #996655",
"v. c #9B735E",
"b. c #88725D",
"n. c #A8635A",
"m. c #BA635A",
"M. c #867665",
"N. c #9B7669",
"B. c #8F716E",
"V. c #AC7465",
"C. c #B4736F",
"Z. c #C65D58",
"A. c #C8635A",
"S. c #D0655F",
"D. c #CB726B",
"F. c #CA6B64",
"G. c #B48875",
"H. c #958878",
"J. c #C8927B",
"K. c #6F6C9D",
"L. c #65518E",
"P. c #7B8096",
"I. c #969198",
"U. c #8E8994",
"Y. c #B38C87",
"T. c #AE958D",
"R. c #AFA293",
"E. c #918EA2",
"W. c #9696A5",
"Q. c #8A8FAF",
"!. c #A49EB8",
"~. c #B1AFAF",
"^. c #C9998A",
"/. c #DC9B8B",
"(. c #D49A92",
"). c #D4918D",
"_. c #E8948F",
"`. c #F18F89",
"'. c #D8A386",
"]. c #CCA896",
"[. c #DEA69A",
"{. c #D7A795",
"}. c #CBAA96",
"|. c #E3AA96",
" X c #EAB599",
".X c #F5B99C",
"XX c #E9A98E",
"oX c #C4A9A3",
"OX c #D6B7A6",
"+X c #ECBCA6",
"@X c #F6BCA5",
"#X c #F6BEB2",
"$X c #F8AAA7",
"%X c #F5C19C",
"&X c #DFC5B4",
"*X c #F3C3A4",
"=X c #FDC4A5",
"-X c #F3C3AB",
";X c #FBC3AB",
":X c #FAC9AD",
">X c #E9C8B2",
",X c #FCCCB2",
"<X c #F9C6B6",
"1X c #FBD3BC",
"2X c #EEC1A2",
"3X c #AAA9C7",
"4X c #B6ADC5",
"5X c #B8B8C7",
"6X c #B8B8D6",
"7X c #C7BCD5",
"8X c #C3C1D7",
"9X c #DCDFD6",
"0X c #FCCCC4",
"qX c #FDD4C3",
"wX c #FEDAC4",
"eX c #FFD4CB",
"rX c #F8D9C9",
"tX c #FCDBD3",
"yX c #E7C8C6",
"uX c #FFE5DB",
"iX c #FFF1DE",
"pX c #FFE1CD",
"aX c #DADAF7",
"sX c #CCCBE4",
"dX c #FFDFE0",
"fX c #DEE2FF",
"gX c #FFE5E3",
"hX c #FEEBE6",
"jX c #FEEDEB",
"kX c #F3EDE7",
"lX c #FEF4E5",
"zX c #FEF4ED",
"xX c #FFF9EC",
"cX c #F3F3EB",
"vX c #EAE9F3",
"bX c #FBEFF2",
"nX c #F5F4F4",
"mX c #FEF4F3",
"MX c #FDFBF5",
"NX c #F4F4FB",
"BX c #FEF6F9",
"VX c #F6FBFA",
"CX c #FEFEFE",
"ZX c #F5FAF4",
"AX c #E8E7E6",
/* pixels */
"CXVXVXVXCXMXCXCXCXCXVXCXVXVXCXBXCXMXCXMXMXjXxXjXhXhX#.P jXmXmXBXCXCXMXCXCXCXCXCXCXVXCXCXCXCXBXBX",
"VXVXVXCXCXCXMXCXCXCXNXCXVXCXmXCXBXCXnXVXMXMXhXtX[ W [ 4 bXbXmXBXnXnXCXCXNXNXNXCXnXCXCXCXCXCXCXCX",
"CXCXVXCXCXCXCXCXVXCXCXCXCXMX#.jXBXmXMXmXjXhXT ] } -.P f uXjXjXmXMXmXMXAXCXBXCXCXMXMXCXCXCXCXNXCX",
"CXCXCXVXCXCXCXCXCXCXCXCXmXmXU Q jXuXlXgXz R ..{ { ~ f b b < , 2 z 8 6 p . CXCXBXCXCXCXMXCXnXCXCX",
"BXCXBXCXBXBXCXCXCXCXZXMXmXbXW [ b T Y ^ s.c.f.p.V k S K _ { { { ] W U O mXmXBXMXMXMXCXMXCXCXCXCX",
"CXCXCXCXCXCXCXCXCXCXMXxXgXW s.f.{ v N { j.n.p.K K 2.p.h.m.D.t.q._ b - jXjXjXmXBXjXCXMXCXCXCXVXCX",
"BXCXCXCXCXBXCXCXCXCXMXzXgXT C.).q.H g.D.k.y.V J a.h.a.Z.a.r.3.K B N > z 1 1 3 6 y 3 MXCXBXCXCXCX",
"CXVXCXCXCXCXCXCXZXCXxXhXR { )._.y.K A.`.y.3.B r.h.Z.e.e.2.4.4.6.w.0.s.` X.[ U U @ mXMXNXCXCXCXCX",
"CXCXCXCXCXCXCXCXZXMXxXhX! j.$Xm.K t.`.A.3.4.a.g.r.4.e.e.A.Z.A.h.y.6.t.} } Y z = jXmXCXVXMXCXCXCX",
"CXVXCXCXCXCXCXCXCXMXxXU { )._.w.5.g.A.w.5.e.u.y.7.r.A.k.S.Z.Z.u.2.3._ _ c l : gXjXmXMXCXCXCXCXCX",
"CXCXCXCXCXCXCXCXCXMXxX2 -.$Xj.6.( l.6.K 5.5.5.J 0.l.F.k.Z.e.8.7.8.8.7.N N ! l 4 jXmXMXMXCXVXCXnX",
"VXVXCXCXMXCXCXCXCXMXmXQ -.j.t._ k p.M f F _ ' ) q.a.r.0.u.7.8.7.8.8.9.t.) b ! W 8 MXCXCXCXCXCXCX",
"CXVXCXCXCXCXCXCXZXCXbXU { t.) v k S c d d g D ' ) 9.V V B B 4.2.B 3.J m _ } } T U 3 NXNXCXCXCXCX",
"CXCXCXCXCXCXCXCXCXMXmX5 ] ] / b h 2 , qXeXh A b M m N 5.6.6.w.7.y.w.B 9.( ~ P W U u u CXCXCXCXMX",
"CXCXCXCXCXCXCXCXCXCXmXjXl P } b 2 rXuXrXtX, tX<Xj k N B J 5.5.6.8.6.5.B N n x - ; O .   CXCXMXCX",
"CXCXCXCXCXCXCXCXCXCXmXgXI b x l 2 2 rXrXeXtXeX0Xc N ) 9.9.H ( J 9.t.y.6.) ~ P z 5 mXBXCXBXCXCXCX",
"CXCXCXCXCXCXCXCXCXBXMXxXiXH.C 1X,X1X2 1XwXeXtXj b { t./ } / ~ ~ F F H F N ~ Y ^ T U bXbXVXCXCXCX",
"NXCXCXCXCXCXCXVXCXCXCXlXiXb.>X1X1X,Xh wXwXqX0X> j / } / } } P P / D D M F D / ` T U 6 BXMXNXCXCX",
"CXCXCXCXCXCXCXCXCXCXMXxXlXb.>X>X*X%X . .i.V._.#XA A f j P Y P P c j F D D c A C T U u p BXCXCXBX",
"NXVXCXCXCXVXCXCXCXCXMXxXiXH.}.2X2XJ.J.>X%X X/.@Xg f g D ! > > > > d D ~ A j l z 5 6 3 O . CXCXCX",
"VXCXCXCXCXCXCXCXCXCXMXmXlXiXz.:X=Xi...z.L i.'.,X@X;Xk S f V.(.f.-.Z ! ~ v c 7 l 1 O . BXCXCXnXCX",
"CXCXCXCXCXMXCXCXCXCXCXMXlXiXG. XXXi.: - z. . .%X,X@Xg G d [.#X0Xs.R ^ D / Y x 1 O mXCXBXBXBXCXCX",
"CXCXCXCXMXCXCXCXCXCXZXMXxXiXz.,X%X'.x.= Y.{.v.%X@X-Xg S g [.0X<X- l Y Y ! Y z + mXmXBXMXCXVXCXCX",
"CXCXCXMXCXCXCXCXCXCXCXMXxXiXv.:X.XXX- 6 lXY.z.:X-X-Xg g <X[.[.N.- 4 l b Y T U 5 bXMXCXCXCXCXCXCX",
"CXCXCXCXCXCXCXCXCXCXVXMXxXiX^.>X<X[.= ;.jXR.v.*X2X-Xd ;X<X/.c.: < l l z l I 1 3 3 CXCXCXCXCXCXCX",
"CXCXCXCXMXCXCXCXCXCXCXCXxXM.OXpX0X#XY.oXtX1X-X=X+X@X;X;X#X> : (.7 l 4 4 7 1 O @     CXCXCXCXCXCX",
"CXCXCXCXCXCXCXCXCXCXCXMXlXH.OXpX1XqXeX0XwX*X=X=X=X=X.X;X).(.[.P l 7 5 1 @ . CXnXCXCXCXCXCXCXCXCX",
"CXCXCXCXCXCXCXCXCXCXMXZXZXM.oX&XrXwXqX2X2X X%X.X@X.X=X;X|.^.: 4 l z 1 O BXMXBXMXVXCXCXCXCXVXCXCX",
"CXCXCXCXCXCXCXCXMXCXCXMXxXxX@ T.OX>X>X-X*X%X:X=X.X.X*X^.G.C C U 4 5 . CXMXnXCXCXCXCXCXCXCXCXCXnX",
"CXCXCXCXCXCXCXCXMXCXMXcXMXZXlX* M.}.0X>X-X2X.X.X X|.J.[.l , U = O O CXZXVXMXCXCXCXCXCXCXCXCXMXCX",
"CXCXCXCXCXCXVXCXCXMXMXMXxXZXMXkX@ + B.v.^.^.{.^.{.{.[.B.B.; . O xXMXZXVXVXCXCXCXCXCXCXCXCXCXCXCX",
"CXVXCXCXCXCXCXCXMXCXMXCXMXMXMXCXkXmX; = = + = = - = = + @ I.a MXMXZXZXVXVXCXCXCXCXCXCXVXCXCXCXCX",
"CXCXCXCXCXCXCXCXCXCXCXCXCXCXCXCXCXCXBX;.%.~.,.I.I.I.4X7X8X~.I.| cXZXVXCXZXCXCXCXCXCXCXCXCXCXCXCX",
"CXCXCXCXCXCXCXCXCXCXCXCXCXCXCXCXCXCX&.o.U.>.I.5X~.sX4XaX!.8X8X| VXcXCXZXCXCXCXCXCXCXCXCXCXCXCXCX",
"CXCXCXCXCXCXCXCXCXCXCXCXCXCXCXCXCXCXO.W.5XE.8X~.5XX K.AXvX5XU.  CXCXCXMXCXCXCXCXCXCXCXCXCXCXCXCX",
"CXCXCXCXCXCXCXCXCXCXCXCXCXCXCXCXCXCX#.5X4X6XaX5X5XW.  .     o *.CXNXMXCXCXCXCXCXCXCXCXCXCXCXCXCX",
"CXCXCXCXCXCXCXCXCXCXCXCXCXCXCXCXCXCX&.E.6X6X6X3XW.E.  >.~.~.=.ZXnXnXCXCXCXCXMXCXCXCXCXCXCXCXCXCX",
"CXCXCXCXCXCXCXCXCXCXCXCXCXCXCXCXCXCXCXi aX6X3XaX5XI.y & y s % ZXBXCXCXCXCXMXCXCXCXCXCXCXCXCXCXCX",
"CXCXCXCXCXCXCXCXCXCXCXCXCXCXCXCXVXVXVX:.fXaX6XP.P.t 1.AX9XR.*.& y CXCXCXCXCXCXCXCXCXCXCXCXCXCXCX",
"CXCXCXCXCXCXCXCXCXCXCXCXCXCXCXCXVXVXVXe w O.O.+.w w %.~.R.~.*.1.&.0 CXCXCXCXCXMXCXCXCXCXCXCXCXCX",
"CXCXCXCXCXCXCXCXCXCXCXCXCXCXCXCXCXVXVXU.3XK.K.+.:.q O.>.<.%.% #.*.&.0 CXCXCXCXCXCXCXCXCXCXCXCXCX",
"CXCXCXCXCXCXCXCXCXCXCXCXCXCXCXCXCXCXNXi o.O.$.+.+.q q O.a & y a =.#.$ CXCXMXMXCXCXCXCXCXCXCXCXCX",
"CXCXCXCXCXCXCXCXCXCXCXCXCXCXCXCXCXVXVXX w e +.$.L.$.@.9 9 0 X a #.y X AXCXCXCXMXCXCXCXCXCXCXCXCX",
"CXCXCXCXCXCXCXCXCXCXCXCXCXCXCXCXCXVXVXX $ # e r r r r 9 o o 0 a 0 $ CXCXCXNXCXCXCXCXCXCXCXCXCXCX",
"CXCXCXCXCXCXCXCXCXCXCXCXCXCXCXCXCXCXMXmX>.H.B.;.dXyXtX,.| O .     CXCXCXCXCXCXCXCXCXCXCXCXCXCXCX",
"CXCXCXCXCXCXCXCXCXCXCXCXCXCXCXCXBXCXmXMXiX;.b.,.d.<X<XT.;.xXCXCXvXVXVXCXCXCXCXCXCXCXCXCXCXCXCXCX",
"CXCXCXCXCXCXCXCXCXCXCXCXCXCXCXCXCXCXmXjXO 5 C , S L ` R + jXBXnXCXVXCXCXVXCXVXCXCXCXCXCXCXCXCXCX",
"CXCXCXCXCXCXCXCXCXCXCXCXCXCXCXCXVXCXBXmX@ E U =  .c...| + mXBXCXVXVXCXCXCXCXCXCXCXCXCXCXCXCXCXCX"
};
