/* XPM */
static char *player_61671053768[] = {
/* columns rows colors chars-per-pixel */
"48 48 236 2 ",
"   c #030102",
".  c #0B0102",
"X  c #0B010A",
"o  c #130101",
"O  c #1C0201",
"+  c #1B0706",
"@  c #090418",
"#  c #160A14",
"$  c #1E1317",
"%  c #11120D",
"&  c #210201",
"*  c #2C0201",
"=  c #2D0D08",
"-  c #350100",
";  c #3C0B04",
":  c #380907",
">  c #251213",
",  c #2B1414",
"<  c #291A18",
"1  c #341C1B",
"2  c #3B1C1C",
"3  c #371614",
"4  c #2F110A",
"5  c #3D201E",
"6  c #180C28",
"7  c #181824",
"8  c #0C0A2D",
"9  c #2B1725",
"0  c #201C33",
"q  c #292427",
"w  c #382927",
"e  c #2E2933",
"r  c #322735",
"t  c #38373B",
"y  c #4B0D0A",
"u  c #450901",
"i  c #520B04",
"p  c #441100",
"a  c #4A140B",
"s  c #481409",
"d  c #52150D",
"f  c #55190D",
"g  c #56180A",
"h  c #431415",
"j  c #421C1C",
"k  c #481916",
"l  c #591916",
"z  c #450E11",
"x  c #64160D",
"c  c #77160C",
"v  c #621B14",
"b  c #631E1C",
"n  c #6D1C16",
"m  c #781B17",
"M  c #46221A",
"N  c #55231C",
"B  c #5D211C",
"V  c #5E2D1F",
"C  c #64231C",
"Z  c #6C231E",
"A  c #6A2618",
"S  c #7D241C",
"D  c #75241C",
"F  c #4D1F21",
"G  c #711C21",
"H  c #472726",
"J  c #5C2423",
"K  c #542A2A",
"L  c #5B2D2B",
"P  c #572725",
"I  c #48342D",
"U  c #5B332A",
"Y  c #493534",
"T  c #5A3833",
"R  c #5F2E32",
"E  c #6C2424",
"W  c #672926",
"Q  c #752A23",
"!  c #7D2C24",
"~  c #7C2E2B",
"^  c #742424",
"/  c #65392D",
"(  c #78352B",
")  c #792E30",
"_  c #683233",
"`  c #783636",
"'  c #52403E",
"]  c #6E493D",
"[  c #7A4937",
"{  c #77452A",
"}  c #31294D",
"|  c #2B1E49",
" . c #543F5A",
".. c #483749",
"X. c #453C77",
"o. c #3F4543",
"O. c #484744",
"+. c #514443",
"@. c #534057",
"#. c #545451",
"$. c #78534D",
"%. c #70514E",
"&. c #78605D",
"*. c #75685D",
"=. c #4D496C",
"-. c #615364",
";. c #6B6668",
":. c #6B6676",
">. c #776C6B",
",. c #811F14",
"<. c #86261B",
"1. c #902F1F",
"2. c #832C23",
"3. c #8C2D23",
"4. c #872D2B",
"5. c #962C2A",
"6. c #833329",
"7. c #8B3228",
"8. c #8A3428",
"9. c #94342C",
"0. c #973729",
"q. c #9A2E31",
"w. c #8D3B33",
"e. c #863835",
"r. c #983A34",
"t. c #A13634",
"y. c #854539",
"u. c #8F4C3A",
"i. c #A34438",
"p. c #823F41",
"a. c #895646",
"s. c #92534B",
"d. c #BD5B4D",
"f. c #B45E4D",
"g. c #AC5A51",
"h. c #BC5D52",
"j. c #B04E43",
"k. c #8E6859",
"l. c #996957",
"z. c #95775B",
"x. c #94644A",
"c. c #A56359",
"v. c #B76258",
"b. c #AA715E",
"n. c #926C64",
"m. c #8D7165",
"M. c #887678",
"N. c #8C6D6C",
"B. c #A57562",
"V. c #B97365",
"C. c #C25B54",
"Z. c #C25E4F",
"A. c #C96459",
"S. c #CC7368",
"D. c #CB6E68",
"F. c #8D8276",
"G. c #BE917A",
"H. c #CE9278",
"J. c #DEA07B",
"K. c #514881",
"L. c #615F91",
"P. c #78718C",
"I. c #887C8B",
"U. c #9C9699",
"Y. c #99898C",
"T. c #A79393",
"R. c #BDA698",
"E. c #9C99A2",
"W. c #BAA4A8",
"Q. c #BAADB7",
"!. c #B3B3B3",
"~. c #C89989",
"^. c #D89783",
"/. c #C99E95",
"(. c #EE978D",
"). c #D6A588",
"_. c #C8A69D",
"`. c #D8A696",
"'. c #DCB095",
"]. c #E9B699",
"[. c #FABE9B",
"{. c #F5B996",
"}. c #E0AB99",
"|. c #CCB6B8",
" X c #CCABA7",
".X c #ECBEAD",
"XX c #E6B7A8",
"oX c #F4BDA3",
"OX c #F7BDA5",
"+X c #E8BEB6",
"@X c #F0BFB0",
"#X c #FFC59F",
"$X c #E4C09E",
"%X c #DCC2A7",
"&X c #FEC3A5",
"*X c #F4C3AB",
"=X c #FCC3AA",
"-X c #F7C7A8",
";X c #E9C4B7",
":X c #FCCDB5",
">X c #F7C8B6",
",X c #FBD6BB",
"<X c #E6D0B8",
"1X c #C5BEC6",
"2X c #CCC6CE",
"3X c #F5CAC1",
"4X c #FCD5C5",
"5X c #FDDAC3",
"6X c #FDD4CB",
"7X c #FDDACB",
"8X c #F4D2C8",
"9X c #FDDAD4",
"0X c #EACDCC",
"qX c #FDE3CA",
"wX c #FFE8D8",
"eX c #FFF3DD",
"rX c #E2DDE3",
"tX c #EEE6E9",
"yX c #FFEBE3",
"uX c #FEEEEB",
"iX c #F9E7E5",
"pX c #FFF2E6",
"aX c #FFF2ED",
"sX c #FFF9EE",
"dX c #F4F0ED",
"fX c #FFEFF1",
"gX c #EFF8F9",
"hX c #F5F4F3",
"jX c #FEF5F3",
"kX c #FEFAF5",
"lX c #F6F7FB",
"zX c #FCF5FB",
"xX c #F4FCFC",
"cX c #FEFEFD",
"vX c #F4FBF7",
"bX c #EEEFF1",
/* pixels */
"cXcXcXcXcXcXcXcXcXcXzXcXcXcXcXxXcXcXkXjXcXkXcXjXcXkXkXkXjXjXcXkXzXzXlXlXcXxXxXxXcXkXcXkXzXcXcXcX",
"cXcXcXcXvXcXcXkXcXcXcXlXcXcXcXcXcXcXcXcXkXcXjXzXfXjXfXjXdXcXcXzXcXcXzXzXxXxXgXxXcXvXkXcXcXcXcXcX",
"cXcXcXcXcXcXcXcXcXcXlXcXcXcXcXcXvXcXhXcXjXiXI R L R K fXuXaXjXkXcXcXkXtXcXcXvXcXcXcXcXcXcXcXcXcX",
"cXcXcXcXcXcXcXcXcXcXcXhXcXcXzXkXcXaXjXaXjXuXL _ ` ` _ _ H iXaXaXjXaXiX' jXvXcXcXcXcXcXcXcXcXcXcX",
"cXcXcXcXcXcXcXcXcXcXcXcXzXjXjX> = j z : z z y d E ` e.x.a.L L yXpXaXT I sXsXcXcXcXcXcXcXcXxXxXcX",
"cXcXcXcXkXcXcXcXcXlXcXhXjXuXO * H W a.e.p.~ Z A x v w.y.g.l.[ N s / / k eXpXjXkXcXcXcXcXxXcXcXcX",
"kXcXcXcXcXcXcXcXxXcXcXcXjXuXiXiXu W ` w.g.S.D.i.7.<.S S w.g.s.e.E l a.V.M qXaXkXcXlXcXxXcXcXcXcX",
"cXcXcXcXcXcXcXcXcXcXcXjX< 5 H h y i S m q.7.f.S.A.d.1.m S i.v.f.r.m 8.^.b./ yXzXcXcXcXcXxXcXcXcX",
"cXcXcXcXcXcXcXcXcXq > 1 K K _ e.4.r.t.5.c ,.,.1.0.h.A.1.,.,.1.(.A.c 9.(.^.( K fXzXcXcXcXcXcXcXcX",
"vXcXcXcXcXcXcXcXcXzX> 2 K J _ 6.w.j.C.A.A.A.Z.t.1.1.1.i.0.1.<.C.(.r.1.f.^.c.L iXzXcXcXcXzXcXcXcX",
"cXcXkXcXcXcXcXcXkXjXfXO * s d l 6.! 3.t.Z.Z.D.Z.j.i.<.y.j.r.,.t.d.v.c u.(.(.s.K fXzXcXcXcXcXcXcX",
"vXcXvXcXcXcXkXzXjXjXiXH N B C D ~ 6.0.5.0.0.h.C.A.h.<.S 8.w.<.S 6.v.A ! h.H.) R fXcXcXcXcXcXcXcX",
"cXcXcXvXcXcXkXcXjXfX3 L W C ~ ~ w.6.7.9.,.5.9.r.q.i.r.6.D x v l A y.l D p.S.a.l fXkXcXcXcXcXcXcX",
"cXcXcXcXcXcXcXkXjX1 K L W E Q 6.8.S c ,.m 2.m m x ! ~ ( v a g a s C g g ^ e._ U uXkXkXxXcXxXcXcX",
"cXcXcXxXcXcXkXkX, H K k W v ! ! x 2.q.t.q.5.2.^ Z W d f W d 6X>XN - a B E ) J 3 aXkXcXcXcXcXcXcX",
"cXcXcXcXcXcXkXkX, H M ; y d v n n <.q.q.q.m ! v d u a 9X>Xk 6X7X4X7X; d B L 4 yXaXkXkXvXxXcXvXcX",
"cXcXcXlXcXcXhX. o & - z W b E G 4.e.4.m G G ) e.) W s 7XqX7X;X5X5X5X4Xp P ; 3 kXkXlXcXkXcXcXcXcX",
"xXcXcXcXcXkXcXjXjX= H N l E Z ~ 7.w.^ m E E 4.e.Q ` N M +X5XqX5X<XqX,X:XV m.sX$ cXcXcXcXcXcXcXcX",
"cXcXcXcXxXcXjXkX1 H K R W E b ^ ^ G v v E ) Z Z Q A s ; qX-X:X,X,X>X,X5X;Xm.uX$ kXhXkXcXcXcXcXcX",
"cXcXcXlXcXxXcXjX> K T P l y l G G v l d l l b v i C p *XG.G.[ x.{ ).-X-X;Xk.jX< cXvXcXcXkXcXcXcX",
"cXcXcXcXcXcXcX< w Y j z l z l b ^ E u - - a l A d p p :X).$X-X].H.'.-X'.'.m.aXjXhXxXcXcXcXcXcXcX",
"cXcXcXlXcXcX    . , j 3 k z b E l u - n.`.l.N f u =X*XoX~.[ u.[ x.{ {.,Xk.wXpXkXkXcXcXcXcXcXcXcX",
"cXlXcXcXcXcXcXkXfX> & * h L W J E J $.>X@X~.g A s =X-X[.a.a.[ = - y.-X-Xz.wXsXkXjXcXcXcXcXcXcXcX",
"cXcXcXcXcXcXkXlXjXjXfXO j F J J J l * 3X>X`.i g s OX#X#Xz.~.~.* $.).-X'.z.eXpXkXcXcXcXcXkXcXcXcX",
"cXcXcXcXcXcXcXcXkXzXjX1 H H F k z z - n.@X`.:Xu i &XOX=Xb.~.yXM * /.:X$Xz.qXsXjXcXcXcXcXcXcXcXcX",
"zXcXcXcXcXcXcXcXkXkXjX1 2 H j j k z 3 - b.H.oX=Xg -X{.{.l.`.wX%.* _.,X,Xz.eXpXcXcXcXcXcXkXcXcXcX",
"cXcXcXcXcXcXcXcXcXvX< < > , 3 2 j 3 h  X- - =X=X#X].#X&X=X.X9X_.T.+X,XqX%XF.eXjXcXcXcXcXcXcXcXcX",
"cXcXcXcXcXcXcXcXhX    o . + o = 2 j : k ~.XXH.{.&X&X[.OX=X>X;X8X9X9X5X8X<X*.sXcXcXcXcXcXcXcXcXcX",
"cXcXcXkXcXcXcXcXcXcXcXdXkXcXaXo 9 2 j 3 h ~.).OX#X{.{.{.&X=X.X>X6X8X7X;XR.m.zXcXcXcXcXcXcXcXcXcX",
"cXcXcXcXcXcXcXcXcXcXvXcXcXkXkXzXo , 1 3 3 ; `.).{.#X#X#X&X[.-XoX@X+X3XR.. jXkXlXcXcXkXcXcXcXcXcX",
"cXcXkXcXcXcXcXcXcXxXcXhXcXcXkXcXkX. o , 2 j ; J.J.H.{.{.#X[.{.=X=X`.k.+ sXkXcXcXcXcXcXcXcXcXcXcX",
"cXcXcXcXcXcXcXcXcXxXcXcXkXcXcXcXzXkXaXo o O z.z.H.J.).).).).).x.z.* + aXsXcXcXzXcXcXcXcXcXcXcXkX",
"cXcXcXcXcXcXcXcXcXcXcXcXcXcXcXcXcXkXcXdXY q   . o o o o o o o . o jXkXcXcXcXcXvXcXcXcXcXcXcXcXcX",
"cXcXcXcXcXcXcXcXcXcXcXcXcXcXcXcXcXcXcXxXO.E.t q ;.M.O.w ;.1Xt -.hXxXcXcXcXcXcXcXkXcXcXcXcXcXcXcX",
"cXcXcXcXcXcXcXcXcXcXcXcXcXcXcXcXcXcXbXcXt !.1XrXq I *.  U.:.E.r #.jXcXcXcXcXcXcXcXcXcXcXcXcXcXcX",
"cXkXcXcXcXcXcXcXcXcXcXcXcXcXcXcXcXvXcXjX} 2X2XtXT.I + > W.Y.2XE.q xXcXcXcXcXcXcXcXcXcXcXcXcXcXcX",
"cXcXcXcXcXcXcXcXcXcXcXcXcXcXcXcXlXcXcXxXX U.1XY.+ _.] = 9X|.W.1Xo.gXcXcXcXcXcXcXcXcXcXcXcXcXcXcX",
"cXcXcXcXcXcXcXcXcXcXcXcXcXcXcXcXcXcXcXlX9 . O O ~.k.a.[ %.+X|.U.t gXcXvXcXkXcXcXcXcXcXcXcXcXkXcX",
"cXcXcXcXcXcXcXcXcXcXcXcXcXcXcXcXcXcXlXr -.@.I././.'.].].`.a.0X..xXxXcXcXcXkXcXcXcXcXcXcXcXcXcXkX",
"cXcXcXcXcXcXcXcXcXcXcXcXcXcXcXcXcXcXe e r 9 6 N. X*X:X:X@X/.%.Y xXgXcXcXkXcXcXcXcXcXcXcXcXcXcXcX",
"cXcXcXcXcXcXcXcXcXcXcXcXxXcXcXcXhXq >.;.@ } =. .N.0X8X3X3Xn.%.9 7 lXcXcXkXkXcXcXcXcXcXcXcXcXcXcX",
"cXcXcXcXcXcXcXcXcXcXcXcXkXcXcXcXo.o.;.E.I.0 | }  .X W.R.|.o I.|.I.cXkXkXkXcXcXcXcXcXcXcXcXcXcXcX",
"cXcXcXcXcXcXcXcXcXcXcXxXcXcXhXcX% #.!.;.:.} K.K.X.} @ @   6 ..r q $ cXcXcXhXcXcXcXcXcXcXcXcXcXcX",
"cXcXcXcXcXcXcXcXcXcXcXcXcXxXcXcX  #.U.;.P.P.8 X.L.=.| @ 7 e # 9 > . cXkXcXcXcXhXcXcXcXcXcXcXcXcX",
"cXcXcXcXcXcXcXcXcXcXcXlXcXcXlXcXzX#   ;.Q.:.@ 8 0 6 @ xX    X o N.%.-.kXcXlXzXcXcXcXcXcXcXcXcXcX",
"cXcXcXcXcXcXcXcXcXcXcXcXcXcXcXcXzXcXX Y.U.. tXrX:.lXcXbXcX  I.>.m.T I   cXcXcXzXcXcXcXcXcXcXcXcX",
"cXcXcXcXcXcXcXcXcXcXcXcXcXcXlXcXkXcXkX  . o w I H O xXcXzX. 5 5 [ ' < . cXlXcXcXcXcXcXcXcXcXcXcX",
"cXcXcXcXcXcXcXcXcXcXcXcXcXcXcXcXcXcXkXcX. +.&.&.&.o zXzXcXhX  w M & o kXcXcXcXcXcXcXcXcXcXcXxXcX"
};
