/* XPM */
static char *player_111671053769[] = {
/* columns rows colors chars-per-pixel */
"48 48 242 2 ",
"   c #040102",
".  c #0C0101",
"X  c #0A060B",
"o  c #140101",
"O  c #1D0201",
"+  c #180709",
"@  c #0A0114",
"#  c #030117",
"$  c #140716",
"%  c #18161B",
"&  c #240200",
"*  c #2A0301",
"=  c #290B07",
"-  c #390A05",
";  c #2C120B",
":  c #3A140A",
">  c #2B1515",
",  c #271817",
"<  c #371916",
"1  c #3B241C",
"2  c #28201E",
"3  c #1B1723",
"4  c #150D34",
"5  c #191639",
"6  c #110829",
"7  c #271539",
"8  c #2D1929",
"9  c #1F2136",
"0  c #2C2428",
"q  c #34292A",
"w  c #392A33",
"e  c #393639",
"r  c #2D3238",
"t  c #460802",
"y  c #4C1207",
"u  c #4C190E",
"i  c #461509",
"p  c #58180B",
"a  c #491914",
"s  c #581A15",
"d  c #550B01",
"f  c #66150C",
"g  c #671C16",
"h  c #7B1D0F",
"j  c #42231C",
"k  c #4C211B",
"l  c #492612",
"z  c #5D2018",
"x  c #56321D",
"c  c #65241B",
"v  c #77251B",
"b  c #482826",
"n  c #5A2E2C",
"m  c #582924",
"M  c #483735",
"N  c #573733",
"B  c #57312C",
"V  c #662A25",
"C  c #772B26",
"Z  c #67342B",
"A  c #7B3329",
"S  c #773A38",
"D  c #6E3733",
"F  c #5A443B",
"G  c #784A35",
"H  c #794A33",
"J  c #291D47",
"K  c #2A2947",
"L  c #3A3747",
"P  c #2B2856",
"I  c #342C58",
"U  c #36365A",
"Y  c #312F53",
"T  c #3B3767",
"R  c #121943",
"E  c #4B3948",
"W  c #41366C",
"Q  c #463B75",
"!  c #3D4246",
"~  c #494547",
"^  c #554C4F",
"/  c #794E40",
"(  c #755444",
")  c #694F56",
"_  c #65595A",
"`  c #785957",
"'  c #6A4D47",
"]  c #76645B",
"[  c #4B4377",
"{  c #564E67",
"}  c #695B64",
"|  c #615D76",
" . c #786967",
".. c #6E6871",
"X. c #871E1B",
"o. c #89261D",
"O. c #852D26",
"+. c #86342B",
"@. c #95322D",
"#. c #943B2C",
"$. c #853C36",
"%. c #973935",
"&. c #912C24",
"*. c #A43C37",
"=. c #854739",
"-. c #86553A",
";. c #974237",
":. c #A1453A",
">. c #924741",
",. c #8B5945",
"<. c #865751",
"1. c #AA4D46",
"2. c #A9554B",
"3. c #B5544C",
"4. c #A75651",
"5. c #B85B53",
"6. c #87665A",
"7. c #976A59",
"8. c #94664E",
"9. c #A36B5B",
"0. c #BB655B",
"q. c #A5694F",
"w. c #866E65",
"e. c #967468",
"r. c #907472",
"t. c #8D716D",
"y. c #A47565",
"u. c #B37366",
"i. c #C65F58",
"p. c #C3665A",
"a. c #C86961",
"s. c #CB776D",
"d. c #CE977C",
"f. c #CD957B",
"g. c #EF8C7D",
"h. c #F38D7E",
"j. c #595388",
"k. c #7D74A6",
"l. c #7E7789",
"z. c #867982",
"x. c #8B8989",
"c. c #878B93",
"v. c #998E8F",
"b. c #BB958A",
"n. c #A49697",
"m. c #B89B96",
"M. c #AE8B8E",
"N. c #B8A39D",
"B. c #848CAB",
"V. c #8992A3",
"C. c #9696A7",
"Z. c #9899B8",
"A. c #958BAF",
"S. c #A398A0",
"D. c #ACA7AA",
"F. c #B6A7AA",
"G. c #A9B3BD",
"H. c #B9B4B8",
"J. c #B9AFB0",
"K. c #D59D88",
"L. c #C39D93",
"P. c #CA9C94",
"I. c #C89999",
"U. c #C59B8C",
"Y. c #F59689",
"T. c #F39085",
"R. c #D8A589",
"E. c #CCA79D",
"W. c #C6A599",
"Q. c #D9A997",
"!. c #DDBA9C",
"~. c #ECB69B",
"^. c #EEB299",
"/. c #C29BA6",
"(. c #C7A9A5",
"). c #DAADA4",
"_. c #C9B3AB",
"`. c #DCB5AC",
"'. c #CCB4B3",
"]. c #E6BBA9",
"[. c #F4BAA4",
"{. c #E8BBB4",
"}. c #FABCB3",
"|. c #EBAEA9",
" X c #EBC7AA",
".X c #F7C6AA",
"XX c #EAC4B4",
"oX c #FFCBB7",
"OX c #F2CBBA",
"+X c #FAC6B7",
"@X c #F6D3B3",
"#X c #FED4BA",
"$X c #FDDABB",
"%X c #F8D4BA",
"&X c #FFE1BE",
"*X c #A5ABC8",
"=X c #B2AEC7",
"-X c #AAB5C9",
";X c #B9B9C7",
":X c #B8BAD7",
">X c #B0B3D1",
",X c #A79FD0",
"<X c #C6B8CC",
"1X c #BAC6D7",
"2X c #B9C0C8",
"3X c #BAC3E2",
"4X c #C4C2C6",
"5X c #D5CDD0",
"6X c #F9CBC2",
"7X c #FCD5C4",
"8X c #FEDBC2",
"9X c #FDD4CB",
"0X c #FEDBCC",
"qX c #F5D3C7",
"wX c #E3DDDE",
"eX c #FFDCD2",
"rX c #FAD7D8",
"tX c #EBCDC2",
"yX c #FFE2C4",
"uX c #FFE2C9",
"iX c #FFE4DF",
"pX c #FEE6D6",
"aX c #D7D9F9",
"sX c #C2C1E0",
"dX c #E2DCF1",
"fX c #E8E6EB",
"gX c #FEECE5",
"hX c #FFEDEC",
"jX c #FCE6E4",
"kX c #FEF3EE",
"lX c #FAF1EA",
"zX c #E8E6FA",
"xX c #FDECF0",
"cX c #F5F3F5",
"vX c #FEF5F3",
"bX c #FDFAF5",
"nX c #F5F5F8",
"mX c #FBF6FA",
"MX c #F6FCFC",
"NX c #FDFDFD",
"BX c #F7FBF6",
"VX c #D4E5F5",
/* pixels */
"NXNXNXNXNXbXNXNXNXNXMXNXMXMXNXbXvXgXNXNXbXNXNXvXkX> vXbXbXbXNXNXmXNXNXNXNXNXNXNXMXMXNXNXNXNXNXNX",
"NXNXNXNXbXNXbXNXNXNXNXNXMXNXcXbXM kXvXbXbXmXkXkX< b 1 kXkXlXbXbXmXmXq NXNXnXmXNXNXMXNXNXNXNXNXNX",
"NXNXNXNXNXNXNXNXNXNXNXNXNXNXbXvXM B b gXvXhXvX< m B j < kXkXgXlX> = > mXmXmXNXNXNXNXNXNXNXNXNXMX",
"NXNXNXNXNXNXNXNXNXNXbXNXNXkXkXjXm S V * : j : a D S m s j ; : : n n < xXvXmXmXNXNXNXNXNXNXNXNXNX",
"NXNXNXNXNXbXNXNXNXNXNXbXmXxXjXjXV C S $.V a u c =.4.A c y i V S S V k jXkXvXmXxXNXNXNXNXNXNXNXNX",
"NXNXNXNXNXNXNXNXNXNXbX, M N m s C C %.4.>.V p v 2.0.0.v f A >.4.>.g s - < , 1 o mXNXNXNXNXNXNXNX",
"NXNXNXNXNXNXNXNXNXNXmXvXj m n S $.X.@.4.i.%.C C 5.T.i.o.f %.5.2.%.O.$.D m j o mXmXNXNXNXNXNXNXNX",
"NXNXNXNXNXNXNXNXNXNXvXhXjX- V >.1.%.X.*.T.5.+.h Y.h.g.X.#.p.5.%.X.@.3.=.m * xXxXvXNXNXNXNXNXNXNX",
"NXNXNXNXNXmXNXNXNX2 > < < s V O.i.a.#.o.i.Y.0.o.Y.h.Y.&.p.p.:.:.*.3.4.S s a j < ,   NXNXnXNXNXNX",
"NXNXNXNXNXNXNXNXNXvXO < D $.$.@.p.h.p.&.:.5.q.;.Y.h.g.#.3.2.;.o.@.3.@.O.C S k > o mXNXNXNXNXmXNX",
"NXNXNXnXMXNXbXbXNXvXgX& m $.0.a.@.i.0.&.h =.0.+.p.Y.0.;.:.-.h v O.@.v +.$.V a & hXNXMXNXNXNXNXmX",
"NXNXNXNXNXNXNXNXmXvXhX* s V $.5.1.:.s.+.d p $.g O.0.$.v A g l z g v O.A S V - & kXvXNXnXNXNXNXNX",
"NXNXNXNXNXNXNXq , > < a s f g O.&.O.t t u t Z y $.A C p z i i i p s C C C z a b > , , r NXNXNXNX",
"nXNXNXNXNXNXNXbXX 1 ^ S V g g f d C s 6XuX- - y V S g p p l OXyXu V p f s s m b < , . NXMXMXNXMX",
"NXNXNXNXbXNXbXNXmXo N S D g g t }.+X- pX9X9XrXz a V u - 9X9XeXpX- 9X}.t s s n B < o vXNXNXNXNXNX",
"NXNXNXNXNXNXNXNXvXxX- m C S C g }.+X0X%XeXrX9X6Xa m i : i qX9X9XrX9X|.V g D V < o xXNXNXNXMXNXNX",
"NXNXNXNXNXNXNXNXmXxXk - V c g p d .XoX7X$X%X8X7XuXx yXOXqX: uX0X#X}.y g =.m : ; < xXmXmXNXNXNXNX",
"NXNXNXNXNXNXNXbXmX> b n $.=.c p g ~.}.#X&X&X8XuXqX0X%XuXyX: 0X#X.X[.y y m s n : q q mXmXNXNXNXNX",
"NXNXNXNXNXNXNXNXxXo & * a V =.t ^.q.-.=.H R..X+XyX$X$X#X.XQ.H =.=.u.Q.t c V l O o o NXNXNXNXNXbX",
"NXNXNXNXNXNXNXMXmXvXhX<.I.u s y f.[.~..X[.d.Q.[.$X$X#X.Xd.K. XoX^.[.K.y y u 6.` hXmXmXNXNXNXNXNX",
"NXmXNXNXNXNXNXbXNXvXiX` 0XW.- y.d.-.G G 7.-.f.^.[..X[..Xd.-.H -.-.H R.9.u W.0X' vXvXNXNXNXNXNXbX",
"NXNXNXNXNXNXNXNXNXbXbXo qX%Xi 8.,.G * & * / 9.|..X[..X~.q.-.* * & G ,.9.t XXrXO bXNXNXNXNXNXNXNX",
"NXbXNXNXNXNXNXMXMXbXlX. _.`.: 7.U.E.B = = * y.}.[..X|.oX7.* ` O O (.f.y.i XX'.o kXNXNXMXNXNXNXNX",
"NXbXNXNXNXNXNXMXNXbXbXbX. e.1 7.W.pXb + M '.I.}.[..X+X].P.W.b O w vXL.7.: t.o bXbXNXNXMXMXNXMXNX",
"NXNXNXNXNXNXNXNXMXNXbXbXbX. ; w.(.rX` + ) jX`.%X+XoXOX%XW.gX` O } xXI.y.& o kXNXNXNXNXMXNXNXNXNX",
"NXNXNXNXNXNXNXNXMXNXMXbXbXbXO w.(.rX).M./.iX`.$X8XoX$X$XXXlXM.m.M.xXI.w.o vXbXNXNXNXMXMXNXNXNXNX",
"NXNXNXNXNXNXNXNXNXMXMXNXbXbXlXo E.).{.{.6X9X&X&X.X$X$XyX$X9X9X{.6XI.m.o vXmXbXmXNXNXMXMXNXNXNXNX",
"NXbXNXNXNXNXNXNXNXNXMXbXbXNXbXO w.I.{.+X}.7X@X@X$X!.&X@XyX XXX+X6XI.r.o vXbXNXMXNXNXMXNXNXNXNXNX",
"NXMXMXMXNXNXNXNXNXNXMXNXNXcXbXvXo t.Q.{.~. X@X X!.!.%X~. X%XXXXXP.e.o NXNXNXmXNXNXNXNXNXNXNXNXNX",
"MXNXMXNXNXNXNXNXmXNXNXnXMXNXNXmXmX& * y.Q.!..X X X X`.OXOX`.E.6.& & NXnXNXNXNXNXNXNXNXNXNXNXNXNX",
"NXMXMXMXNXNXNXNXNXNXNXNXMXNXNX~ M 1 M O * y.7.Q.U.Q.).I.6.e.O o M ~ ~ ! nXMXNXNXNXNXNXNXNXNXNXNX",
"NXMXMXNXNXNXNXmXmXNXMXNXMXNXe x.4X0 w.r.F = = & & * & & & o M.v.S.H.;Xc.~ NXNXNXNXNXNXbXNXNXNXNX",
"NXNXNXNXmXNXNXNXNXNXBXbXbXe C.J.fX8 w.r.] q ] J.e t.E 4X| x.2XH.;X;XfXH.x.~ NXNXcXmXNXNXNXNXNXNX",
"NXNXNXNXNXNXmXNXNXnXbXbXbX! D.fXfXX w.} ' . v. .D.e C.| V.1XG.2X| <XwXfXH.~ cXMXNXNXNXNXNXNXNXNX",
"NXbXnXNXnXNXNXNXNXNXlXbXlX  D.'.z.S.+ . . D.4Xc.;Xj.>XZ.2X*XG.V.{ C.c.5Xx.  NXmXnXmXNXNXNXNXNXNX",
"NXNXNXNXNXNXmXNXmXvXbXbXkX .. . + M 8 w 3 fX2X2X;XA.:X>X1XVX1XV.# L .   . _ NXNXmXNXNXNXNXNXNXNX",
"NXNXNXNXNXNXMXNXbXbXlXpX] m.N._.n.= $ E 3 G.;X-X<X>X:X>X3X>XV.V.L @ H.F.D.J._ mXNXmXbXbXNXbXNXNX",
"NXNXbXNXMXNXmXNXNXgXw.w.( XXOXN.o xXw l.# 1X-X*XsXaX:X*X*X3X-XB.K NXX r M 0 0 NXNXNXNXNXNXNXNXNX",
"NXNXNXbXNXNXMXNXbX] 6.( L.0X0XN.O > 5 ! 6 B.3XaXzXaXaXzX3XB.Z.B.{ 3 X w M wX5X} cXNXNXNXNXNXNXNX",
"NXNXmXNXNXNXNXNX .'._.( Q.OX0XW.O 8 L # P R P I 4 4 J J P R U K 6 !   ~ ..5X'.{ NXNXNXNXNXNXNXNX",
"NXNXMXNXNXNXMXfXx.N.b.G L.7XG W.& o X K T [ W j.z.,Xz.j.Q W W I 9 L % 0 0 } ~ % NXNXNXNXNXNXNXNX",
"NXNXNXNXNXNXNXNX_ n.] ` ).b.& + ] ] 3 K I P j.Q P j.I W Q Q I J 9 ! % % $ ~ e 3 NXNXNXNXNXMXMXNX",
"NXNXNXNXNXNXNXNX   .'.v.O & & F w.~ % Y [ z.W I R P 4 Y [ j.Q I 9 r r 3   X   NXNXMXNXMXNXNXNXNX",
"NXNXbXNXNXNXNXNXbX..'.] O < F ^ B ^ $ @ 6 7 7 6 6 # $ @ 7 7 J 4 X % 0 % NXNXnXNXNXMXNXNXNXNXNXNX",
"NXNXNXNXNXNXNXNXMX..n.. bXo . . + . X } F.rX9X(.) xX) (.rXrX/.E % X X   NXnXNXnXNXNXNXNXNXNXNXNX",
"NXNXNXbXNXNXNXNXbX  X   cXbXbXBXbXNXhX) (.`.OXb.) jX' (.OX).`.6.lXnXcXNXNXNXNXNXNXNXNXNXNXNXNXNX",
"NXNXbXbXbXNXNXMXMXNXMXMXbXfXNXMXbXbXvX= a Z H x O lX; j x x l & vXmXnXbXNXMXbXNXNXNXNXNXNXNXNXNX",
"NXbXbXBXNXNXNXNXNXNXMXMXMXNXnXNXNXbXMXo 1 6.G l = gXO 1 ( ( 1 o mXNXMXNXNXNXNXNXmXNXNXNXNXNXNXNX"
};
