/* XPM */
static char *player_51671053768[] = {
/* columns rows colors chars-per-pixel */
"48 48 236 2 ",
"   c #040101",
".  c #0C0201",
"X  c #05020A",
"o  c #130201",
"O  c #1C0201",
"+  c #1B0608",
"@  c #170F13",
"#  c #240201",
"$  c #2B0002",
"%  c #270909",
"&  c #330300",
"*  c #390704",
"=  c #28130B",
"-  c #37140C",
";  c #291918",
":  c #341413",
">  c #3D1514",
",  c #341B19",
"<  c #3B1C1B",
"1  c #3B1A11",
"2  c #36211C",
"3  c #0D0A28",
"4  c #161529",
"5  c #1E0523",
"6  c #391C23",
"7  c #29152A",
"8  c #2B2423",
"9  c #3C2424",
"0  c #352727",
"q  c #38322F",
"w  c #383637",
"e  c #282A37",
"r  c #4A0D02",
"t  c #430E0B",
"y  c #450A03",
"u  c #550C0B",
"i  c #4B140D",
"p  c #48160A",
"a  c #53130B",
"s  c #571809",
"d  c #441312",
"f  c #4A1A15",
"g  c #431B1B",
"h  c #4A1615",
"j  c #5C1613",
"k  c #5B1B13",
"l  c #5B1D1B",
"z  c #551815",
"x  c #490E12",
"c  c #771A0E",
"v  c #631D1B",
"b  c #681B15",
"n  c #741C15",
"m  c #7A1C15",
"M  c #65140C",
"N  c #482219",
"B  c #582519",
"V  c #5A2C16",
"C  c #6C211D",
"Z  c #64231A",
"A  c #7B231B",
"S  c #74241B",
"D  c #491E22",
"F  c #591E20",
"G  c #611E21",
"H  c #4B2424",
"J  c #462826",
"K  c #5C2322",
"L  c #562A2A",
"P  c #592A28",
"I  c #55302E",
"U  c #443639",
"Y  c #563435",
"T  c #652223",
"R  c #6A2422",
"E  c #6A2A2B",
"W  c #662927",
"Q  c #752623",
"!  c #782926",
"~  c #68392C",
"^  c #79332A",
"/  c #652E33",
"(  c #6A3737",
")  c #7A3939",
"_  c #5D433C",
"`  c #794726",
"'  c #6B4739",
"]  c #794539",
"[  c #70513F",
"{  c #181D45",
"}  c #1D254C",
"|  c #3D3749",
" . c #2B2B51",
".. c #3E3B69",
"X. c #493450",
"o. c #433A67",
"O. c #3B4053",
"+. c #464648",
"@. c #525150",
"#. c #664642",
"$. c #795949",
"%. c #685958",
"&. c #775955",
"*. c #744D48",
"=. c #7D6455",
"-. c #6B645C",
";. c #524A73",
":. c #664F6E",
">. c #686564",
",. c #766866",
"<. c #6E6C72",
"1. c #757376",
"2. c #841D16",
"3. c #852419",
"4. c #882B26",
"5. c #972C27",
"6. c #8D3226",
"7. c #86322A",
"8. c #963629",
"9. c #833836",
"0. c #933C34",
"q. c #983732",
"w. c #A2382E",
"e. c #814B2C",
"r. c #874538",
"t. c #954238",
"y. c #885533",
"u. c #A64537",
"i. c #865947",
"p. c #8B5D53",
"a. c #904947",
"s. c #AA564C",
"d. c #B75647",
"f. c #B25E56",
"g. c #85664D",
"h. c #886956",
"j. c #976C59",
"k. c #98715A",
"l. c #83705F",
"z. c #A86A56",
"x. c #BB645A",
"c. c #896B65",
"v. c #99786D",
"b. c #997875",
"n. c #8C7F77",
"m. c #AC6A62",
"M. c #B66E65",
"N. c #C35951",
"B. c #C26354",
"V. c #C6665C",
"C. c #D06A5E",
"Z. c #C96F65",
"A. c #95877A",
"S. c #CF9574",
"D. c #E2857D",
"F. c #73739C",
"G. c #7476A9",
"H. c #98969A",
"J. c #928F91",
"K. c #B59A91",
"L. c #B0948C",
"P. c #9596A1",
"I. c #A99DA1",
"U. c #A7A7AB",
"Y. c #B7B4B9",
"T. c #B4ABB0",
"R. c #C79B8A",
"E. c #D59A8C",
"W. c #C89D94",
"Q. c #D19189",
"!. c #E89587",
"~. c #E19C91",
"^. c #F29C8D",
"/. c #DBA287",
"(. c #CBA498",
"). c #D4A799",
"_. c #CCAD96",
"`. c #E7A898",
"'. c #EBB89C",
"]. c #F4B99D",
"[. c #E1AC8A",
"{. c #D3B7A7",
"}. c #CFAFB1",
"|. c #E8B9A4",
" X c #F5BDA7",
".X c #E9BDB5",
"XX c #F4C39C",
"oX c #F6C89E",
"OX c #EEC09E",
"+X c #EDC4AB",
"@X c #F4C4A4",
"#X c #F9C4A3",
"$X c #FBC9AD",
"%X c #F7C6A8",
"&X c #EBC6B3",
"*X c #FDC5B0",
"=X c #FECCB4",
"-X c #F6CCBB",
";X c #EAD3BD",
":X c #FCD5BA",
">X c #B4B7C9",
",X c #B2B2E4",
"<X c #C6BDC8",
"1X c #BDC3E3",
"2X c #C2C2C3",
"3X c #FAC9C4",
"4X c #FED5C3",
"5X c #FDDBC3",
"6X c #FDD3CB",
"7X c #F8D7C8",
"8X c #FFDBD3",
"9X c #FCDBD8",
"0X c #FDE2CA",
"qX c #FFE5DD",
"wX c #FCE6D7",
"eX c #FFF0DC",
"rX c #D1DBFE",
"tX c #E4DEE0",
"yX c #DBE1F9",
"uX c #E9E5E7",
"iX c #FFE6E5",
"pX c #FFE9E4",
"aX c #FEECEA",
"sX c #F4EDEC",
"dX c #FFF3EC",
"fX c #FCF5EA",
"gX c #FEEFF1",
"hX c #F1EFF2",
"jX c #F5F4F5",
"kX c #FEF4F4",
"lX c #FEFAF5",
"zX c #FBF6FA",
"xX c #F6FCFB",
"cX c #FEFEFD",
"vX c #F6F8F7",
"bX c #EEF1F8",
/* pixels */
"cXcXcXcXcXcXcXcXcXcXcXcXcXcXxXcXcXcXcXzXcXkXaXY H iXiXaXkXkXcXlXxXxXxXzXcXzXcXcXzXzXcXcXcXzXcXcX",
"zXcXcXzXcXcXcXcXcXcXcXcXcXxXxXvXcXzXzXgXkXkXaX, #.Y Y aXaXkXkXlXcXxXcXcXzXcXcXcXxXxXcXcXzXcXcXcX",
"cXzXcXcXvXcXcXxXxXxXxXxXxXcXcXcXzXgXgXkXgXaXaX* F ) #.L I pXdXdXkXkXkXcX; zXjXcXcXxXcXcXzXzXzXcX",
"cXcXzXzXcXlXvXxXxXxXxXcXjXsX+ 8 + 9 < D < * t f x v ) ) ] N I qXiXkXiX< #.gXkXcXcXxXcXcXcXzXcXcX",
"cXcXcXcXcXcXcXcXcXcXcXzXcXkXdXo J L ( / ) a.) R M u n 9.m.Q.E K W d P ] L qXpXcXcXxXxXxXcXcXcXcX",
"cXcXcXcXcXcXxXcXcXcXgXkXiXaXaXdX# f R ) 9.a.x.x.6.4.b n 0.f.s.r.R j ] z.] ~ pXkXcXxXcXcXcXcXzXcX",
"cXcXcXxXcXcXcXcXsX6 ; 6 < - > $ f l Q n 4.q.q.d.B.x.8.m m q.s.x.0.M t./.M.B iXaXzXcXxXxXcXcXcXcX",
"cXcXcXxXcXcXcXcXzXkX= 9 H L ) ~ ^ ^ 6.w.5.2.2.5.w.N.d.8.2.2.7.!.V.6.8.D.!.9.L aXcXcXcXxXcXcXcXcX",
"cXcXcXcXzXcXcXcXcXkXkXO g P K ) ! 5.5.N.V.N.d.8.w.8.u.u.u.c c Z.D.6.3.B.^.z.K iXkXcXcXcXcXcXcXcX",
"cXcXcXcXcXcXcXcXcXcXkX9X# d k C A 5.5.w.N.C.B.N.u.8.3.u.u.8.c 6.Z.x.2.3.^.S.( ( kXcXcXxXcXcXcXcX",
"cXzXcXjXcXcXzXcXcXlXaXH h l v Q 4.3.5.5.5.5.d.d.Z.x.3.A 6.6.S S t.s.3.3.x.`.a.D kXcXcXlXcXcXcXcX",
"cXcXzXcXcXzXcXcXcXkX, L K E ! 4.5.q.5.5.5.5.a.6.t.t.e.3.S S s V Z 7.b S 6.z.) D gXzXcXcXcXcXcXcX",
"cXcXcXcXcXcXzXkXiX6 L L l G C Q A 2.2.2.4.2.m n S S ^ ! V s r k p k s M G a.( ( aXlXcXlXcXcXcXcX",
"cXcXxXzXcXcXcXcXU 9 H L W G Q A A 4.5.5.q.4.7.Q C Q z j V z 8X&XN t r Z T ) W % kXlXlXxXcXcXcXcX",
"cXxXcXcXcXcXcX    o % # t i v Q 4.4.q.4.4.A Q b b j z 3X6X& 3X8X7XqXt h G G > pXfXlXxXxXcXcXcXcX",
"cXcXcXzXcXcXcXcXcXcX: < K T Q 9.4.t.7.! ! G 7.9.^ Z y 9X6X7X8XwX7X7X6Xh z f - , lXlXlXcXcXcXcXcX",
"cXxXcXcXzXcXzXkXaX6 L K E v R b G Q Q u R T R ) ) ) W * 6X9X4X0X:X0X:X5XP v.fXfXq lXlXcXcXxXcXcX",
"cXcXcXxXzXcXkXgXD D / / G G G v ! G k a W W E G G E i i 7X-X5X:X5X5X:X:X&X=.eXlX@ xXcXcXcXcXcXcX",
"cXcXzXcXcXcXcX0 0 I D W T j v R b M f f z B v v x v r *X/.z.` e.i.S.%X'.:Xv.fXfXlXcXcXcXcXcXcXlX",
"cXcXcXvXcXjX  . ; 6 g > t l l j v r * & & & l b r y s /./.#X#XXXS.S.].@X).l.fXlXfXcXcXcXcXcXcXcX",
"cXcXcXcXcXcXcXkX. o : g t x K R T Z ] h.~.j.a Z s =X'.$X/.e.y.y.e.y.#X@Xk.eXfXlXlXcXcXcXcXcXcXlX",
"cXcXvXcXcXhXzXcXgXkXO : d H W W G v p.|.3X`.r Z r '.=X'.` ` i.$ * ] OX%Xg.eXfXfXuXlXcXcXcXcXcXcX",
"cXcXcXcXcXcXxXkXcXlXaXo < P P F T z $ 6X7XR.r V s  X[.=Xj.R.(.$ *.(.'.:Xh.0XfXlXlXlXcXcXcXcXcXlX",
"cXcXcXcXcXzXcXcXvXcXzX, J L H h h x * p.&XR.=Xp * =X$X+Xz.W.iXD # _.+XOXk.eXfXlXcXlXlXcXcXcXcXcX",
"cXcXcXcXzXcXcXcXxXcX; ; ; 2 > g d d f $ j.E.*X Xs @X%X'.k.W.aX&.$ W.7X+X_.wXfXlXlXcXcXlXcXcXcXcX",
"cXcXcXzXcXcXcXcXvX    . . = : : > h * E.y *  X*X`. X#X#X$X+X3XL.}..X5X5X{.=.fXjXlXlXcXcXcXcXcXcX",
"cXcXcXcXzXcXcXvXcXcXlXcXlX. O , < g d i ~.~.!.].$XoXXXoXoX@X-X*X7X5X7X0X7XA.vXfXlXcXcXcXcXcXcXxX",
"xXcXcXcXcXzXcXcXcXcXcXvXkXlXkX. ; < g * u ~.E. X#X'.XXoXoX'. X=X:X:X7X&XK.n.fXvXlXcXcXcXcXcXcXcX",
"cXcXcXzXcXcXcXcXxXcXcXcXcXlXlXcXo = < N p t E.E.=X X#X#XoX#XOX%X$X X|.(.= aXcXcXcXlXcXcXcXcXcXcX",
"cXcXvXcXzXcXcXcXcXcXcXcXvXcXzXcXcX  o , - > f R.R./. X|.@X@X@X%X|.).c.O dXkXlXzXcXcXlXcXlXcXcXcX",
"cXcXcXvXcXcXcXcXcXcXcXcXcXcXcXcXzXcXcX. o o c.v.R.W.W.).R._.(.j.A.# o wXkXcXkXcXvXxXcXcXcXcXcXcX",
"cXcXzXcXcXcXcXcXcXcXcXcXcXcXcXcXcXcXcXkXq , O O # # # # O O O = o fXfXkXcXvXcXcXcXcXcXcXcXcXcXxX",
"cXcXcXcXcXcXcXcXcXcXcXcXcXcXcXcXcXcXxX| H.Y.U ; c.b._ 0 >.}.w %.xXvXxXcXcXcXcXcXcXcXcXcXcXcXcXcX",
"cXcXcXcXcXcXcXcXcXcXcXcXcXcXcXcXcXcXxX+.Y.T.Y.uX7 9 -.o J.<.H.+.w xXcXcXxXcXcXcXcXcXcXcXcXcXcXcX",
"cXcXcXcXcXcXcXcXcXcXcXcXcXcXcXcXcXkXcX  I.}.uXuX,.. .   Y.P.U.H.@.cXxXcXcXcXcXcXcXcXcXcXcXcXcXcX",
"cXcXcXcXcXcXcXcXcXcXcXcXcXcXcXcXcXcXjX,.o o . . o ; 8 T.uX>X2XU.| bXcXxXcXcXcXcXcXcXcXlXcXcXcXcX",
"cXcXcXcXcXcXcXcXcXcXcXcXcXcXcXcXcXcXkXpX=.{.R.*.# #.; <X>X>XY.U.| xXcXcXcXcXcXcXcXcXcXcXcXcXcXcX",
"cXcXcXcXcXcXcXcXcXcXcXcXcXcXcXcXcXxXlX= $.S.{.-X$.,.@ >X>X>XyX} cXbXcXcXcXcXcXcXcXcXcXcXcXcXcXcX",
"cXcXcXcXcXcXcXcXcXcXcXcXcXcXcXcXcXkX0 J [ (.9X-XK.*.7 P.1XrXyXO.xXcXcXcXcXcXcXcXcXcXcXcXcXcXcXcX",
"cXcXcXcXcXcXcXcXcXcXcXcXcXcXcXcXlXq ,.,.&.(.6X6X{.%.4 | } } { 4 cXvXcXlXcXcXcXcXcXcXcXcXcXcXcXcX",
"cXcXcXcXcXcXcXcXcXcXcXcXcXcXcXcXq +.,.H.+ _.6X}.b.:.| ;.F.G.1XF.uXfXlXlXlXcXcXcXcXcXcXcXcXcXcXcX",
"cXcXcXcXcXcXcXcXcXcXcXcXcXcXcXcX  @.2X-.8 o K.}.+ 5 X..... .o.3 cXcXcXlXlXcXcXcXcXcXcXcXcXcXcXcX",
"cXcXcXcXcXcXcXcXcXcXcXcXcXcXcXcX8 @.J.>.  0 O + X.X.F.o. .3 { 3 cXzXcXcXcXcXcXcXcXcXcXcXcXcXcXcX",
"cXcXcXcXcXcXcXcXcXcXcXcXcXcXcXcXxX  X <.Y.  O % D 7 5 7 7 X @ X zXjXcXcXcXcXcXcXcXlXcXcXcXcXcXcX",
"cXcXcXcXcXcXcXcXcXcXcXcXcXcXxXcXxXcX  1.J.o [ l..X3X9X&.,.-.-.cXcXzXcXcXcXcXcXcXcXcXcXcXcXcXcXcX",
"cXcXcXcXcXcXcXcXcXcXcXcXcXcXcXcXcXcXzX  . . &._..X.Xp.a.k.=.fXfXjXcXcXcXcXcXcXcXcXcXcXcXcXcXcXcX",
"cXcXcXcXcXcXcXcXcXcXzXxXcXcXcXcXxXxXcXcXcXlX% V V ~ N & p N o uXlXcXcXcXcXzXcXcXcXcXcXcXcXcXcXcX",
"cXcXcXcXcXcXcXcXcXcXcXcXcXcXxXzXcXcXcXkXcXlXo _ $.g.' - 1 J . cXlXcXlXcXcXcXcXcXcXcXcXcXcXcXcXcX"
};
