/* XPM */
static char *player_71671053768[] = {
/* columns rows colors chars-per-pixel */
"48 48 235 2 ",
"   c #010101",
".  c #0D0002",
"X  c #0B020B",
"o  c #04030D",
"O  c #130201",
"+  c #1C0201",
"@  c #180606",
"#  c #0B0815",
"$  c #130412",
"%  c #141319",
"&  c #240201",
"*  c #2D0101",
"=  c #2C0B07",
"-  c #320100",
";  c #3C0200",
":  c #370C06",
">  c #281205",
",  c #3D130B",
"<  c #341507",
"1  c #2C1313",
"2  c #261A1C",
"3  c #2B1819",
"4  c #331312",
"5  c #34191A",
"6  c #3A1917",
"7  c #2B0E11",
"8  c #30201F",
"9  c #0F0522",
"0  c #191725",
"q  c #171031",
"w  c #241827",
"e  c #341E21",
"r  c #271C38",
"t  c #372828",
"y  c #342732",
"u  c #393739",
"i  c #2B2A34",
"p  c #450B03",
"a  c #470B09",
"s  c #491507",
"d  c #56170C",
"f  c #431514",
"g  c #481916",
"h  c #5C1B13",
"j  c #561813",
"k  c #580B09",
"l  c #621B15",
"z  c #6C1B16",
"x  c #6A1D1B",
"c  c #671513",
"v  c #771B18",
"b  c #6B120D",
"n  c #4B2319",
"m  c #552113",
"M  c #5A221A",
"N  c #62231D",
"B  c #6B221E",
"V  c #662A1F",
"C  c #7C221D",
"Z  c #72241D",
"A  c #5B1D20",
"S  c #6B1E22",
"D  c #701E21",
"F  c #492726",
"G  c #532624",
"H  c #5D2B24",
"J  c #552C2D",
"K  c #592A2A",
"L  c #582723",
"P  c #483328",
"I  c #58372A",
"U  c #483435",
"Y  c #5B3838",
"T  c #632423",
"R  c #6B2524",
"E  c #6B2A24",
"W  c #682A2A",
"Q  c #732622",
"!  c #792A26",
"~  c #69312B",
"^  c #7A362B",
"/  c #7A2B30",
"(  c #773736",
")  c #683534",
"_  c #75441C",
"`  c #5E4438",
"'  c #68433A",
"]  c #764639",
"[  c #785338",
"{  c #292846",
"}  c #312C42",
"|  c #383650",
" . c #363861",
".. c #483B50",
"X. c #3D4749",
"o. c #46454B",
"O. c #5B4346",
"+. c #454458",
"@. c #595355",
"#. c #684C49",
"$. c #7B5649",
"%. c #6B5457",
"&. c #755759",
"*. c #6C4D4A",
"=. c #5C605F",
"-. c #61605E",
";. c #7E5F68",
":. c #605077",
">. c #796468",
",. c #6E6C6E",
"<. c #4C4B70",
"1. c #831C19",
"2. c #84231D",
"3. c #8D271F",
"4. c #842522",
"5. c #882B25",
"6. c #922D28",
"7. c #8B322C",
"8. c #83322B",
"9. c #96332C",
"0. c #8B3332",
"q. c #863834",
"w. c #973733",
"e. c #A03B2F",
"r. c #9C423A",
"t. c #855238",
"y. c #A6443D",
"u. c #893E42",
"i. c #895848",
"p. c #924A48",
"a. c #B34F48",
"s. c #AC5954",
"d. c #BA5B54",
"f. c #AB5048",
"g. c #88685A",
"h. c #986A58",
"j. c #96735C",
"k. c #936C52",
"l. c #A56C52",
"z. c #896B66",
"x. c #8C736B",
"c. c #BD6863",
"v. c #A3776A",
"b. c #B0726E",
"n. c #C25C54",
"m. c #C6635A",
"M. c #C96E68",
"N. c #928778",
"B. c #B18B71",
"V. c #CC9679",
"C. c #D29B7D",
"Z. c #E5A67D",
"A. c #6E6081",
"S. c #6A5E8C",
"D. c #877690",
"F. c #7B8386",
"G. c #8A8D9A",
"H. c #99969A",
"J. c #938D96",
"K. c #A3959F",
"L. c #B69087",
"P. c #BCA99B",
"I. c #928EA7",
"U. c #9896A7",
"Y. c #8F93A8",
"T. c #B4B4BB",
"R. c #A9A9AC",
"E. c #CB9786",
"W. c #D99A8E",
"Q. c #CC9690",
"!. c #E9948E",
"~. c #E79692",
"^. c #DAA38B",
"/. c #C8A597",
"(. c #D8A495",
"). c #CBA485",
"_. c #EAB89A",
"`. c #FEBC9D",
"'. c #F5B89A",
"]. c #F1A995",
"[. c #C8A7A3",
"{. c #DAB6AB",
"}. c #DBB4AB",
"|. c #E8BBAA",
" X c #F4BDA8",
".X c #E4BBBC",
"XX c #F9A4A1",
"oX c #F5C29B",
"OX c #FDC19E",
"+X c #FCC1A4",
"@X c #F8C6A8",
"#X c #EBC8B6",
"$X c #FCCBB3",
"%X c #F7C9BC",
"&X c #FFD3BB",
"*X c #F9D7BD",
"=X c #EFCCB6",
"-X c #DBC4B2",
";X c #ABB7C6",
":X c #B6B6C9",
">X c #B5BFD1",
",X c #C0BDCE",
"<X c #B4C4D3",
"1X c #C6C6CA",
"2X c #FBCDC5",
"3X c #FDD4C2",
"4X c #FFD3CC",
"5X c #FEDBCC",
"6X c #F7D5C8",
"7X c #FFDCD2",
"8X c #E5D8D7",
"9X c #FFE3C8",
"0X c #FFE9DD",
"qX c #FFF0DE",
"wX c #EADDEB",
"eX c #F8D9E3",
"rX c #DFE6EE",
"tX c #E7E7E4",
"yX c #FFECE4",
"uX c #FFECEC",
"iX c #FAE9EA",
"pX c #FEF3E4",
"aX c #FEF4EC",
"sX c #FEF9ED",
"dX c #F7F2EC",
"fX c #F9ECF3",
"gX c #F4F4F3",
"hX c #FEF5F4",
"jX c #F7FCF5",
"kX c #FDFBF5",
"lX c #FDF7FA",
"zX c #F5FDFB",
"xX c #FEFDFD",
"cX c #F5F6F8",
"vX c #D7CFE4",
/* pixels */
"xXxXzXzXxXxXxXlXlXxXxXxXxXxXxXxXxXxXlXxXxXxXhXlXhXfXaXkXxXxXxXxXcXxXxXxXxXxXxXxXxXxXxXxXxXxXxXxX",
"xXxXzXzXxXxXxXlXxXxXxXxXgXxXxXzXxXxXxXxXxXfXhXuXyX..t hXhXxXkXxXlXxXlXlXxXlXxXxXzXxXxXxXxXxXhXxX",
"xXxXzXzXxXxXxXlXxXxXxXxXxXkXkXhXkXxXxXxXfXhXeXiX) ..4 hXaXdXkXlXhXlXxXxXxXlXxXxXxXzXxXxXxXxXxXxX",
"xXxXzXzXxXxXxXxXzXxXkXjXkXt hXhXkXkXaXkXfXuXK W ( ' , uXaXkXkXuX4 t 3 2 xXxXxXxXxXxXzXxXxXxXxXxX",
"xXxXzXzXxXxXxXxXxXxXjXkXdXP P uXyXyXuXyXI A q.u.( E f g g n < g J F e O hXlXlXxXzXlXxXxXzXxXxXxX",
"xXxXxXxXxXxXxXxXxXzXkXdXhX` ) G : n L W ( s.u.7.v k l M ) ) ( K W K + fXhXlXlXxXzXxXjXxXzXxXxXxX",
"xXxXzXxXxXxXxXxXzXxXkXpX0XL ( v.~ h E t.s.f.w.v 2.4.w.s.M.q.^ ! R ; eXiXuXuXcXlXtXgXxXkXxXzXxXxX",
"xXxXxXxXxXxXxXxXxXkXkXaX0Xj b.!.q.z 0.d.s.f.v 1.9.a.a.y.0.Q v c D k j : e e e 2 % hXxXxXxXxXzXxX",
"xXxXxXxXxXxXxXxXxXxXsXyXK ( ~.E.r.z f.].2.1.3.9.m.n.3.2.2.b 9.e.w.0.( *.K Y t 7 uXxXxXgXxXzXxXxX",
"xXxXxXxXlXxXxXxXcXxXaXqXM s.XXM.b 9.!.d.2.2.9.y.6.e.9.9.n.n.M.n.6.0.( K K G & uXxXhXxXxXzXxXlXxX",
"xXxXxXxXxXxXxXxXxXxXyXG p.~.!.7.C d.c.r.C 5.r.w.9.e.n.d.n.n.n.9.4.1.x T f f & fXhXhXlXxXxXxXxXxX",
"xXxXxXxXxXxXxXxXxXkXsXF R !.c.! ! c.5.v z t.7.5.6.y.m.m.n.w.e.e.6.0.R h S A f 7 uXhXxXxXzXxXxXxX",
"xXxXxXxXxXxXxXxXxXkXaXF t.s.0.z d ^ l l N V Z Z 7.y.7.7.9.6.6.6.7.0.8.Q E M K J 5 2 lXlXxXxXxXxX",
"xXxXxXxXxXxXxXxXxXkXsXG ( u.c B l V d p ; j V ^ ^ 8.C v 2.v 2.1.v v z Q l T W G F U w   lXlXxXxX",
"xXxXxXxXxXxXxXzXxXkXaX= ( ^ R l p a M 3X5X- g m N h v 4.4.4.5.7.w.q.C z Q E H K J + . xXxXlXxXxX",
"xXxXxXxXxXxXxXxXxXxXkXyX- ~ E p M 3X%X3X5Xf 5X4Xp k k v ! 4.0.0.7.q.! ! c h a - + fXlXlXlXxXzXxX",
"xXxXxXzXzXxXxXxXxXlXkXaX5 n n s m $X*X9X5X5X4X2Xa W ( q./ / D D 0.q.! ! Q B h g g F uXfXxXlXxXxX",
"xXxXzXzXxXxXxXxXxXlXhXkXpXg.n 5X$Xs 9X*X#X5X4Xa ) / ^ ! / Q S S Q D ! Q z R T A K F 7 e gXxXxXxX",
"xXxXzXxXzXxXxXxXlXxXkXsXsXg.=X&X*X*X< *X9X5X&XH ; ~ E B R S S j s h z Z c x W K K F U F @ lXxXxX",
"lXxXxXzXxXxXxXxXxXxXkXkXpXN.-X#X@X^.s [ [ i.^.@Xa W p s R L W h ; ; B z c j T L J e 3 X xXxXxXxX",
"xXzXxXxXxXxXxXxXxXxXxXhXpX>.).@X+XV.Q.#X@X@XC.oXm p m m j ; - * m M E B c c a 6 4 3 O lXxXlXzXxX",
"xXxXxXxXxXxXzXxXxXxXgXkXsXqXj.&X Xt.i.] [ [ ^.oXoX@Xd m d h.(.v.$.H E R S j f 6 4 . lXlXxXxXxXxX",
"xXxXkXxXxXkXxXxXxXxXhXxXsXqXj._.+X^ * & t.[ _ OX@XoXs m d (.2X{.] H T S S A g 4 O hXxXlXlXxXxXxX",
"xXxXxXkXxXxXxXxXxXxXxXxXsXpXj.$X'.^.$.& E.).l.oXoXoXd m g E.%X%X* f K W A J 7 + lXhXxXxXlXlXxXxX",
"xXxXkXkXxXxXxXxXxXxXxXxXsXpXj.@X X].* F pXB.k.oX@XoXp s &XE.%Xv.- s a g G J F 3 kXxXxXxXxXxXxXxX",
"xXxXxXkXkXxXxXxXxXxXxXgXsXsXk.*X@X(.& *.pX).l._.oX@Xd |. XW.h.* g : , f g e 3 3 t o xXxXxXxXxXxX",
"xXxXxXxXxXxXxXxXxXxXxXkXsX>.*X*X$X@XP.P.6X=X_.oXoX+X'.@X&X- * }.: L g 4 5 3 1 .   xXxXxXxXxXxXxX",
"xXxXxXxXxXxXxXxXxXxXxXkXkXN.-X*X3X3X2X6X=X=X+XOX'.oX+X$XE.Q.(.; g & 6 1 O O X xXgXxXxXxXxXxXxXxX",
"xXxXxXxXxXxXxXxXxXxXxXxXtXN.P.#X*X3X3X%X X@X@X XOXOX'.OXE.(.f , , F 3 O lXlXhXxXxXzXxXxXxXxXxXxX",
"xXxXxXzXxXxXxXxXxXxXxXxXjXpX. [.{.#X$X X'.OX X+X'.'.OXV.(.p g 6 = 3 . jXgXlXxXxXxXxXkXxXlXxXxXxX",
"xXxXxXxXxXxXxXxXxXxXxXkXsXkXaX+ g./. X X`.`.'.OX`.].Z.V.s , f 4 @ O xXkXxXxXzXxXxXjXxXxXxXxXxXxX",
"xXxXzXxXxXxXxXxXxXxXzXxXkXsXkXaX+ & k.l.^.^.W.^.^.C.V.B.g.& + O hXkXkXxXxXxXxXxXxXjXxXxXxXxXxXxX",
"xXxXxXxXxXxXxXxXxXxXjXjXjXkXjXkXkXxXO & O O # . o . . . X U.y o.zXzXxXzXxXkXxXxXxXxXxXxXxXxXxXxX",
"xXxXxXxXxXxXxXxXxXjXxXkXjXjXxXxXhXxXdX-.o.T.S.F.Y.;XT.<XT.R.1XF.X.zXxXxXkXxXxXzXzXxXxXxXxXxXxXxX",
"xXxXxXxXxXxXxXxXxXxXkXkXxXkXkXxXxXxX| U H.A.G.;X<X<X;XG.rX;X1XH.K.. xXxXxXxXzXxXxXxXxXxXxXxXxXxX",
"xXxXxXxXxXxXxXxXxXxXxXxXxXkXhXhXaXaX@.H.R.U.<X;X<X;Xo X.rX{.J.X O %.hXhXxXxXzXxXxXxXxXxXxXxXxXxX",
"xXxXxXxXxXxXxXxXxXxXxXxXkXkXkXuXiX&.y T.:X>X<X>XT.Y.J.$ @ + & [..X#.hXxXxXgXxXxXxXxXxXxXxXxXxXxX",
"xXxXxXxXxXxXxXxXxXxXxXzXxXaXaXpX*.z.U K.:X>X>X:X;X<XU.K.%.&.L..XQ.: 3 dXcXxXzXzXxXxXxXxXxXxXxXxX",
"xXxXxXxXxXkXxXxXlXxXzXxXkXkXaX#.g.}.g...wX:X,X:X:X:XI.I.J.%.z.F 1 O.8 zXxXzXxXxXxXxXxXxXxXxXxXxX",
"xXxXxXxXxXxXxXxXxXxXxXjXxXsXsX%.;.Q.z...wXwXvX,XY.U.I.U.U.3 w 8X8XR.-.xXxXxXxXxXxXxXxXxXxXxXxXxX",
"xXxXxXxXkXxXxXxXxXxXzXzXxXkXkXsX@ *.%.y w ..} r  .{ q r % $ ,.R.T.R.=.zXxXxXxXxXxXxXxXxXxXxXxXxX",
"xXxXxXxXxXxXxXxXxXzXzXzXzXjXkXsXsXO $ D.D.:.+. .<.X.| } i 0 o.0 X.i   xXxXjXxXxXxXxXxXxXxXxXxXxX",
"xXxXxXxXxXxXxXxXxXxXzXzXzXkXkXkXdXhXiXr :.S.<. .{ { 9 } w 0 % 0 i o o gXkXxXxXzXxXxXxXxXxXxXxXxX",
"xXxXkXxXxXxXxXxXxXzXzXzXzXzXxXkXkXhXfXX r 9 r { r q $ # $ X 0 o o %   xXkXjXxXzXxXxXxXxXxXxXxXxX",
"xXxXxXxXxXxXxXxXxXxXxXxXxXxXxXxXxXxXhX%.;.wX@ O o O z.>.%.P 8 i u % xXkXxXxXxXxXxXxXxXxXxXxXxXxX",
"xXxXxXxXxXxXxXxXxXxXxXzXxXxXzXxXxXxXO #.x.6X{./.@ ' z.z.J @ @     zXxXzXxXlXxXxXxXxXxXxXxXxXxXxX",
"xXxXxXxXxXxXxXlXxXxXxXlXxXxXzXlXxXlX@ ` *.$.` < < ' ] I F + pXxXkXjXzXxXlXxXxXxXxXxXxXzXxXxXxXxX",
"xXxXxXzXxXxXxXxXxXxXxXxXxXxXlXxXxXxXpXO > P I > > I J n + aXkXkXjXjXzXxXzXxXxXzXxXxXxXxXxXxXxXxX"
};
