/* XPM */
static char *player_11671053767[] = {
/* columns rows colors chars-per-pixel */
"48 48 234 2 ",
"   c #010001",
".  c #0C0101",
"X  c #03010B",
"o  c #0A020A",
"O  c #0C0A0C",
"+  c #130202",
"@  c #1C0101",
"#  c #190A08",
"$  c #060412",
"%  c #140D14",
"&  c #141216",
"*  c #16141A",
"=  c #1C1517",
"-  c #1B110F",
";  c #2B0403",
":  c #240A0A",
">  c #3C0D0C",
",  c #370808",
"<  c #25130F",
"1  c #2E100F",
"2  c #35100F",
"3  c #3C110D",
"4  c #2A0E11",
"5  c #2B1313",
"6  c #2C1A17",
"7  c #261918",
"8  c #341515",
"9  c #3C1414",
"0  c #341C1B",
"q  c #3B1B1A",
"w  c #381817",
"e  c #3B221E",
"r  c #362118",
"t  c #2F201D",
"y  c #181624",
"u  c #1D1C25",
"i  c #261B25",
"p  c #2B1F28",
"a  c #252325",
"s  c #24232C",
"d  c #2C2529",
"f  c #2B292B",
"g  c #392826",
"h  c #2C2A33",
"j  c #322B34",
"k  c #3D2F31",
"l  c #312B39",
"z  c #393438",
"x  c #440D0B",
"c  c #480B0A",
"v  c #560E0B",
"b  c #4A130E",
"n  c #45170C",
"m  c #431413",
"M  c #4B1412",
"N  c #451815",
"B  c #441A1A",
"V  c #4B1B1A",
"C  c #4B1B16",
"Z  c #531413",
"A  c #591412",
"S  c #531C1C",
"D  c #5D1D1B",
"F  c #551915",
"G  c #74140B",
"H  c #631612",
"J  c #641A17",
"K  c #6C1A16",
"L  c #641D1C",
"P  c #6B1D1A",
"I  c #6B1715",
"U  c #731B15",
"Y  c #7A1C15",
"T  c #731D1A",
"R  c #7B1C1A",
"E  c #781711",
"W  c #6A1005",
"Q  c #45241F",
"!  c #592419",
"~  c #4A210D",
"^  c #65221D",
"/  c #6D221D",
"(  c #74211D",
")  c #7B221D",
"_  c #71281F",
"`  c #4D1F22",
"'  c #7B1F20",
"]  c #432322",
"[  c #412D23",
"{  c #492825",
"}  c #522322",
"|  c #5D2524",
" . c #5B2A26",
".. c #552B29",
"X. c #493229",
"o. c #55372D",
"O. c #453B3D",
"+. c #4E3E39",
"@. c #453533",
"#. c #573633",
"$. c #642422",
"%. c #6C2423",
"&. c #642A24",
"*. c #632B2A",
"=. c #6A2A27",
"-. c #732422",
";. c #7C2523",
":. c #7E2B23",
">. c #782B2A",
",. c #79332C",
"<. c #6D3530",
"1. c #653737",
"2. c #7B3130",
"3. c #763A38",
"4. c #574239",
"5. c #46413E",
"6. c #694C3B",
"7. c #66412E",
"8. c #383B49",
"9. c #4A3E42",
"0. c #463B47",
"q. c #463F51",
"w. c #3D4255",
"e. c #4A454C",
"r. c #574849",
"t. c #434253",
"y. c #4C4654",
"u. c #4A4559",
"i. c #4B4954",
"p. c #554A56",
"a. c #585859",
"s. c #785947",
"d. c #655957",
"f. c #6B4E47",
"g. c #7A6259",
"h. c #5C596D",
"j. c #635564",
"k. c #696769",
"l. c #756B64",
"z. c #6B6575",
"x. c #716671",
"c. c #777578",
"v. c #7A7067",
"b. c #831B17",
"n. c #83231B",
"m. c #8A241E",
"M. c #88281E",
"N. c #90271F",
"B. c #822422",
"V. c #832B24",
"C. c #8B2C25",
"Z. c #842D2B",
"A. c #8A2D2B",
"S. c #892524",
"D. c #922C25",
"F. c #942B29",
"G. c #85332C",
"H. c #8C332C",
"J. c #92332B",
"K. c #973228",
"L. c #8C3432",
"P. c #8B3935",
"I. c #853834",
"U. c #933532",
"Y. c #9B3634",
"T. c #943A33",
"R. c #933B3A",
"E. c #9B3A36",
"W. c #974139",
"Q. c #82413B",
"!. c #875D47",
"~. c #904840",
"^. c #A9544D",
"/. c #BC5D55",
"(. c #B65952",
"). c #AA5049",
"_. c #876859",
"`. c #976D5A",
"'. c #9C745C",
"]. c #92644D",
"[. c #B06F5C",
"{. c #837772",
"}. c #BA6560",
"|. c #C65B57",
" X c #C6655C",
".X c #CA726A",
"XX c #C26A60",
"oX c #AC8470",
"OX c #7B7C81",
"+X c #9A8A83",
"@X c #898B98",
"#X c #97959B",
"$X c #8E8B8C",
"%X c #A09291",
"&X c #8F94A3",
"*X c #9999A5",
"=X c #A7A6AA",
"-X c #B1AFB6",
";X c #B4B3BC",
":X c #BAB6BD",
">X c #B8B7B9",
",X c #A8A9B7",
"<X c #C89D8C",
"1X c #C6A599",
"2X c #B3B5C3",
"3X c #BDBBC4",
"4X c #BABDC9",
"5X c #B6B7C4",
"6X c #BEC1CD",
"7X c #C5C4C8",
"8X c #C5C6D2",
"9X c #D5D3D8",
"0X c #FCDEDC",
"qX c #FFE1DD",
"wX c #DBDAE3",
"eX c #E1DEE5",
"rX c #EEEBEC",
"tX c #E5E3EA",
"yX c #FEEBE6",
"uX c #F4EDEC",
"iX c #FFECEA",
"pX c #F8E9E5",
"aX c #FEF2ED",
"sX c #FFF6E8",
"dX c #EAEAF4",
"fX c #FDEFF1",
"gX c #F0EFF5",
"hX c #F5F3F5",
"jX c #FEF5F4",
"kX c #F6F9F6",
"lX c #FDF9F6",
"zX c #FCF6FA",
"xX c #FEFDFD",
"cX c #F5F3F9",
/* pixels */
"xXxXxXxXxXxXxXxXlXxXxXxXkXxXxXxXzXzXxXxXxXzXzXjXlXsXlXjXlXxXaXzXjXzXxXxXkXxXxXxXxXxXxXzXxXxXxXxX",
"xXxXxXxXxXxXxXxXxXxXxXxXxXkXxXxXzXzXzXhXxXxXxXjX7 lXlXlXxXjXlXxXzX7 xXxXxXxXxXxXxXxXxXxXxXxXxXxX",
"xXxXxXxXxXxXxXxXxXxXxXxXxXkXzXO.jXjXzXxXaXlXpX6 @.r sXjXlXaXlXjX0 t jXxXxXxXxXxXxXxXxXxXxXxXxXxX",
"xXxXxXxXxXxXxXxXxXxXxXxXxXkXzX[ e #.iX0XiXaXiX9 o...w yXsXaXsXw Q 8 jXaXxXkXxXxXxXxXxXxXxXxXxXxX",
"xXxXxXxXxXxXxXxXxXxXxXxXlXlXiXo. .*. .~ C b , %.3.7.&.n n n n  .| V iXjXlXlXxXlXxXzXxXxXxXxXxXxX",
"xXxXxXxXxXxXxXxXxXxXxXxXjXyXyX! $.%.^ Q.,./ H I.(.W.3./ A ^ ,.,.=.Z qXe 6 = O xXxXxXkXxXxXkXxXxX",
"xXxXxXxXxXxXxXxXxXxXxX7 +.o.~ =._ / W.^.^.U.S./././.).T.:.P.}..XP.%.! Q Q + zXjXxXkXxXkXxXxXxXxX",
"xXxXxXxXxXxXxXxXxXxXxXjX1 ..<.3.:.M.W.(.).K.F.|. X X X).T.W.^.P.;.Z.,.3.Q @ iXzXxXxXkXxXxXxXxXxX",
"xXxXxXxXxXxXkXxXxXxXzXaXpXx ^ G. XD.n.M.F.S.Y.|.K.K.K.|.J.W.:.) S.Z.Z.Z , m q 7 o zXxXxXxXxXxXxX",
"xXxXlXxXxXxXxXxXxXxXjXiX}  .Q./..XG n.) D.S.b.F.D.K.K.D.W ) G.) ' B.' -.L $.{ @ jXzXxXzXxXxXkXxX",
"xXxXxXxXlXkXxXzXxX. g ; ..~.^.XX XD.C.n.K.S.b.b.N.N.N.N.Y C.W.J.Z.A.Z.L.2.3.` @ zXxXxXxXzXzXxXxX",
"xXxXkXxXxXxXlXxXzXzX+ } 3.I.W./.J.D.E.B.E.F.F.S.D.N.m.b.C.M.W.C.S.B.L.L.2.=.; iXjXxXxXcXzXxXlXxX",
"lXxXxXlXxXxXxXxXzXaXiX; v P Z.A.M.J.W.D.C.S.F.F.M.M.n.M.K.n.M.K.R ' ' -.%.D ` : - d l xXzXxXxXxX",
"xXxXxXxXxXzXkXxXjXjX0XS A K V.U.W.J.C.G.;.R Y.Y.C.D.M.H.W.E Y E.A.B.Z.' %.*.} ] 6   xXxXxXxXzXxX",
"kXkXxXxXxXxXxXa - g N | / Z.U.Z.n.M.) :.T ( ;.H.J.T.T.H.H.T U Z.A.Z.' I.A S 9 w + zXxXzXxXxXxXxX",
"kXkXxXxXxXxXxXzX# q 1.3.I.R.A.B.Y ) ) / ( T U ) H.H.H.) :.T K U ' ' I ( D F m @ zXzXxXxXxXxXlXxX",
"xXxXxXxXxXxXxXxXcX: ` 3.I.R.L.A.n.) ) D.L.A.H.n.E R E.G ) H.( M.R.V.T -.L >.| 9 p = zXzXxXxXxXxX",
"xXxXxXxXxXxXxXxXfXfX> ` %.-.V.U.V.H.C.T.U.S.U.A.b.E E E V.H.G.Z.Z.>.R.I.>.| ` q 4 + xXxXzXxXxXxX",
"xXxXxXxXxXxXxXxXfXfXq *.%.2.' R H.H.T.P.) R B.A.U.U.n.H.V.U ( ( -.P.Z.-.L $.*.q + zXzXxXxXxXlXxX",
"xXxXxXxXxXxXxXxXzXp ` ` S L -.L.G.) ( U U ;.A.T.L.A.Z.R.C.U ( K I -.-./ $.M 9 @ jXfXxXxXxXxXxXxX",
"xXxXxXxXxXxXxXzXrX+ @ 2 b Z v v H T ;.( I I K ) Z.P.L.G.:.K K / P J L A Z M 9 q iXzXxXxXxXxXxXxX",
"xXxXxXxXxXxXxXxXxXzXjXq m ! $.L >.K I L -.2.-.-./ K P._ / / v A ^ v Z ! | ..8 5 + xXxXxXxXxXxXxX",
"xXxXxXxXxXxXxXxXkXxX. < ] Q | $.L >.%.J L %.L J _ / / H _ %.^ A Z c b C V B q + . kXxXxXxXxXxXxX",
"xXxXxXxXxXxXxXxXxXxX. + : ; > M L $.D F L %.L L / ^ ^ ^ %.^ ^ Z D *.V V 9 1 # + zXzXxXxXxXxXxXxX",
"xXxXxXxXxXxXxXxXkXxXxXxX+ 8 w C | $.c Z | =.M L =.D D $.M F <.| b ..N B w : # jXxXxXxXxXxXxXxXxX",
"xXxXxXxXxXxXxXxXxXkXxXkXlX. w w ` ` m m } | x M ! &.<.$.M F | S m 3 w q 8 . lXzXzXxXxXxXxXxXxXxX",
"xXxXxXxXxXxXxXxXxXxXxXlXxX+ 5 q 9 9 m m V S M M M $. .x > > > N ] q q g < # zXlXxXxXxXxXxXxXxXxX",
"xXxXxXxXxXxXxXxXxXxXxXxXxXpX# 7 q 9 q m 1 V m m , M n m V m 9 9 w 1 e # . jXzXxXlXxXxXxXxXxXxXxX",
"xXxXxXxXxXxXxXxXxXxXxXxXxXzXzX+ 6 e q e w 9 , m x m m N m 2 m q w 0 < . xXxXzXxXxXlXxXlXxXxXxXxX",
"xXxXxXxXxXxXxXxXxXxXzXxXxXxXxXjXo 4 : 8 q ] 2 q 9 m m m , 1 B w 4 6 . zXkXxXxXzXxXxXxXxXxXxXxXxX",
"xXxXxXxXxXxXxXxXxXxXzXxXxXxXzXxXjX+ - : 4 ] 2 9 9 m > 2 B ] q : # + jXxXzXxXhXxXxXlXxXlXlXxXxXxX",
"xXxXlXxXxXxXxXzXxXzXxXxXxXzXxXz 9.j k # + 4 : 4 8 q 8 : 4 0 @ @ ..4.g xXxXkXxXlXxXxXxXxXxXxXxXxX",
"xXkXxXxXxXxXxXxXxXxXxXxXxXxX8.#X2X4X@X8.$ i o   X O % o o 0 + ..oX_.g k kXxXkXxXzXxXxXlXxXxXxXxX",
"xXxXxXxXxXxXxXxXxXlXxXlXzXi.#X5XwX4X6X2X4X$ *X&X*X@X@X&X#Xo @.g.`._.q %X5.xXrXxXxXhXxXxXxXxXxXxX",
"xXxXxXxXxXxXxXxXxXxXlXkX% OX5XdXdX2X&X2X4X4X,X8X=X8X4X4X:X& . r._._.@ +X. pXxXlXxXxXxXkXxXlXxXxX",
"xXxXxXxXxXxXxXxXlXlXkXa.-Xo X 2X,X*X8.&X4X2XtXwXtXeXwXwXu j * + + @ + ; v.g.lXxXrXxXxXxXxXlXxXxX",
"xXxXxXxXxXxXxXxXxXxXlXf a s l $ $ $ 8.&X5X4X5XeXtX9XwXs a.& :X7 z < 1X1X1Xf.uXkXxXzXxXxXxXxXxXxX",
"xXxXxXxXxXxXxXxXlXlXa.=X7XrXz.f $ zX8.&X@X4X-X5X9X:X& k.& 6X*X% 0.0 <X<X`.s.sXsXzXxXzXxXkXxXxXxX",
"xXxXxXxXxXxXxXxXxXxXk.#X>X=Xi.i.$ zXw.&X5X8X2X5XwX* l i 6X=X3Xf k.< '.`.'.s.sXl.OXk.cXxXxXxXlXxX",
"xXxXxXxXxXxXxXxXlXxX- i.k.i.* h y u y y s y s y p i * s & 7 = 7 t [ ~ ! n ~ e v.k.x.c.gXxXxXxXxX",
"xXxXxXxXxXxXxXxXxXxXxXf h f u & 7 h y.y.p.u.u.u.q.8.y.p.e.5.5.k g 6.'.oX].7.r v.$X>X5XOXkXkXxXxX",
"xXxXxXxXxXxXxXxXxXxXxXrXO     kXf 8.p.x.z.z.h.OXh.h.z.x.O.@.X.X.7.7.oX!.!.s.X.+Xc.$X6Xk.xXxXxXxX",
"xXxXxXxXxXxXxXxXxXxXxXxXkXxXxXxXa f 9.r.j.j.q.u.u.u.y.r.5.X.d._.6.s.`.'.6.6.e l.l.k.$XOXxXxXxXxX",
"xXxXxXxXxXxXxXxXxXxXxXxXxXkXxXxX= j 9.e.9.0.q.u.t.q.0.0.g [ @.e X.7.]._.g.4.g v.%X>Xc.O dXzXxXxX",
"xXxXxXxXxXxXxXxXxXxXxXzXxXxXxXxXa d g j j h l h h h d @.[ t 0 g [ 4.4.4.4.f.7 . a.;Xc.hXxXxXxXxX",
"xXxXxXxXxXxXxXxXxXxXxXxXxXxXxXkXo   .   o o o o X o # + # + # . O O . . # . . xXO #Xk.xXkXxXlXxX",
"xXxXxXxXxXxXxXxXxXxXxXhXxXxXxXxXxXxXxXxX  f z o uX- +.r.f.5.. zXxXkXkXxXpXkXxXuXo     xXlXxXxXxX",
"xXxXxXxXxXxXxXxXxXxXxXhXxXxXxXxXxXxXxXxXxXxX.     . . + . . .                   xXxXxXxXxXxXxXxX"
};
