/* XPM */
static char *player_121671053769[] = {
/* columns rows colors chars-per-pixel */
"48 48 239 2 ",
"   c #030203",
".  c #0C0101",
"X  c #04010A",
"o  c #0B0A0B",
"O  c #0A0708",
"+  c #130201",
"@  c #1B0201",
"#  c #160706",
"$  c #090317",
"%  c #150517",
"&  c #1D1717",
"*  c #240201",
"=  c #2B0101",
"-  c #290A09",
";  c #3A0C0A",
":  c #370902",
">  c #3B130A",
",  c #230114",
"<  c #2B1B18",
"1  c #381917",
"2  c #320B1E",
"3  c #29221C",
"4  c #38241C",
"5  c #170828",
"6  c #1C1627",
"7  c #1E1A38",
"8  c #130B32",
"9  c #261E25",
"0  c #251838",
"q  c #2A1425",
"w  c #1D212D",
"e  c #272427",
"r  c #382826",
"t  c #2B2738",
"y  c #362931",
"u  c #383437",
"i  c #480B04",
"p  c #540D04",
"a  c #510B0B",
"s  c #461502",
"d  c #4C120B",
"f  c #471309",
"g  c #561609",
"h  c #481814",
"j  c #531B13",
"k  c #5B1D12",
"l  c #591A18",
"z  c #4D0F11",
"x  c #651C17",
"c  c #6F1911",
"v  c #4C241D",
"b  c #45241E",
"n  c #5C241C",
"m  c #56221C",
"M  c #66231A",
"N  c #73231D",
"B  c #792619",
"V  c #77210F",
"C  c #452B29",
"Z  c #572926",
"A  c #46332C",
"S  c #56362D",
"D  c #492C38",
"F  c #4A3735",
"G  c #583738",
"H  c #642523",
"J  c #682925",
"K  c #762B25",
"L  c #61332C",
"P  c #75352B",
"I  c #653938",
"U  c #7C3933",
"Y  c #743936",
"T  c #4E433B",
"R  c #7C4829",
"E  c #7A4638",
"W  c #704D3F",
"Q  c #201F41",
"!  c #322946",
"~  c #373546",
"^  c #352A53",
"/  c #382E69",
"(  c #413C53",
")  c #453C41",
"_  c #453A72",
"`  c #3C404B",
"'  c #494648",
"]  c #4A4759",
"[  c #564E50",
"{  c #684946",
"}  c #784943",
"|  c #6B5747",
" . c #7A594A",
".. c #6D5554",
"X. c #775A55",
"o. c #7D6357",
"O. c #504973",
"+. c #6F5C6C",
"@. c #5D636B",
"#. c #686569",
"$. c #776C74",
"%. c #7A7679",
"&. c #706A72",
"*. c #89261B",
"=. c #802A24",
"-. c #862E27",
";. c #9A2E27",
":. c #82312C",
">. c #893327",
",. c #96362B",
"<. c #863A35",
"1. c #953A33",
"2. c #A13C34",
"3. c #841712",
"4. c #9A4137",
"5. c #86523E",
"6. c #904C37",
"7. c #A44138",
"8. c #864746",
"9. c #965F47",
"0. c #8B574E",
"q. c #B45549",
"w. c #A85C54",
"e. c #B95B52",
"r. c #AB5247",
"t. c #876657",
"y. c #926452",
"u. c #996856",
"i. c #91684F",
"p. c #B46756",
"a. c #896A61",
"s. c #86726C",
"d. c #977568",
"f. c #887A77",
"g. c #9A7D71",
"h. c #A77967",
"j. c #BF766D",
"k. c #C35E54",
"l. c #CA6B5C",
"z. c #C6675C",
"x. c #C8766A",
"c. c #C66A63",
"v. c #97837C",
"b. c #A6836F",
"n. c #C69176",
"m. c #E98879",
"M. c #F38F7F",
"N. c #65579B",
"B. c #746C8B",
"V. c #4F458E",
"C. c #7D8089",
"Z. c #8C8889",
"A. c #978D8C",
"S. c #8D8B98",
"D. c #928896",
"F. c #9B999E",
"G. c #B9968A",
"H. c #BB9794",
"J. c #AD8E8D",
"K. c #8E88A2",
"L. c #8E95A1",
"P. c #9698A5",
"I. c #B89CA7",
"U. c #AB9BA2",
"Y. c #A9A8AA",
"T. c #A6A7B5",
"R. c #B3B2B4",
"E. c #C99B89",
"W. c #D69D89",
"Q. c #C99D94",
"!. c #FA988A",
"~. c #F78F85",
"^. c #D7A38B",
"/. c #C7A599",
"(. c #DAA995",
"). c #DDB091",
"_. c #E8B699",
"`. c #F8B99B",
"'. c #E6AE95",
"]. c #DAB4A7",
"[. c #C3BAB8",
"{. c #CEB0AA",
"}. c #E7BBA9",
"|. c #F8BAA4",
" X c #E9BEB5",
".X c #F8BCB9",
"XX c #B6C1BB",
"oX c #EEC2AA",
"OX c #F3C2A4",
"+X c #F6C4AB",
"@X c #FAC4AB",
"#X c #FDC9A9",
"$X c #EBC7BB",
"%X c #F4CBBC",
"&X c #FCCDBC",
"*X c #F8C9B3",
"=X c #FED4BD",
"-X c #FFDABE",
";X c #FBD2B7",
":X c #FED0AF",
">X c #B2B3C4",
",X c #B8BAC7",
"<X c #B0B1C9",
"1X c #BDC1D0",
"2X c #C4C9D7",
"3X c #D1CDD1",
"4X c #FBCDC4",
"5X c #F9CDC5",
"6X c #FCD4C3",
"7X c #FED9C4",
"8X c #FDD6CC",
"9X c #FEDCCB",
"0X c #F4D2C5",
"qX c #FFDBD3",
"wX c #FCDAD6",
"eX c #E6CED1",
"rX c #FFE3DC",
"tX c #FFEAD9",
"yX c #FFE1CE",
"uX c #DDDBE5",
"iX c #DBDBF9",
"pX c #CDCEE2",
"aX c #E0DFFE",
"sX c #EDEBED",
"dX c #FEEAE4",
"fX c #FEEDEB",
"gX c #F7E9E7",
"hX c #FEF3ED",
"jX c #FCF3E9",
"kX c #E8EAFC",
"lX c #FDEDF2",
"zX c #F4F4F4",
"xX c #FEF4F3",
"cX c #FEFBF5",
"vX c #F5F6F9",
"bX c #FDF6F9",
"nX c #F6FBFB",
"mX c #FEFDFD",
"MX c #F6F8F5",
/* pixels */
"mXmXmXmXmXcXmXmXmXmXnXnXnXnXmXmXmXcXmXmXzXmXmXmXbXbXbXmXmXbXmXnXbXmXmXbXmXmXbXbXmXbXmXmXmXmXmXmX",
"mXmXmXmXmXcXmXmXmXmXnXvXmXnXmXmXxXy bXfXmXmXxXmXgXbX< xXbXmXmXbXmXbXmXvXmXmXmXmXmXmXmXmXmXmXmXmX",
"mXmXbXmXmXmXmXmXmXmXmXnXnXmXmXxXmXF C xXhXcXcXjXlX2 4 r cXcXmXbXlXlXbXr mXmXbXmXmXmXmXmXmXmXmXmX",
"mXbXmXmXmXmXmXmXmXmXmXzXmXmXxXxXfXC { Z tXjXjXjXh Z Z ; dXhXhXfXgXC 1 r lXcXmXmXnXmXmXmXmXmXmXmX",
"mXmXmXmXmXmXmXmXmXmXmXmXmXcXfXfXrXL } Y J z : b Z M E n v v : > Z Z v - hXcXmXmXmXmXmXmXmXmXmXmX",
"mXmXmXmXmXcXmXmXmXmXmXmX< C D v wXl <.:.<.J g s B U w.U g d n P K K l > fXjXgXmXmXbXmXmXbXmXmXmX",
"mXmXmXmXmXmXmXmXmXmXmXxXfXh I Y x N 1.;.e.1.c V 1.q.x.:.g B 6.e.r.=.k g > 4 3 o mXnXmXmXbXmXmXmX",
"mXmXmXmXmXmXmXmXmXmXmXxXfXh H U :.B *.;.k.q.,.*.r.l.m.4.*.,.q.z.2.V K P S b . mXmXmXmXmXmXbXmXmX",
"mXmXmXmXmXmXmXnXmXmXe 1 h ; l <.e.;.3.;.k.m.k.>.l.m.!.,.4.e.l.7.;.;.c.c.Z , hXmXmXmXmXmXbXmXMXmX",
"mXnXmXmXmXmXnXmXmXmXfX@ C H x N c.z.;.*.*.!.l.V M.!.m.,.7.l.l.7.;.r.c.K l ; tXhXmXmXbXbXmXmXmXmX",
"nXmXmXmXnXmXmXmXmXbXxX* Y H 8.-.*.!.e.7.*.7.l.4.k.~.~.>.z.n.7.>.-.e.:.N J Z 4 < <   mXmXbXmXmXmX",
"mXnXmXmXmXmXnXmXzXbXgXfX= U <.w.<.p.q.6.V 6.r.-.z.M.e.7.r.V M V :.7.=.:.<.Y v 1 + xXbXmXbXmXmXmX",
"mXmXbXbXmXmXmXnXy e C - z J x 1.x.K w.<.k J 5.g 2.e.1.*.U k g M x N :.:.<.Z f @ fXmXxXbXmXmXnXxX",
"mXmXmXmXmXmXnXnXmX+ D I 8.x x K K 6.k : : f l p :.1.=.g M s j j z l K K N H f * fXfXxXmXMXmXmXmX",
"mXmXmXmXmXmXnXmXmXxX@ I Y Y a p p M f %XtX; l z J K M p j f 5XwXz l a x x H L Z 1 < r & mXmXmXmX",
"mXmXmXmXmXmXmXmXmXlXfX= Z 8.U p |.=X: yXwX8X5Xz H H z d 4X4X8X5Xz wX.Xa a H Y I S 4 . nXMXmXmXmX",
"mXmXmXmXmXmXnXmXbX< > 2 H H 6.p |.|.9X9XyX0XyXwX; Z h 1 8X9X7X8X-XoX.Xd M P } Z 1 + xXmXmXmXmXmX",
"mXnXmXmXmXnXmXmXlX+ G L 8.g l M p @X*X-X-XyX0X6XqXS wX8X> 6X7X=X-X#Xs m P Y ; ; * fXcXmXmXmXmXmX",
"mXmXmXmXnXmXnXnXmXbX* h } U K p g OX:X:X-X;X=X9X9X6X6X6X7Xs *X7XOX`.i p Y j j Z - xXmXcXmXmXmXmX",
"mXmXmXmXmXnXnXmXmXlXlX= : <.P i '.9.R R i.n.*X;X6X6X9X=X7Xs R R 6.p.^.i n j j > 1 # mXmXmXmXmXmX",
"mXmXmXmXmXnXnXmXmXcXdX .Q.i j g n.#X_.@X|.W.).OX;X;X-XOX).E.+X`.'.`.W.i s l u.{ @ . mXmXmXmXmXmX",
"mXmXmXmXmXmXnXnXxXxXlX{ tXG.s y.).6.E E y.E ^._.OX:XOXOXn.R i.5.y.8.W.h.i Q.8XX.hXjXcXmXnXnXmXmX",
"mXmXmXmXmXnXnXmXmXmXxX@ 0X7X: u.R W : = = } u.'.OXOX*X_.h.9.= = = 0.E u.d %XtX. cXmXmXmXmXmXmXmX",
"mXmXmXmXnXmXmXmXmXcXxX+ /.$X> t././.F 2 * * b._.:X_._.:Xy.= a.@ # /.E.h.;  X/.+ mXcXmXnXnXnXmXmX",
"mXmXmXmXmXmXmXmXmXmXmXhX@ W S t.H.rXD , D J./.;X_.oXoXoX/./.4 - q lXQ.d.m G @ cXmXmXmXnXmXmXmXmX",
"cXcXmXcXmXmXmXnXmXmXmXcXjX+ + b./.gX{ , X.gX].%XoX-X%X=X].dX{ @ ..lXH.d.* @ cXcXMXnXmXmXmXmXmXmX",
"mXmXcXmXmXmXmXmXmXmXmXcXhXcX. v.H.8XH.J.H.wX%X%X9X-X6XyX%XqXJ.H.{.wX{.a.+ xXxXMXmXmXmXmXmXmXmXmX",
"cXcXmXmXmXmXmXmXnXmXmXmXmXjXhX@ H./. X5X5X8X6X9X7X%X-X7X%XqXqX X X{.H.@ bXbXxXmXmXmXmXmXmXmXmXmX",
"cXmXmXcXmXmXmXmXmXmXnXmXmXcXxX+ g./.oX0X*X4X4X&X6X_.6X4X6X&X5X5X].Q.s.. mXMXcXmXmXmXmXmXmXmXmXmX",
"mXmXcXmXmXmXmXmXmXmXnXnXmXmXcXxX@ X./.}.*X X@X+XOX@X@X|.}.oX%X}.].d.+ bXmXcXmXmXmXmXbXmXmXmXmXmX",
"mXmXmXmXmXmXmXmXmXmXnXzXmXmXmXhXfX@ * y.(.*X:X_.`.`.|.|.|.*XE. .* @ xXmXcXcXnXmXvXbXmXmXmXmXmXmX",
"cXmXmXmXmXmXmXmXmXmXnXmXmXMXcX' u r C : = y.y.(.W.^.(.W.h.t.* - A u ) mXcXmXmXmXmXmXmXmXbXmXmXmX",
"cXcXcXcXmXmXmXmXmXmXmXhXmXcXF A.A.4 o.b.W @ @ # + + + + O o Z.S.P.R.D.' zXmXmXvXmXmXmXmXmXmXmXmX",
"cXcXcXjXmXmXmXmXmXmXjXcXgXT A.Z.[.A o.a.X.A +.I.] C.~ ,X@.C.pX<X>XkXsXZ.' mXmXnXmXzXmXmXmXmXmXmX",
"cXcXcXcXmXmXmXnXmXcXjXjX{ + F.[.uX. s.X...# D.B.K.! P.@.L.1XP.1XB.T.uX3Xo nXmXmXmXmXmXmXmXmXmXmX",
"cXcXcXcXmXmXmXmXmXcXdX| d.G.+ A.P.&.# @ . R.>XP.1X&.,XL.1X1X1XL.u X     [ mXmXmXmXmXmXmXmXmXmXmX",
"mXmXmXmXmXmXcXmXcXjXtX .E.].s.. ' ~ e y # sX1XXX<XL.<X1X>XpX1Xw w t u 3 w mXmXzXmXnXmXmXmXcXmXmX",
"mXmXmXmXmXcXmXmXcXjX . .(.G.o.+   X & ' 3 XXY.2X<X<X<X<X1X1Xw ` #.uXuX3XY.#.vXmXmXmXmXmXmXmXcXcX",
"mXmXmXmXmXmXmXmXcXjXW d.t.h.* hXxXmXe #.3 XXXXT.1XaX<X1XT.2Xw ] t uXY.Y.Y.#.mXsXMXmXmXmXmXmXmXmX",
"mXmXmXmXmXmXmXcXjX$.@ d.d.* * 4 4 r e ' O L.>XkXiXiXaXaX1XC.P.$ t 7 #.%.`   mXmXmXmXmXmXmXmXmXmX",
"mXmXmXcXcXmXmXMX$.[.[.+ @ @ T t.b.g.D 6 ~ 7 Q / Q 8 5 ] ~ $ ( ~ $ ! ~ u % mXmXmXmXmXmXmXmXmXmXmX",
"mXmXcXmXcXmXmXmXo.[.A.v.v.4  . .h.d.% 0 / O._ V.N.<XS.O.( O.( ! 7 ] 6   zXmXmXmXmXmXmXmXmXmXmXmX",
"mXcXcXcXmXcXmXmX%.Z.&.#.s.3 | t.W t.5 ^ / / V._ _ _ 0 % ~ t ( 5 7 ] 6 e mXmXmXmXcXmXmXmXmXmXmXmX",
"mXmXmXcXcXMXMXsXo %.XXA.&.r T o.0.I % ^ V.N.N./ ^ ! 6 5 X % $ $ $ 0 t 9 mXnXmXmXcXmXmXmXmXmXmXmX",
"mXmXcXmXmXmXmXnXsX$.2X#.O 3 T T | G y 0 0 Q 5 5 % % % s.I.U.&.&.e ) t o mXmXmXmXmXmXmXmXmXmXmXmX",
"mXmXmXmXmXcXnXmXmX#.Z.o MXO o O + + % # +.I.eX3XU.+.O # F [ # . X X O O mXmXmXmXmXmXmXmXmXmXmXmX",
"mXmXmXmXmXnXmXmXmX      cXmXjXcXmXMXbXxX+ D A A F + lX+ C 4 . cXmXmXcXcXmXmXbXmXmXmXmXmXmXmXmXmX",
"mXmXmXmXcXnXmXnXmXmXmXmXMXcXmXnXmXbXxXxX+ r X.| 4 # xXbXjXcXcXcXmXmXmXcXmXmXmXmXmXmXmXmXmXmXmXmX"
};
