/* XPM */
static char *player_101671053769[] = {
/* columns rows colors chars-per-pixel */
"48 48 239 2 ",
"   c #020101",
".  c #0D0000",
"X  c #0A0309",
"o  c #07050B",
"O  c #130100",
"+  c #1B0202",
"@  c #12030A",
"#  c #1B0A0B",
"$  c #0C0316",
"%  c #180516",
"&  c #1A161A",
"*  c #1B100C",
"=  c #230101",
"-  c #2C0200",
";  c #250A08",
":  c #380904",
">  c #3B1409",
",  c #270B13",
"<  c #271717",
"1  c #361717",
"2  c #2B0F11",
"3  c #38241C",
"4  c #2F211E",
"5  c #180A29",
"6  c #181627",
"7  c #140D31",
"8  c #251927",
"9  c #331B22",
"0  c #251B38",
"q  c #282425",
"w  c #392725",
"e  c #292538",
"r  c #33313C",
"t  c #383335",
"y  c #3A2937",
"u  c #4C0D01",
"i  c #460A04",
"p  c #530E05",
"a  c #4B1205",
"s  c #44130B",
"d  c #4B1409",
"f  c #421607",
"g  c #56160A",
"h  c #461715",
"j  c #581D16",
"k  c #631B14",
"l  c #6C1C13",
"z  c #661D1A",
"x  c #73170B",
"c  c #48231C",
"v  c #53221C",
"b  c #542118",
"n  c #65201B",
"m  c #69251B",
"M  c #742317",
"N  c #661F23",
"B  c #4B2C2B",
"V  c #452727",
"C  c #562825",
"Z  c #573329",
"A  c #413232",
"S  c #453B3D",
"D  c #593839",
"F  c #4F3031",
"G  c #6A2D2C",
"H  c #662A24",
"J  c #782A24",
"K  c #68332D",
"L  c #7B332C",
"P  c #76362B",
"I  c #693534",
"U  c #7C3532",
"Y  c #7C3A32",
"T  c #5A433A",
"R  c #7A4737",
"E  c #764327",
"W  c #261E44",
"Q  c #3B3848",
"!  c #2A2653",
"~  c #302B4E",
"^  c #3B3776",
"/  c #322D64",
"(  c #413F4D",
")  c #453F7B",
"_  c #5C4946",
"`  c #474454",
"'  c #4D4A4A",
"]  c #684A47",
"[  c #794F47",
"{  c #6C544B",
"}  c #7B5549",
"|  c #6B555A",
" . c #795A55",
".. c #6C615B",
"X. c #7D6256",
"o. c #49467A",
"O. c #55516E",
"+. c #6A5662",
"@. c #5D616A",
"#. c #696668",
"$. c #716B68",
"%. c #676977",
"&. c #787678",
"*. c #7C756F",
"=. c #86281B",
"-. c #882B22",
";. c #922D22",
":. c #8B3224",
">. c #84362A",
",. c #95352A",
"<. c #843C33",
"1. c #883934",
"2. c #933C31",
"3. c #A33D31",
"4. c #884337",
"5. c #9E463A",
"6. c #84513B",
"7. c #984C33",
"8. c #A94C39",
"9. c #854442",
"0. c #865747",
"q. c #9E5547",
"w. c #915149",
"e. c #AB564B",
"r. c #B45B4B",
"t. c #B0584D",
"y. c #886457",
"u. c #986956",
"i. c #9A6A50",
"p. c #A66B52",
"a. c #BC655B",
"s. c #B96356",
"d. c #A2735F",
"f. c #856964",
"g. c #916D67",
"h. c #8C7166",
"j. c #91736E",
"k. c #AC7566",
"l. c #C66659",
"z. c #C86D61",
"x. c #CE7266",
"c. c #C45C4F",
"v. c #8F867F",
"b. c #A38175",
"n. c #C9927A",
"m. c #D08077",
"M. c #EB887A",
"N. c #F28D7C",
"B. c #413F88",
"V. c #5B578F",
"C. c #757188",
"Z. c #8A8999",
"A. c #989598",
"S. c #938E91",
"D. c #B18B8D",
"F. c #A19998",
"G. c #BA9993",
"H. c #B6918D",
"J. c #BBA397",
"K. c #BFA08B",
"L. c #8D8BA3",
"P. c #9796AA",
"I. c #9393B1",
"U. c #AF9EB0",
"Y. c #A8A5A7",
"T. c #B6A7B5",
"R. c #B9B8B8",
"E. c #B2A8B4",
"W. c #C79B8B",
"Q. c #D19E89",
"!. c #C79B96",
"~. c #F99687",
"^. c #F59589",
"/. c #D7A489",
"(. c #C7A397",
"). c #DAA895",
"_. c #C9A58F",
"`. c #E7B89A",
"'. c #F7BA9B",
"]. c #E1A38A",
"[. c #D9B4A9",
"{. c #D6BAB9",
"}. c #C9ACAD",
"|. c #EABAA9",
" X c #F6BDA7",
".X c #E8BCB5",
"XX c #FCBCB3",
"oX c #ECC2A8",
"OX c #F3C3A4",
"+X c #F9C5AB",
"@X c #EAC3B8",
"#X c #FCCBB2",
"$X c #FCCFBC",
"%X c #F5C8B7",
"&X c #FDD4BC",
"*X c #FAD3BA",
"=X c #A59FC1",
"-X c #A7ABC5",
";X c #B5ADC6",
":X c #B5B4CA",
">X c #BAB8C7",
",X c #B6BAD2",
"<X c #AEB4CB",
"1X c #C1BDD2",
"2X c #C5B7CE",
"3X c #BEC2D1",
"4X c #C7C4D8",
"5X c #DDCFCF",
"6X c #F9CBC5",
"7X c #FCD4C3",
"8X c #FFDAC3",
"9X c #FDD4CC",
"0X c #FFDCCB",
"qX c #F4D2C8",
"wX c #FEDDD2",
"eX c #FDDAD7",
"rX c #FFE1D5",
"tX c #FFE2DC",
"yX c #FFE1C8",
"uX c #CED4E8",
"iX c #DBD7E5",
"pX c #D6DDF0",
"aX c #EDD8E4",
"sX c #E2DDF3",
"dX c #FFE9E5",
"fX c #FEEDEA",
"gX c #F6EAE7",
"hX c #FFF2EE",
"jX c #F7F4ED",
"kX c #F5EDF2",
"lX c #F6F4F4",
"zX c #FEF4F3",
"xX c #FDFAF6",
"cX c #F6F4FB",
"vX c #FDF6FB",
"bX c #F7FBFB",
"nX c #FEFDFD",
"mX c #F5FAF6",
"MX c #EBEDEF",
/* pixels */
"nXnXbXbXnXnXbXnXxXnXnXnXbXnXvXnXvXvXnXbXnXnXvXvXnXnXnXnXnXnXnXnXvXvXnXnXbXbXnXvXnXxXnXnXnXnXnXnX",
"nXbXnXbXnXnXnXnXnXnXnXbXnXnXvXvXvXvXnXnXvXvXnXzXq nXnXxXnXnXvXzXvX% nXxXbXbXbXnXnXnXnXnXnXnXnXnX",
"nXbXnXnXnXnXnXnXvXnXnXnXnXzXvXA zXhXnXxXzXfXzX1 w 1 xXxXvXzXzXzX, < zXnXnXnXnXnXnXxXnXxXnXnXnXnX",
"bXnXnXnXnXnXnXnXnXnXnXnXcXnXzXw F V dXfXfXfXdXV B B = hXhXdXhXV F 1 zXzXnXbXnXbXnXnXnXnXnXnXnXnX",
"bXnXnXnXnXnXnXnXnXvXnXnXxXfXhXD I G Z h s h j j P K b b : s s C C i fXkXzXnXnXnXxXxXnXnXnXnXnXnX",
"nXbXnXnXnXnXnXnXnXnXnXnXhXdXdXC L >.U U J p z 9.q.L b i g j J L z j tX9 < < @ nXxXbXnXbXnXnXnXnX",
"nXnXnXnXnXnXnXnXnXnXnX4 D B v J M -.t.e.1.-.-.,.x.s.7.M m 7.q.>.l k j C V O zXzXnXnXnXnXnXxXnXnX",
"nXnXnXvXnXnXnXnXnXnXnXxX2 v U J x ;.5.a.t.,.=.-.^.a.8.:.:.t.s.2.M 1.U I B + zXxXnXnXnXnXnXnXnXnX",
"nXvXnXnXxXnXbXnXnXnXnXhXdX: >.x.;.,.=.M ~.x.;.;.N.~.c.x 7.r.z.=.;.a.9.N , 1 9 < . nXnXbXnXnXnXnX",
"nXnXnXnXnXnXnXnXbXnXzXhX1 H z t.x.c.=.5.l.x.l.=.~.M.M.8.8.l.=.=.l.a.J N h h 2 O nXnXbXnXnXnXnXnX",
"nXnXnXzXnXnXnXnXnX& 9 1 K Y L 2.c.N.a.,.,.c.z.3.~.N.l.:.s.r.:.:.z.-.J 1.N ( i @ hXnXnXnXnXnXnXnX",
"nXvXcXnXnXnXnXnXnXxX+ C I q.m.e.;.x.l.1.l 2.a.;.e.~.z.=.s.4.x M 1.M J 1.G N = zXvXvXnXnXvXnXnXnX",
"cXnXnXbXnXnXxXnXxXdXfX- G >.a.s.a.-.k.J j M 1.x 5.r.>.M 4.m a m k 1.L z H v h 2 w # t bXnXnXnXnX",
"nXnXnXnXnXnXnXnXzXfXeXh p m l 4.4.4.g : j u k p L 4.P p g g i j g z N J N H V 9 w   bXnXnXnXvXnX",
"bXbXnXvXnXnXnX< ; V h H N H l p : m f 0X6Xi j a b <.m a d i wX6X: H u p g N C < . nXnXnXnXvXnXnX",
"bXnXnXnXnXnXnXzX# B I 9.U k g p #X$X> 0X9X9X7Xa K b a f 0X6X9X9Xj 6XXXu H G Z + zXzXnXbXnXnXnXnX",
"nXnXvXnXnXbXxXnXzX+ C 9.L <.>.g XX+X&X8XwX0X0XrX: v h > 0X0X7X8XyX@X|.a j R > 2 V < xXxXnXnXnXnX",
"nXnXnXnXnXnXnXnXvXhX= G z m J M p OX*X&X*X0X7XqXrXZ qX9X> 8X*X8X8X+Xj j R H C c # # xXbXnXxXnXnX",
"nXnXnXnXnXnXbXnXzXzX1 h R 9.p g g '.+X*X&X&X&X8XyX7XwX7X> yX8X#XOX+Xi g H d v c + xXxXxXbXnXnXnX",
"nXnXnXnXnXnXnXbXnXw B I H L P a N.p.E 6.i.n.#X&X7X8X7X0X#Xn.6.E 7.8./.i m 0.: + hXhXnXxXnXxXnXnX",
"nXnXnXnXnXnXbXnXgX. +  .!.g j u /.OX X X|./.).+X*X*X*XoX/./.OX#X'.+Xn.p f h g. .hXjXnXnXxXxXnXnX",
"nXnXnXnXnXbXbXnXnXxXfX[ 9X_.a i.n.R R R u.R _.`.OX#XOX+X/.R R E 0.4.].p.u ).9X .hXnXnXnXbXnXnXnX",
"nXnXnXnXnXnXbXnXmXxXzXO qXqX> b.E 0.> = - R d.).OXOXOXOXd.0.- - - [ 6.p.: @XeX. xXxXnXmXnXbXnXnX",
"nXnXnXnXnXnXbXnXnXxXhX+ (.oX> d._._.T < = = k.|.#X'.OXoXi.- } = + }.W.u.b @XJ.. xXxXnXnXxXbXnXnX",
"nXnXnXnXnXxXnXnXnXnXxXxXO R Z h.!.tXV , B D.J.*X`.oXoXoXK.(.c ; 9 kX!.u.Z I O xXnXnXnXbXxXnXnXnX",
"nXnXnXnXnXnXnXbXbXnXnXxXjX* + h.G.eX] 5 +.gX[.*XoX*X*X*X[.tX{ + +.fX!.j.; O xXlXnXnXnXnXbXnXnXnX",
"nXnXnXnXnXnXnXnXnXxXmXnXjXxXO h.(.tX!.D.!.tX@X*XyX*XqXyX%XwXD.H.}.9X(.j.O fXhXnXnXnXnXnXxXnXnXnX",
"nXnXnXnXnXnXnXnXxXnXnXnXxXhXhX; (.(.@X6X6X6X7X0XyX*X8XyXqXrX9X@X[.[.}.. xXxXxXxXvXnXnXnXnXnXnXnX",
"nXnXnXnXnXnXnXnXnXnXnXnXnXzXzXO h.G.|.6X%X7X7X&X7X`.7X&X7X$X6X6X|.G.f.* nXlXnXnXnXnXnXnXnXnXnXnX",
"nXnXnXnXnXnXnXnXbXnXnXnXnXvXnXzX# h.(..X%X|.oX+X X+X+X X|.oX@X.X[.g.. nXxXjXvXvXnXnXnXnXnXnXnXnX",
"nXnXnXnXnXnXnXnXnXnXnXnXnXnXzXvXzX+ - 0.).%X+X`.'.'.'. X X#XW.} + + hXxXxXnXnXnXnXvXnXnXnXnXnXnX",
"nXnXnXnXnXnXnXnXnXnXvXnXlXkXnXnXA w c : - i.i.`./.n.)._.d.y.= 2 t t T t bXnXnXvXnXnXnXnXnXnXnXnX",
"nXnXnXnXnXnXnXnXnXnXxXbXnXnXnXt F.V y.b.T = O O O . + . % o A.S.Y.E.A.Z.t nXlXnXcXnXnXnXnXnXnXnX",
"nXnXnXnXnXnXnXnXnXzXnXbXjXxXS F.5Xw { j.f.V #.R.' %.` E.%.L.<X:X>X>X>XA.A.t nXvXnXcXbXnXxXxXnXnX",
"nXnXnXnXnXnXnXnXcXnXxXjXnXxX  }.jXO h.X._ O A.@.P.Q P.C.I.;X>X1X#.S.iXR.S.  @.nXnXnXnXnXnXnXbXnX",
"nXnXnXnXnXnXnXnXnXnXnXxXnXxX... O + + # O T.E.I.<X%.<XP.;X;X2XL.Q %.S.Y.. Y.% & nXnXnXnXnXnXnXnX",
"nXnXnXnXnXnXnXnXnXnXmXmXhXhX{ J.[.).W.R 3 sX1X<X-XI.<X<X4XiX;XL.Q ` r   &.q ' #.cXnXnXxXnXnXnXnX",
"nXnXnXxXnXnXnXnXnXbXnXmXjXO }.{.oX|.Q.#XD }.1X<X3X3X-X3XE.,XI.L.`   o   < ' Y.Y.q nXnXnXxXnXnXnX",
"nXnXnXnXnXnXnXnXnXbX&...v.O [.yX8XoX[ W.f.T.2X:X3XpX3X<X4X;X;XL.` cXcXnX  q *.t q lXnXxXnXnXnXnX",
"nXnXnXnXnXnXnXnXlXC.$.&...O }.*XoXQ.[ - + T.T.sXpXpXpXuX,X-XI.L.` 6 e o o   ' t   nXnXnXnXnXnXnX",
"nXnXnXnXnXnXnXvX&.>XR.A.#.3 ; _.).(.+ + y 6 e ~ 6 7 ! ! ! ! ! W e ( r & nXX   X nXnXnXnXnXnXnXnX",
"xXnXnXnXnXnXnXnX#.R.S.$.A.3 X.; - - , y ( O.o.O.Z.E.V.V.) B.) / 0 ` Q 6 cXnXnXnXnXnXnXnXxXnXnXnX",
"nXnXnXnXnXnXnXnX&.A.&.$...w T h.[ j.8 8 W W ( 5 7 o.) ) B./ / / e r r 8 vXnXnXnXnXnXnXnXnXxXnXnX",
"nXnXxXcXnXnXvXkXo &.Y.F.*.4 T y.{ I @ $ 5 % $ 5 W 7 / ^ V.V.B.W 6 e e & nXvXvXnXnXnXnXnXnXnXnXnX",
"nXnXnXnXnXnXvXnXMX*.R.$.  q { _ _ _ ( +.j.}.}.j.$ % % 5 7 7 W 5 6 r q & kXnXnXnXnXnXnXnXnXnXnXnX",
"nXnXnXnXnXnXnXvXnX#.A.  xX  .   O O + + @ F ( + # | !.2XaXT.+.% o     & nXnXnXvXnXnXnXnXnXxXnXnX",
"nXnXnXnXnXnXnXnXnX      xXnXjXxXzXzXzXzXX A w . nXO V ] D 9 @ vXvXbXnXMXnXzXnXnXnXnXnXnXnXnXnXnX",
"nXnXnXbXnXnXnXbXnXnXnXnXbXmXnXmXvXnXnXxXxXlXxXzXzXO Z ] | V X nXnXbXxXnXnXnXnXnXnXnXnXnXnXnXnXnX"
};
