/* XPM */
static char *player_91671053768[] = {
/* columns rows colors chars-per-pixel */
"48 48 239 2 ",
"   c #050103",
".  c #0B0101",
"X  c #0B0705",
"o  c #130201",
"O  c #1D0200",
"+  c #170508",
"@  c #1D110A",
"#  c #060318",
"$  c #190814",
"%  c #15161A",
"&  c #230100",
"*  c #2C0001",
"=  c #270B08",
"-  c #350100",
";  c #3A0A02",
":  c #380B08",
">  c #2B140D",
",  c #3C110D",
"<  c #391306",
"1  c #2B1314",
"2  c #281519",
"3  c #381916",
"4  c #21081B",
"5  c #38271C",
"6  c #160925",
"7  c #150F2E",
"8  c #220927",
"9  c #281927",
"0  c #371B24",
"q  c #271A35",
"w  c #17212A",
"e  c #272426",
"r  c #3B2625",
"t  c #2C2635",
"y  c #393638",
"u  c #35273C",
"i  c #450C04",
"p  c #490C0A",
"a  c #44120D",
"s  c #4A1507",
"d  c #54140B",
"f  c #58190F",
"g  c #421412",
"h  c #431D1B",
"j  c #4C1C1B",
"k  c #491914",
"l  c #5C1313",
"z  c #5C1B14",
"x  c #531C19",
"c  c #5A1C19",
"v  c #571C16",
"b  c #560D0E",
"n  c #65140D",
"m  c #6D1D1B",
"M  c #661A16",
"N  c #741B14",
"B  c #741F1D",
"V  c #7A1C17",
"C  c #72130A",
"Z  c #47281D",
"A  c #592119",
"S  c #572107",
"D  c #64231D",
"F  c #69241B",
"G  c #74241E",
"H  c #78261C",
"J  c #541F21",
"K  c #6B1F22",
"L  c #4F2523",
"P  c #472A28",
"I  c #5C2323",
"U  c #562C2A",
"Y  c #5A2A2B",
"T  c #572726",
"R  c #4B3328",
"E  c #5A312B",
"W  c #533734",
"Q  c #572830",
"!  c #642424",
"~  c #6D2423",
"^  c #632C2C",
"/  c #6A2928",
"(  c #732A23",
")  c #782926",
"_  c #66362C",
"`  c #77342C",
"'  c #673733",
"]  c #773737",
"[  c #672C30",
"{  c #484138",
"}  c #544235",
"|  c #5D402E",
" . c #7B4B37",
".. c #704837",
"X. c #251A45",
"o. c #393A46",
"O. c #3A2957",
"+. c #362B4D",
"@. c #4A3A56",
"#. c #4C374D",
"$. c #4E3C70",
"%. c #3D4247",
"&. c #4A464B",
"*. c #494852",
"=. c #56555D",
"-. c #68554A",
";. c #745853",
":. c #6E504E",
">. c #7D6C5B",
",. c #6A6257",
"<. c #55437D",
"1. c #4B446A",
"2. c #705C70",
"3. c #726666",
"4. c #6E6974",
"5. c #716C78",
"6. c #801E15",
"7. c #85241B",
"8. c #8A261C",
"9. c #822E2B",
"0. c #872A25",
"q. c #922D29",
"w. c #84352C",
"e. c #8B332C",
"r. c #893127",
"t. c #93342E",
"y. c #99362B",
"u. c #893935",
"i. c #953833",
"p. c #802E30",
"a. c #A03731",
"s. c #844536",
"d. c #885635",
"f. c #964C3C",
"g. c #A44338",
"h. c #994541",
"j. c #975252",
"k. c #8E4E49",
"l. c #A8534D",
"z. c #B9564B",
"x. c #AA5D58",
"c. c #B85B53",
"v. c #A84742",
"b. c #896857",
"n. c #9B6957",
"m. c #967557",
"M. c #99694B",
"N. c #B06854",
"B. c #866C67",
"V. c #8F6F6D",
"C. c #B06D67",
"Z. c #C45C53",
"A. c #C8635C",
"S. c #C86D65",
"D. c #D56E66",
"F. c #938377",
"G. c #B38A6B",
"H. c #C99A7A",
"J. c #D09B79",
"K. c #E0A57D",
"L. c #675F88",
"P. c #80738D",
"I. c #96969F",
"U. c #9A8F9F",
"Y. c #AC929C",
"T. c #BCA99B",
"R. c #9796A4",
"E. c #918CA2",
"W. c #B89EA4",
"Q. c #A79BA9",
"!. c #99A4A0",
"~. c #ACA9B7",
"^. c #B1AEB2",
"/. c #C69786",
"(. c #D59B89",
"). c #D59C95",
"_. c #CE928D",
"`. c #E89792",
"'. c #DAA38C",
"]. c #C7A699",
"[. c #D6A595",
"{. c #C4A98B",
"}. c #E8AF93",
"|. c #E8B69A",
" X c #F4BE9B",
".X c #FDBA99",
"XX c #F0BC94",
"oX c #F9A992",
"OX c #D4B3AB",
"+X c #F7BCA5",
"@X c #ECB5A3",
"#X c #F3C39E",
"$X c #FBC29D",
"%X c #DDC3B2",
"&X c #EDC3A7",
"*X c #FAC4A3",
"=X c #FBC5AB",
"-X c #F7C7A9",
";X c #E9C9B7",
":X c #FBCCB4",
">X c #F7C8B9",
",X c #FDD4BC",
"<X c #F4D3B8",
"1X c #F1D2B6",
"2X c #B6AFC6",
"3X c #B9B6C7",
"4X c #B0B6C9",
"5X c #C4BCCB",
"6X c #BEC1D0",
"7X c #D1C8D1",
"8X c #FCCDC3",
"9X c #F6CBC5",
"0X c #FDD3C2",
"qX c #FFDBC2",
"wX c #FFD4CF",
"eX c #FFD9CE",
"rX c #F0D6C5",
"tX c #FEDAD5",
"yX c #E6D5D7",
"uX c #FFE3C6",
"iX c #FFE9D8",
"pX c #FFF2DE",
"aX c #E2D8E4",
"sX c #EFEDE4",
"dX c #FEEBE5",
"fX c #FFEFEB",
"gX c #F9EAE8",
"hX c #FDF6E6",
"jX c #FEF3ED",
"kX c #FDF8E9",
"lX c #F5F4F5",
"zX c #FEF5F3",
"xX c #F6FBF7",
"cX c #FDFAF6",
"vX c #FEF6FA",
"bX c #F6FDFB",
"nX c #FEFEFD",
"mX c #F4F4FD",
"MX c #EFEFF6",
/* pixels */
"nXnXnXbXnXcXnXnXnXnXbXnXnXnXnXvXnXnXvXvXvXnXnXnXcXcXzXjXcXcXcXcXnXcXnXnXcXnXnXnXnXnXnXnXnXnXnXbX",
"nXnXbXbXnXcXcXnXnXbXnXnXlXnXnXvXbXnXnXMXnXvXgXcXzXzXzXcXvXcXcXzXnXcXnXnXnXnXnXnXnXvXnXnXnXnXnXnX",
"nXnXbXnXnXnXcXnXnXbXnXnXnXxXcXcXcXcXcXnXjXjXfXtXY Y U h P fXcXcXcXxXxXxXxXnXxXnXnXnXnXnXnXnXnXnX",
"nXnXnXbXnXnXnXnXnXnXxXxXvXvXvXr zXzXzXfXjXdXJ ] ] ] ] ' h iXdXjXzXjXzXnXxXcXnXnXbXnXnXnXnXnXnXnX",
"nXnXnXnXnXnXnXnXnXbXbXnXcXzXgXW W dXdXiXY _ k.j.i.w.M z p a , < P 1 P X zXvXnXvXnXbXnXnXnXnXnXnX",
"nXnXnXnXnXnXnXnXbXnXnXxXzXfXgXQ ' _ a ` u.j.x.h.9.H b n G u.u.] ] ' 3 = o zXnXvXnXnXbXnXnXnXvXnX",
"nXnXnXnXnXnXnXnXbXxXcXcXdXdXk C.] D F w.c.c.i.8.V 8.g.c.c.l.l.h.u.` & fXzXvXvXvXnXxXnXcXnXnXbXnX",
"nXnXnXnXnXnXnXnXnXcXcXjXdXE C.`.s.M s.z.c.v.H C y.z.z.D.c.g.e.H C b i g h 1 2 vXvXcXcXnXnXnXnXnX",
"nXnXnXnXnXnXnXnXnXnXjXdX^ ] )._.s.N z.oX8.6.8.r.A.c.y.8.8.6.8.y.t.i.p.] ] Q Q 0 > e cXnXbXbXbXnX",
"bXnXnXnXnXcXnXnXcXnXjXdXT j.@XS.C y.`.c.7.8.y.g.q.y.y.g.g.Z.D.Z.S.c.e.u.] ! ! 0 = cXxXxXnXnXbXnX",
"bXnXnXnXnXnXnXnXcXcXdXU j.`.`.w.H N.N.t.H r.g.i.q.g.g.Z.D.Z.Z.a.q.V B m b p * & zXjXcXnXxXnXbXbX",
"nXnXnXnXnXnXnXnXcXcXjXT [ `.c.G G C. .F F r.w.0.r.g.D.D.Z.y.y.8.t.t.0.) K K Q 3 jXcXcXxXnXvXnXnX",
"nXnXnXnXnXnXnXnXnXcXjXZ k.x.u.m d ` S S v / ( G q.v.0.q.y.y.y.t.i.r.e.9.B ~ c ^ 5 fXcXnXcXnXnXbX",
"nXnXnXnXnXnXnXnXcXcXjXE ] h.l m f D k < ; x D ` p.p.V V C V N H 6.C i.u.9.K ` J L 3 zXvXvXnXnXbX",
"vXnXnXnXnXbXnXnXnXcXzX= [ ] ~ M i a A 8XwX- j x I l B 0.u.q.i.q.q.0.N F F F c J Q R 3 vXvXvXvXnX",
"vXvXbXbXnXnXnXnXxXcXzXdX: [ ! i A 0X>X0XwX, tXwXp b l n B B e.q.a.q.N M M z i ; Q U 2 vXvXnXnXvX",
"nXnXbXbXbXnXnXnXnXcXcXjX> 3 E a s ,XuX<XiXeXwXwXp / w.w.) G G V 0.8.e.H F ~ A g - O o . cXnXcXnX",
"nXnXnXnXnXnXnXnXcXnXcXjXkXV.Z tX=Xs 1X<XqX0XtX< I ` s.( H ( p.B 9.0.e.) ) / I I U h zXvXcXnXnXvX",
"nXnXnXnXnXnXnXnXnXcXcXcXkX>.;XqX,X; uXuXqX,X0Xs d ! M F ` M l l M ( B B G D ! T L R = cXcXcXnXnX",
"nXnXnXnXnXnXnXnXcXnXcXcXhXV.1X@X*XK. ... .M.(.*Xd D d d c / [ c x z K K z l x T W P r cXvXnXnXnX",
"nXnXnXnXnXnXnXnXnXnXcXlXkX>.{.,X}.(.[.>X-X|.XXoXs i d ! x - - : a x / M K b g k P P 5 + bXvXnXnX",
"nXnXnXnXnXnXnXnXnXnXcXcXhXpXm.&X*Xd. .k.d.d.G.$X+X=Xs A g n.).b.3 * ^ ! K b g 3 3 2 . @   vXnXbX",
"nXnXnXvXnXnXnXnXnXnXnXsXhXpXb.#X*Xs.- * d. .d.$X.X+Xd A l Y.9X;X' L J [ J J j : o o vXvXnXnXnXnX",
"nXnXnXnXnXnXnXnXnXnXnXcXkXpXb.#X*X(.:.- T.H.M.$X*X=Xs v p ).9X9X- , [ K [ Q 3 O jXzXcXcXnXnXnXnX",
"bXbXnXnXnXnXnXnXnXnXnXcXkXpXm.-X X[.* L sXG.M.#X*X*Xs i ,X/.8Xn.* a g j J L L 0 zXvXnXnXnXnXnXnX",
"bXbXnXnXnXnXnXnXnXnXnXlXcXkXm.,X*X|.& :.pXH.G.|.#X#Xf |.@X[.n.- x ; , h h 3 P 1 zXvXnXnXnXnXbXnX",
"bXbXnXnXnXnXnXnXnXnXxXnXhX>.<X,X:X&XT.T.1X1X|.&X$X*X#X*X:X- - OX; L g 1 1 1 2 9 2 nXnXnXnXnXnXnX",
"bXnXnXnXnXnXnXnXnXnXnXxXcXF.%XrXqX0XrX1X1X%X-X#X#X$X$X=X/.).).i j * 5 3 o o o $ X   nXnXnXnXnXnX",
"nXnXnXnXnXnXnXnXnXnXcXnXsXF.T.%X9XqX0X>X+X&X-X X$X$X#X#X(.[.g , , P > . vXnXcXMXnXnXnXbXnXbXnXnX",
"nXnXnXnXnXnXnXnXnXnXnXcXkXzX. OXOX;X:X+X X*X=X*X.X.X$XJ.'.; Z 3 > 1   cXcXcXnXnXnXbXbXnXnXnXnXnX",
"nXnXnXnXnXnXnXnXcXnXnXnXnXcXjXo B.[. X+X.X+XXX.X.XoX}.J.s < , 1 o + nXxXnXnXnXnXbXbXnXnXnXnXnXnX",
"nXnXnXnXnXnXnXnXcXnXxXnXcXnXcXjXo & n.M.'.'.'.'.'.J.G.G.b.O o o cXcXxXnXxXnXnXnXvXbXnXbXvXnXnXnX",
"nXnXnXnXnXnXnXnXnXnXnXnXnXnXnXcXnXxXo o O o . O . . . X X y xXnXcXcXnXnXnXnXnXnXnXnXnXnXnXnXnXnX",
"nXnXnXnXnXnXnXnXnXnXnXnXnXnXnXnXnXnXnX=.#.^.5.I.I.R.3X3X^.!.y bXxXlXnXnXnXnXbXnXnXnXnXnXnXnXnXnX",
"nXnXnXnXnXnXnXnXnXnXnXnXnXcXcXnXbXbX%.o.R.5.R.~.2Xo.3XMX~.^.&.nXnXnXnXnXnXvXnXnXnXnXnXnXnXnXnXnX",
"nXnXnXnXnXnXnXnXnXnXnXnXnXnXnXnXbXbXo.!.~.E.3X5XU.#.R.aXMX^.%.MXnXxXnXcXnXnXnXnXnXnXnXnXnXnXnXnX",
"nXnXnXnXnXcXnXnXnXnXnXnXnXnXnXnXnXnXo.4X3X5XsX^.=.W.+ Y.~.Q.X mXnXxXbXnXbXnXnXnXnXnXnXnXnXnXnXnX",
"nXnXnXnXnXnXnXnXnXnXnXnXnXnXnXnXnXnX%.R.4X3X% e r B.W.& 4 $ 9 vXxXxXnXbXbXnXnXnXnXnXnXnXnXnXnXnX",
"nXnXnXnXnXcXnXnXnXnXnXnXnXnXnXnXnXnXbXw mX% { yXyX> OXY.2.@.4 vXnXbXnXnXnXnXnXnXnXnXnXnXnXnXnXnX",
"nXnXnXnXcXnXnXnXnXnXnXnXnXnXnXnXnXnXbX%.w *.4.sXW.aX2 P.0 8 9 8 e xXnXnXnXnXnXnXnXnXnXnXnXnXnXnX",
"nXcXcXnXnXnXnXnXnXnXnXnXnXnXvXbXnXnXq 6 t e =.L.~.2.q O.@.q q 4.#.e nXvXnXnXnXnXnXnXnXnXnXnXnXnX",
"nXnXnXnXcXnXnXnXnXnXnXlXlXnXnXnXcXvXL.5XL.w o.O.$.7 O.O.O.q # #.3.&.% nXvXnXnXnXnXnXnXnXnXnXnXnX",
"cXnXnXcXnXnXnXnXnXnXnXnXnXcXnXnXMXt @.X.o.q # # 7 X.L.<.$.O.6 #.&.y X nXnXnXnXnXnXnXnXnXnXnXnXnX",
"cXnXcXnXnXnXnXnXnXnXnXlXnXnXnXzXcX. 8 8 u # # # X.$.<.O.8 6 @.y &.y   nXnXvXnXnXnXnXnXnXnXnXnXnX",
"nXnXnXcXnXnXnXnXnXnXvXnXnXcXcXcX,.} ,.1 $ X $ mX# t +.0 + W.B.9 y   nXlXvXnXbXnXnXnXnXnXnXnXnXnX",
"cXnXnXnXnXnXnXnXnXnXnXbXnXcXnX. { } V.>.:.. xXvXmXvX;.5X%X].W +   lXnXnXnXlXnXnXnXnXnXnXnXnXnXnX",
"nXcXnXnXnXnXnXnXnXnXxXvXcXcXcX. 5 R ..Z r > vXcXlXX R _ _ A } o nXnXbXlXnXnXnXnXnXnXnXnXnXnXnXnX",
"nXnXnXnXnXnXnXnXnXnXnXnXvXcXnXcXX @ 5 > + jXnXnXcXX B.-.-.R . cXnXnXnXnXnXnXnXnXnXnXnXnXnXnXnXnX"
};
