/* XPM */
static char *player_21671053768[] = {
/* columns rows colors chars-per-pixel */
"48 48 235 2 ",
"   c #020101",
".  c #0C0101",
"X  c #060409",
"o  c #140201",
"O  c #1B0201",
"+  c #1D0906",
"@  c #16090B",
"#  c #120D12",
"$  c #1C1617",
"%  c #090A18",
"&  c #240401",
"*  c #210A05",
"=  c #2B0D0B",
"-  c #270909",
";  c #380A0A",
":  c #2D110E",
">  c #28130E",
",  c #33130D",
"<  c #3B0F10",
"1  c #251514",
"2  c #2D1413",
"3  c #2E1C1D",
"4  c #271818",
"5  c #341513",
"6  c #3C1414",
"7  c #321915",
"8  c #3B1A15",
"9  c #341C1C",
"0  c #3C1B1A",
"q  c #3A1619",
"w  c #230D19",
"e  c #2C211F",
"r  c #3C221D",
"t  c #37231B",
"y  c #1A1826",
"u  c #231B25",
"i  c #271D29",
"p  c #381F21",
"a  c #2B2526",
"s  c #392323",
"d  c #342829",
"f  c #332C33",
"g  c #362B34",
"h  c #383438",
"j  c #2B2C35",
"k  c #450E0D",
"l  c #480C0B",
"z  c #46120D",
"x  c #441413",
"c  c #4B1312",
"v  c #4B1916",
"b  c #421B1B",
"n  c #4C1B1A",
"m  c #461916",
"M  c #541513",
"N  c #5C1B16",
"B  c #541B1B",
"V  c #5B1E1C",
"C  c #5A1613",
"Z  c #51110F",
"A  c #6E130E",
"S  c #76140D",
"D  c #631A16",
"F  c #6C1A15",
"G  c #631C1A",
"H  c #6D1D1A",
"J  c #6C1511",
"K  c #721513",
"L  c #741B13",
"P  c #7C1C14",
"I  c #731E1B",
"U  c #7C1D1B",
"Y  c #7A1511",
"T  c #482519",
"R  c #54201E",
"E  c #5C211E",
"W  c #44210E",
"Q  c #64211D",
"!  c #6D221D",
"~  c #72221D",
"^  c #7A221E",
"/  c #5D1C20",
"(  c #6E1E21",
")  c #4B2523",
"_  c #462A28",
"`  c #532524",
"'  c #582B26",
"]  c #592827",
"[  c #48302B",
"{  c #53392D",
"}  c #443333",
"|  c #433C3E",
" . c #483835",
".. c #573B35",
"X. c #442A33",
"o. c #642523",
"O. c #6C2423",
"+. c #6C2C2A",
"@. c #662A27",
"#. c #742622",
"$. c #7C2521",
"%. c #7C2A25",
"&. c #742D29",
"*. c #782B29",
"=. c #63322E",
"-. c #7E312D",
";. c #75312E",
":. c #782F31",
">. c #683735",
",. c #7B3A37",
"<. c #584238",
"1. c #5B402F",
"2. c #6E4F3A",
"3. c #443C44",
"4. c #483D47",
"5. c #563B42",
"6. c #3E404F",
"7. c #45434C",
"8. c #4A4349",
"9. c #574748",
"0. c #4B4958",
"q. c #514952",
"w. c #5B5456",
"e. c #57524F",
"r. c #654D47",
"t. c #76594A",
"y. c #705953",
"u. c #76645A",
"i. c #7F604C",
"p. c #5E5E6A",
"a. c #685B64",
"s. c #6A6568",
"d. c #776969",
"f. c #7B7576",
"g. c #696877",
"h. c #821E1C",
"j. c #831C15",
"k. c #83231C",
"l. c #89261E",
"z. c #91291E",
"x. c #8A2521",
"c. c #832A24",
"v. c #8C2C26",
"b. c #842D2B",
"n. c #8B2D2B",
"m. c #842524",
"M. c #932B25",
"N. c #922E2B",
"B. c #902721",
"V. c #84332C",
"C. c #8C332C",
"Z. c #8D3329",
"A. c #94322D",
"S. c #9C312C",
"D. c #92392E",
"F. c #843433",
"G. c #8E3531",
"H. c #883B37",
"J. c #943432",
"K. c #993634",
"L. c #9A3A34",
"P. c #943D37",
"I. c #A33C34",
"U. c #884239",
"Y. c #964139",
"T. c #A24033",
"R. c #815F53",
"E. c #A7544B",
"W. c #B5544A",
"Q. c #B75B55",
"!. c #A24941",
"~. c #8C6B53",
"^. c #B5625C",
"/. c #846A66",
"(. c #94786C",
"). c #B07665",
"_. c #C25E57",
"`. c #C15B4F",
"'. c #C7665F",
"]. c #CA6A62",
"[. c #D87169",
"{. c #A3806D",
"}. c #DF8177",
"|. c #727385",
" X c #8A8689",
".X c #978988",
"XX c #8C8F93",
"oX c #938E95",
"OX c #97959A",
"+X c #BD9D8E",
"@X c #A29C9D",
"#X c #BAA296",
"$X c #9795A5",
"%X c #A19EAF",
"&X c #9EA1A6",
"*X c #ABA2A3",
"=X c #A8A6A9",
"-X c #A9ACBA",
";X c #B3B3BB",
":X c #B5BABE",
">X c #B9B5B7",
",X c #B6ADAB",
"<X c #C4A79C",
"1X c #C7ACA3",
"2X c #C6B3B0",
"3X c #EFCEBB",
"4X c #B3B4C5",
"5X c #B9BBC7",
"6X c #B0B8D1",
"7X c #C2C3C4",
"8X c #C1C6DA",
"9X c #D9D1D2",
"0X c #FFDDDD",
"qX c #E1D7D8",
"wX c #FFE0DB",
"eX c #D9DBE3",
"rX c #D2DAF1",
"tX c #E5DEE6",
"yX c #DCE0E8",
"uX c #E7E6EC",
"iX c #FFE6E4",
"pX c #FFEAE5",
"aX c #FDECEC",
"sX c #F6EAE9",
"dX c #FFF3ED",
"fX c #FBF6EE",
"gX c #E9EDF7",
"hX c #F8EFF2",
"jX c #F4F4F4",
"kX c #FDF5F4",
"lX c #FEF9F6",
"zX c #FCF6FA",
"xX c #F7FAF9",
"cX c #FEFDFD",
"vX c #F6F7F7",
/* pixels */
"cXcXcXcXcXcXcXcXcXcXcXcXvXcXcXcXjXzXzXcXzXcXkXkXfX7 fXfXfXlXcXcXxXlXcXcXxXcXcXcXcXcXcXcXcXcXcXcX",
"cXcXcXcXcXcXcXcXcXcXcXcXcXcXvXzX} hXzXaXkXkXaXdXt [ 7 pXfXfXlXlXcXcX4 cXcXcXcXxXcXcXcXcXcXcXcXcX",
"cXcXcXcXcXcXlXcXcXcXcXcXcXlXcXkX..X._ iX0XpX0Xx R ' ` v wXpXpXwX2 X.p lXkXcXcXcXcXcXcXcXcXcXcXcX",
"cXcXcXcXcXcXcXcXcXcXcXcXzXzXaXaX` =.] c R z l @.;.U.2.! N z x v ` ) 7 dXdXlXcXlXcXcXcXcXcXcXcXcX",
"cXcXcXcXcXcXcXcXcXcXcXlXlXfXpXiXB O.&.;.&.D D P.Q.^.W.D.~ ! 2.H.;.] x dXdXdXkXcXcXcXcXcXcXcXcXcX",
"cXcXcXcXcXcXcXcXcXcXcX$ } ..` v &.H U.^.Y.D.v.Q._.].Q.}.L Z.E.^.H.O.c n , e s . cXcXcXcXcXcXcXcX",
"cXcXcXcXcXcXcXcXcXlXlXlXr { >.,.V.c.D.^.W.J.D._.`.`.[.T.z.D.Y.E.b.F.;.,.' r o kXlXcXcXcXcXcXcXcX",
"cXcXcXcXcXcXcXcXcXcXlXfXpX; @.Y.!.L.c.W.Y.n.S.W.T.M.z.W.T.D.v.D.c.F.H.F.G & dXdXlXcXcXcXcXcXcXcX",
"cXcXcXcXcXxXcXcXcX3 1 7 m M -.E.'.j.S h.L.U K N.T.M.I.z.Y P v.L ^ ~ ^ I D c b 4 # X cXcXzXcXcXcX",
"cXcXcXcXcXcXcXcXcXaXo ) =.U.).].[.Y N.Y M.v.x.Y k.I.l.h.j.v.D.^ c.C.D.V.:.,.) p . zXcXcXcXcXvXcX",
"cXcXcXxXxXcXcXlXzXkXaX& V *.D._.j.S.I.x.K.J.n.h.l.N.j.l.x.A.L.x.V.^ b.P.-.o.] O zXlXcXzXzXcXcXxX",
"xXcXcXcXcXcXcXcXlXaX0X; M H v.N.S.S.M.N.J.h.n.N.A.P M.A.K.k.n.D.J.K U ~ #./ x O kXzXzXzXzXcXxXcX",
"lXcXlXcXcXcXcXd 4 2 b c G m.x.K.M.B.S.x.h.U J.K.K.n.K.K.K.P U G.Y.^ %.%.! +.x 5 p $ i g cXzXcXxX",
"xXxXcXcXlXcXcXlX@ s >.,.F.F.K.J.B.B.N.h.K K n.n.K.K.K.m.C.U K ^ b.m.%.F.-.O.=.) 9 3 . cXcXcXcXcX",
"xXcXcXcXcXcXxXcXkXO ] ,.F.G.N.U ^ L Y k.U J m.K n.n.n.K G.$.H H $.#.^ J &.E R 0 2 o zXcXlXcXcXcX",
"xXxXcXcXcXcXcXlXkXaX; / :.J.n.n.k.l.L C.F.G.K.A m.N.k.K n.$.m.F.V.H L I F C x 6 o kXzXkXlXcXcXcX",
"cXcXcXxXxXcXcXcXzXaXp n @.N ~ ^ l.Z.D.Z.G.n.N.N.h.Y x.N.n.n.b.~ F.H.n.$.( O./ b p zXzXcXcXcXcXcX",
"xXcXcXcXcXcXcXcXzXu b ] @.Q &.%.Y.l.Z.^ ^ k.n.N.M.j.l.x.^ m.^ I #.b.V.*.( O.=.b w i zXcXcXcXcXcX",
"cXcXcXxXcXxXcXxXhX@ O & x k G ! L ^ ^ ~ I I n.A.J.A.L.P.m.#.H F H G *.( O.M ; ; o . cXcXcXcXcXcX",
"xXcXcXcXcXcXcXcXzXzXiXd.n l Z D F A ! ~ ~ ~ $.c.n.J.c.V.#.H ( ( *.O.C C Z k b y.kXkXcXlXcXcXcXcX",
"cXlXcXcXcXcXcXcXzXzXkX* ) =.o.N ~ ~ ! ! ~ ~ H I ^ %.! ! G D N C ! G M V =.v 5 2 kXlXcXcXcXcXcXcX",
"cXcXcXcXcXcXcXcXcXcX. 9 { ` ` &.! %.O.! G Q O.~ ! ~ ~ &.! Q C l Z M c v T ) 0 7 o kXcXcXcXcXcXcX",
"cXcXcXcXcXcXcXxXcXcX  + O 6 m l E N D Q G O.O.O.! Q ! Q E O.Q Z R ] x n 6 = * .   cXlXcXcXcXcXcX",
"cXcXcXcXcXcXcXcXxXcXxXlXo 7 6 ' E @.M M E Q @.Q Q Q Q Q N E R k v ] T 0 r > . lXcXcXcXcXcXcXcXcX",
"cXcXcXcXcXcXcXcXcXxXcXcXkXo : 6 x c < / B V B V Q @.] Z M N / c m 6 8 9 7 . lXcXcXlXcXcXcXcXcXcX",
"cXcXcXcXcXcXcXcXcXxXcXcXsX+ 2 q b < < n R n x B v @.+.Z c z v x x 6 0 7 4 @ lXlXlXxXcXcXcXcXcXcX",
"cXcXcXcXcXcXcXcXxXxXcXxXcXlXo 2 p q 6 < 6 < k x v R z l v k v 6 6 2 9 1 . cXlXcXcXlXcXcXcXcXcXcX",
"cXcXcXcXcXcXcXcXxXcXxXcXxXcXkX. 4 q p b q < 6 x m x x < x < 6 m 6 9 > . lXcXlXcXcXlXcXcXcXcXcXcX",
"cXcXcXcXcXcXcXcXcXcXvXcXcXxXcXcX. 4 3 q q p q 0 6 6 x < < 6 q 5 2 > . lXcXcXcXcXcXcXcXcXcXcXcXcX",
"cXcXcXcXcXcXcXcXcXcXcXxXcXcXjXcXcX  4 @ = p 5 q 0 0 0 8 , b = 2 > . lXkXcXlXcXcXcXcXcXcXcXcXcXcX",
"cXcXcXcXlXcXcXcXcXcXcXcXcXcXcXh h 8.g 4 o 2 O : = 5 = - 2 = & * } <.e e.vXlXcXvXcXcXcXxXxXcXcXcX",
"cXcXcXcXcXcXcXcXcXcXcXcXcXcXh OX:X5XoX} # w . @ o o o o + 1 o <./.u.} oX3.cXcXcXcXcXxXcXcXcXcXcX",
"cXcXcXcXcXcXcXcXcXcXcXcXcX7.XX;XeX5X>X;X$XX $X$XoXOX@X.X.X+ g /.(.R. .*X@Xh cXcXcXcXxXcXcXlXcXcX",
"xXcXcXcXcXcXcXcXcXcXcXcXcXh 7X7XeX:XXX;X6X6X6X6X6X-X7X>X>X# w ..u.y.. 9X,X8.cXcXxXgXxXcXlXcXcXxX",
"cXcXcXcXcXcXcXcXcXcXlXvXcX  XX=X7XOX4. X-X8XrXgXyXuX9XjX# u a . * + 2X2X.X. fXuXcXcXcXcXxXcXcXxX",
"cXcXcXcXcXcXcXcXcXcXcXzXcXs.  @   3.4.oX4X6X8XrXyXeXeXh h j =Xu s & o O o r.lXfXcXvXzXcXcXcXcXcX",
"cXcXcXcXcXcXcXcXlXxXcXlXe.,X,X*X*X. h $X$X4X4X8X7X:Xj 0.y -X&X$  .s <X1X<X#Xu.fXlXcXcXcXxXcXcXcX",
"cXcXcXcXcXcXcXcXcXxXsXlXa 4 d g o zX4.$X4X4X4X6XyXy i g ;X:X:Xj 9.p & <X3X+Xt.d.f.s.vXcXcXcXcXxX",
"cXcXcXcXcXcXcXcXxXcXlXd.qXqX . .# g g y y j y % a i i u y $ y a a } W T W W t /.a.f.s.cXcXcXcXcX",
"cXcXcXcXcXcXcXcXlXcXlXw.*XtXd.4.i i 4.6.0.0.6.7.0.3.0.4.4.7.h f } >.(.{.U.2.T d..X>X:Xg.cXcXcXcX",
"cXcXcXcXcXcXcXcXxXcXcXa q.e.a u g h 0.g.|.g.p.g.a.q.d.a.<.d d  .1.t.{.~.R.i.r .X.X X=X XuXcXcXcX",
"cXcXcXcXcXcXcXcXcXcXcX$ j 8.# X y g 4.0.p.0.7.w.q.4.q.9.} h u.u.r.i.(.i.~.1.[ /.e.d.=Xw.cXcXcXcX",
"lXcXxXcXcXcXcXcXcXcXcXcXX # . cX# d 7.7.q.3.8.9.3.9.9._ _ [ _ { { T ~.t.i.1.s s.=X>Xs.  cXcXxXcX",
"cXlXcXcXcXcXcXcXcXcXxXcXcXvXzXcXa u g f g s e t 9 s 7 r t , T m t 1.1.2.1.e.a . s.;Xf.xXxXcXcXcX",
"cXcXcXcXcXcXcXcXcXcXcXxXcXcXcXvX$ X   o + O O O + o + * & & & & o o . + . . . lX. XXs.cXxXcXcXcX",
"cXcXcXcXcXcXcXcXcXcXcXcXcXcXcXcXjXxXlX9./.1X1X/.e.dX9.(.1X1X/.t.fXlXxXsXcXcXcXcX  X X xXcXcXcXcX",
"cXcXcXcXcXcXcXcXcXcXcXcXxXjXcXcXcXcXfX@ 1.<.....+ kX1 } s [ <.+ lXcXxXcXxXcXcXcXcXcXcXxXcXcXcXcX",
"cXcXcXcXcXcXcXcXcXcXcXcXxXjXcXcXcXcX    . . o . . .     . o . .       cXcXcXcXcXcXcXcXcXcXcXcXcX"
};
