/* XPM */
static char *player_31671053767[] = {
/* columns rows colors chars-per-pixel */
"48 48 236 2 ",
"   c #020101",
".  c #0C0101",
"X  c #060209",
"o  c #09070A",
"O  c #120102",
"+  c #1C0302",
"@  c #170A0A",
"#  c #140C15",
"$  c #0D121D",
"%  c #1E191D",
"&  c #191319",
"*  c #090617",
"=  c #2C0E0D",
"-  c #260505",
";  c #3C0D0B",
":  c #340708",
">  c #27140D",
",  c #3A120C",
"<  c #261414",
"1  c #2B1515",
"2  c #281A1C",
"3  c #331514",
"4  c #3C1414",
"5  c #341C1B",
"6  c #3B1B1B",
"7  c #3A1A16",
"8  c #360F12",
"9  c #36231D",
"0  c #2F211E",
"q  c #1C1A26",
"w  c #191725",
"e  c #221D26",
"r  c #391D22",
"t  c #2B242A",
"y  c #252128",
"u  c #332523",
"i  c #35262B",
"p  c #3A2629",
"a  c #2F2C39",
"s  c #332D33",
"d  c #3A2B32",
"f  c #353339",
"g  c #393337",
"h  c #39302B",
"j  c #450B0B",
"k  c #4C0E0B",
"l  c #42110C",
"z  c #49160D",
"x  c #53110D",
"c  c #5A140B",
"v  c #431413",
"b  c #4C1413",
"n  c #411917",
"m  c #4A1913",
"M  c #431C1B",
"N  c #4C1C1C",
"B  c #411518",
"V  c #531413",
"C  c #541C1B",
"Z  c #5C1D1B",
"A  c #5A1916",
"S  c #410F10",
"D  c #6A1008",
"F  c #75150F",
"G  c #6B1613",
"H  c #641D16",
"J  c #6A1B14",
"K  c #641E1A",
"L  c #6C1D1A",
"P  c #741915",
"I  c #7B1C15",
"U  c #7C1E1A",
"Y  c #741B16",
"T  c #6D0A05",
"R  c #4C211E",
"E  c #47251A",
"W  c #5C221E",
"Q  c #54211E",
"!  c #64221D",
"~  c #6C211C",
"^  c #69291F",
"/  c #72231C",
"(  c #7C231C",
")  c #712319",
"_  c #571F20",
"`  c #442323",
"'  c #422C2B",
"]  c #492828",
"[  c #532423",
"{  c #5B2523",
"}  c #582A29",
"|  c #4B302C",
" . c #443234",
".. c #47373B",
"X. c #523B34",
"o. c #5A382E",
"O. c #632423",
"+. c #6C2522",
"@. c #6C2924",
"#. c #6B2B29",
"$. c #662927",
"%. c #732622",
"&. c #7E2723",
"*. c #732A26",
"=. c #7A2B25",
"-. c #792D2A",
";. c #69312F",
":. c #7E322C",
">. c #79392F",
",. c #633532",
"<. c #6B3836",
"1. c #7C3531",
"2. c #793737",
"3. c #702E30",
"4. c #4B413C",
"5. c #584237",
"6. c #654437",
"7. c #3F3F49",
"8. c #453D45",
"9. c #473D47",
"0. c #44434D",
"q. c #4C424C",
"w. c #494448",
"e. c #554344",
"r. c #5B5249",
"t. c #4C4553",
"y. c #4A4A54",
"u. c #544A56",
"i. c #525159",
"p. c #785647",
"a. c #665855",
"s. c #725251",
"d. c #7C6458",
"f. c #6D645A",
"g. c #645B68",
"h. c #696865",
"j. c #756A69",
"k. c #79746D",
"l. c #676471",
"z. c #736B79",
"x. c #737875",
"c. c #851F1A",
"v. c #8A1E1A",
"b. c #82231D",
"n. c #8A241E",
"m. c #90281D",
"M. c #842C25",
"N. c #8B2B25",
"B. c #852E2A",
"V. c #8C2D2A",
"C. c #862522",
"Z. c #932B24",
"A. c #932D2B",
"S. c #972C27",
"D. c #86322F",
"F. c #8D322D",
"G. c #8C382E",
"H. c #93332D",
"J. c #9A332E",
"K. c #983025",
"L. c #8C3531",
"P. c #873936",
"I. c #943431",
"U. c #923A35",
"Y. c #9B3A33",
"T. c #983C39",
"R. c #A23E38",
"E. c #97413B",
"W. c #87413F",
"Q. c #845C45",
"!. c #84504B",
"~. c #B6544D",
"^. c #AE5451",
"/. c #876553",
"(. c #9B755F",
"). c #916B56",
"_. c #816662",
"`. c #8C746C",
"'. c #B37365",
"]. c #C55D57",
"[. c #C9635B",
"{. c #CB716B",
"}. c #CF6D66",
"|. c #AB8677",
" X c #98928C",
".X c #898896",
"XX c #968D92",
"oX c #9C959D",
"OX c #989394",
"+X c #8E938F",
"@X c #A49797",
"#X c #B39489",
"$X c #B5A49A",
"%X c #9998A4",
"&X c #A8A5AE",
"*X c #ABA9B4",
"=X c #B3AFB6",
"-X c #B8B5BB",
";X c #B4AEAC",
":X c #C6ADA5",
">X c #C5B2B4",
",X c #BAC1BB",
"<X c #DBC2BD",
"1X c #E6CABF",
"2X c #BAB7C3",
"3X c #BCBAC5",
"4X c #BEBCC9",
"5X c #B4B3C0",
"6X c #AFB1C0",
"7X c #C1BFCB",
"8X c #CFBFC2",
"9X c #C3C2CE",
"0X c #C5C4D2",
"qX c #D0CACC",
"wX c #EBCEC8",
"eX c #FEDFD8",
"rX c #FFDBCF",
"tX c #FFE7DD",
"yX c #DAD9E6",
"uX c #DEDCEA",
"iX c #E5DAE2",
"pX c #E8E5EC",
"aX c #FFECE7",
"sX c #FFEDEB",
"dX c #FAE7E7",
"fX c #FEF2EC",
"gX c #E8E7F5",
"hX c #FFEFF2",
"jX c #F5F5F4",
"kX c #FDF5F4",
"lX c #F5F9F4",
"zX c #FDFAF5",
"xX c #FEF6F9",
"cX c #FEFDFD",
"vX c #F7F8FC",
"bX c #EFF5F1",
/* pixels */
"cXcXvXcXcXcXcXcXcXcXcXcXvXcXcXcXcXcXxXcXxXzXcXxXzXxXxXcXcXcXcXzXxXkXcXzXcXcXcXcXcXcXcXcXcXcXcXcX",
"cXvXvXvXcXcXcXcXvXcXcXjXcXcXcXcXvXd xXxXkXcXcXkXkXxX2 xXjXxXcXzXcXxXxXzXcXcXcXcXcXcXcXcXcXcXcXcX",
"cXcXcXcXcXcXcXcXcXcXzXcXzXcXcXkXkX8. .kXfXzXzXkXsXp ]  .zXzXzXzXaXsXkXe zXzXcXlXcXcXcXcXcXcXcXcX",
"cXcXcXcXcXcXcXcXcXcXcXlXcXxXkXkXsX .} [ aXfXaXaXM R } , aXfXfXfXdX| 5 r zXzXzXcXcXvXcXcXcXcXcXcX",
"cXcXcXcXcXcXcXcXcXcXlXzXzXkXfXhXeX,.3.O.N B l l ^ >.6.^ z , m z ; _ ` 8 sXkXcXcXcXcXcXcXcXcXcXcX",
"cXcXcXcXcXcXcXcXcXcXcXzXu ' | B eX_ 3.-.P.K x %.U.H.].E.c ^ G.6.W.$.{ B aXsXkXcXcXcXcXcXcXcXcXcX",
"cXxXcXcXcXcXcXcXcXzXzXfXfX9 } <.W +.P.T.^.T.U I.~.].].~.M.G.}.[.^.*.K b B 3 5 . lXcXlXcXcXcXcXcX",
"cXcXcXcXcXcXcXcXcXcXzXkXfXm { 2.B.&.C.T.^.^.R.~.[.].[.[.~.E.( ^.E.C.1.2.<.] + kXcXcXcXcXcXcXcXcX",
"cXcXcXcXcXcXcXcXcXcX. > 6 b k / B.[.b.T H.Y.N.[.Y.m.m.[.J.m.G.M.U L.B.-._ - kXkXzXzXcXvXcXcXcXcX",
"cXcXcXcXcXcXcXlXcXzXzX+ } 2.=.B.}.].K.c.F.( D Z.K.K.K.Z.c.b.=.( F b.%.%.Z j 4 fXzXcXcXlXvXcXcXzX",
"cXcXcXcXcXvXcXcXcXcXdX+ _ #.D.{.].[.J.J.Y.n.( ( m.J.m.v.n.N.M.M.V.N.L.D.3.;.` = < . vXcXcXcXcXcX",
"cXcXcXcXcXcXvXcXjXxXhXdX: 3.D.C.}.Z.m.J.H.N.I.U n.n.v.v.N.H.V.H.I.A.b.D.D.#.R 3 @ cXcXcXcXcXcXcX",
"cXcXcXcXcXcXvXcXs e r S b %.G T.C.J.K.J.C.U T.U n.v.S.m.N.( Z.H.J.A.b.( =.^ b - aXkXkXcXcXcXcXlX",
"cXcXcXxXcXcXcXvXxXO ` s.W.D.B.I.U.I Y.A.U U U.L.Z.S.J.R.H.Y C.V.J.A.U M.=.! m B sXsXxXcXvXcXcXvX",
"cXcXcXcXcXcXvXcXcXxX- _ 3.T.P.V.b.D I I G L -.U.A.I.N.N.( ) J =.M.V.V.M.=.>.} N ] r i & cXxXcXcX",
"cXcXcXcXcXcXcXcXcXxXdX: 3.2.L.L.b.E.G U U %.L D.N.Y.m.I ( ) J ) ( ( ( J ^ @.{ } ] r O xXjXcXcXcX",
"cXcXcXcXcXcXcXxXcX< 5 M C O.~ / ( N.H.V.T.I.P &.A.F P c.H.H.U F.B.!.I / H V b 4 = O cXcXcXcXcXcX",
"cXcXcXcXcXxXvXcXjX. ' 6 <.$.! E.G.I.I.H.I.V.b.c.c.U b.N.A.V.M.M.L.D.C.=.+.Z m 6 + vXxXcXcXcXcXcX",
"cXcXcXcXcXcXcXxXxXcXO 7 , W *.L D.B.B.F.C.U V.B.P B.B.B.( Y ( D M.G P.*.#.O.} 4 p xXxXcXcXcXcXcX",
"cXcXcXcXcXcXcXcXzXfXfX+ l m A +./ Y L &.G G V.V.C.U.T.U.M.&.%.L =.L L K Z { M = < 2 cXcXcXcXcXcX",
"cXcXcXcXcXcXvXcXcXxXkX3 } } k x H ) ~ / L G %.P.G.:.B.) ~ ~ c ~ L ~ Z V j v 4 + O   cXcXcXcXxXcX",
"cXcXcXcXcXcXcXzXlXzX. ' E } } ! ! +.~ K +.~ G *.:.) ^ ! +.@.x *.A +.A Z m v 3 9 kXcXzXcXcXcXcXvX",
"cXcXcXcXcXcXcXcXcXxXO O 9 v v { Z O.W H +.+.L +.+.! H H ! W k x x k b { [ 7 5 < . cXcXcXcXcXcXcX",
"cXcXcXcXcXcXcXcXcXzXcXO - = R ,.{ O.x C O.O.+.K ! *.^ ^ ^ ! ! z O.b : m 8 + + O . xXcXcXcXcXcXcX",
"cXcXcXcXcXcXcXcXcXcXcXkXO 3 3 n b S S ;.O._ +.3.A ^ +.Z x O.O.k { ;.4 6 6 = O kXcXcXcXcXcXcXcXcX",
"cXcXcXcXcXcXcXcXcXcXcXkXxX+ = 3 8 B 8 $._ V j O.+.#.#.x j O.{ N N - n M 1 . zXzXcXcXcXcXcXcXcXcX",
"cXcXcXcXcXcXcXcXcXcXcXxXkXO < r ` 4 4 B _ b j b O.{ V j C { j : ` M 7 5 < . xXcXcXcXcXcXcXcXcXcX",
"cXcXcXcXcXcXcXcXcXcXcXcXxXkX. 1 r 4 B 8 8 S C j b k j S S b B ; 8 = 5 2 . cXcXcXcXcXcXcXcXcXcXcX",
"cXcXcXcXcXcXcXcXcXcXcXcXcXxXcX. 1 r 5 5 4 8 N S v l v N S : M 6 3 5 < O kXcXzXcXcXcXcXcXcXcXcXcX",
"cXcXcXcXcXcXcXcXcXvXcXcXcXcXxXxX. 1 + r ` 8 4 B v v l M M 8 M r 1 u . xXcXvXcXcXcXcXcXcXcXcXvXcX",
"cXcXcXcXcXcXcXcXcXcXcXcXcXcXzXcXxX. < < 3 r 8 M n 4 4 = 3 6 5 3 O . kXkXvXcXcXcXcXcXcXcXcXcXcXcX",
"cXcXcXcXcXcXcXcXcXcXcXcXcXcXcXkX..g  .O O 2 + = r 5 3 + 5 5 O + | e.d w.cXvXcXcXxXcXcXcXcXcXcXcX",
"cXcXcXcXcXcXcXcXcXcXcXxXcXxXkX9.@XXXoX9.* # # * X X * . . 5 O |  X_.p %Xw.vXlXzXfXcXcXcXcXzXcXcX",
"cXcXcXcXcXcXcXcXcXcXcXcXcXxX8.oX;XpX=X=X%X* .X%X%X.X.X.X%X.  ./.)._.' &XoXy.bXzXxXxXzXcXlXcXcXzX",
"cXcXcXcXcXcXcXcXcXcXcXcXpXxX. OXXXXX%X5X4X5X0X6X6X3X0X7X-X# o 5._._.O iX-XOXo lXcXkXcXlXcXlXzXcX",
"cXcXcXcXcXcXcXcXcXcXzXcXcXj.k..   w.s &X=X3XuXyXgXgXuXyXq f & . O O >X8X. . $Xf.zXzXzXzXcXzXcXcX",
"cXcXcXcXcXcXcXcXcXcXcXvXcX# % =X&X*X0..X7X0X5XgXuXuXuXq i.$ -X% g < @ + wX<X$Xf.zXzXzXcXcXlXcXcX",
"cXcXcXcXcXcXcXcXcXcXcXcXjXj.qX2 t & y..X%X3X&X4X4X5Xw l.w 4X%X@ 4.0 - :XwXeXtX$Xr.zXlXcXcXcXcXcX",
"zXcXcXzXcXcXcXcXcXcXcXzXcXy.-Xw.g f 7..X7X4X4X7XuXw 7.q 4X*X4Xy j.> - |.#XrX1X|.f.k.lXvXvXcXvXcX",
"cXzXcXcXcXcXcXcXcXcXcXcXzXcX  s q q w e w w q & q e $ e w w w q 3 E E E E W E d.j.h.x.bXcXcXcXcX",
"zXcXcXcXcXcXcXcXcXcXcXcXcXcXcXX % a 7.i.y.7.u.t.9.9.9.u.9.9. .p E 6.|.|.Q.6.7 j. X;X,Xx.vXcXvXcX",
"cXzXzXcXcXcXcXcXcXcXcXcXcXvXcXcX% f 0.l.l.z.z.l.l.u.`.g.9.d ..| 6.6.|.W.Q.Q.| #Xx.|.,Xh.vXvXcXcX",
"lXcXcXcXcXcXcXcXcXcXcXcXcXvXcXcXy g i.i.g.u.t.q.9.9.t.u.9.9.a.d.p./.).(.p.6.9 j.h.k.+Xx.cXcXcXcX",
"zXcXcXcXcXcXcXcXcXcXcXvXcXcXzXcX% y 7.0.t.t.q.9.u.9.8... .p ' X.E 5././.d.5.' j.+X,Xx.o gXvXcXcX",
"cXcXcXcXcXcXcXcXcXvXcXcXzXcXcXcX2 % f s t t s i 7.i d d t u 0 9 E 5.5.5.5.a.0 . a.-Xx.jXvXcXcXcX",
"cXcXcXcXcXcXcXcXcXcXcXvXcXcXvXcXo   o   # O . . . . .   @ o . . . O O . @ O   cXo +Xh.cXcXcXcXcX",
"cXcXcXcXcXcXcXcXvXcXcXcXcXcXcXcXcXcXlXcX  ..a.r...< xX# y g   cXcXlXzXcXdXjXlXlXo     cXcXcXcXcX",
"cXcXcXcXcXcXcXcXvXcXcXcXcXcXcXcXcXcXlXcX. . . . . .                   . .             cXcXcXcXcX"
};
