/* XPM */
static char *coin_41671053643[] = {
/* columns rows colors chars-per-pixel */
"32 32 93 2 ",
"   c #010101",
".  c #090200",
"X  c #040109",
"o  c #08020C",
"O  c #1A0F13",
"+  c #171413",
"@  c #1C1415",
"#  c #1D1519",
"$  c #1E1818",
"%  c #201619",
"&  c #7F6C06",
"*  c #7F6D09",
"=  c #7E7400",
"-  c #7C6C16",
";  c #756D1C",
":  c #7B6A18",
">  c #756C24",
",  c #796D25",
"<  c #756B2A",
"1  c #7B6D29",
"2  c #717020",
"3  c #6F6B3B",
"4  c #736C34",
"5  c #786B34",
"6  c #746A3A",
"7  c #747031",
"8  c #806D06",
"9  c #816D0A",
"0  c #847500",
"q  c #D7BC0D",
"w  c #DCBB0C",
"e  c #D5BE15",
"r  c #DCBD12",
"t  c #D7BA18",
"y  c #DCBC19",
"u  c #D7B72E",
"i  c #D5BA2E",
"p  c #D8BE2B",
"a  c #D6B931",
"s  c #D2B93D",
"d  c #CEC30F",
"f  c #D4C30D",
"g  c #D9C214",
"h  c #EEDD2B",
"j  c #F2DB2D",
"k  c #EEDE35",
"l  c #F5D735",
"z  c #F4DB34",
"x  c #F8DD35",
"c  c #F8D73A",
"v  c #F4DC3A",
"b  c #F8DB3B",
"n  c #EBE026",
"m  c #EFE129",
"M  c #F2E12E",
"N  c #F9E02C",
"B  c #F4E031",
"V  c #FAE033",
"C  c #F6E138",
"Z  c #FFF73D",
"A  c #FEFD3C",
"S  c #CCB84E",
"D  c #EDD846",
"F  c #EDD74C",
"G  c #EDDB4D",
"H  c #F0D747",
"J  c #F4DB43",
"K  c #F3DB4B",
"L  c #EAD757",
"P  c #ECD855",
"I  c #E7D55C",
"U  c #EAD659",
"Y  c #ECDA5E",
"T  c #F2DA52",
"R  c #FFF542",
"E  c #FFFC44",
"W  c #FFFA49",
"Q  c #FFFD52",
"!  c #FEF95D",
"~  c #E6D461",
"^  c #EAD764",
"/  c #EAD965",
"(  c #E5D56C",
")  c #E9D56B",
"_  c #ECD868",
"`  c #E4DA72",
"'  c #E8D77B",
"]  c #E2D97C",
"[  c #FFF662",
"{  c #FBF86B",
"}  c #FEEF7C",
"|  c #FFF575",
" . c #FAF389",
/* pixels */
"        X               . , - * & - .               X           ",
"          o X X       . 1 ' ( / / ( , 6 .           X   X X     ",
"                  . . > / F K D G G P ) < .           X         ",
"            X       , ) J z v v k k z K ) 1 .     .             ",
"                  2 ^ T J b l x m W j b K I , .         .       ",
"                4 ` T b c l z M E Z R V z p S <             X X ",
"    X o       . - U J l y x m A A E A Z q t i 9 .       X   X   ",
"    X X   . . 6 ) K v e x M A A A A A Z N w y s 7     X       X ",
"        . .   6 Y k B g h E A A A A E h z r w a 7 X             ",
"    X X     . 7 L J v d E E A E A E B x z x w u < .             ",
"              3 ) P U 0 E A E E W k h e l z y s 3               ",
"          . . . : / | = d A Z E k B x z l b a = .       X   .   ",
"                7  .[ E n f E j j j r z C G S >       X         ",
"        X       X 2 { ! E E h d q g z v D / , .         X       ",
"                  . 2  .[ v C z x l x J / 1 .       X     X     ",
"                    . 9 ) P G G F T P / 1 .                     ",
"                X   . . 5 , ; ] ` ( > 6 .               X       ",
"                X           . 4 , 5 .     X                     ",
"                          .   . . . .   X                       ",
"                                .   o                           ",
"  X                       X   X                   X             ",
"    X   X                   X X                 X               ",
"          X                                                     ",
"        X                                                       ",
"                                        X                       ",
"                            X     X   X                         ",
"                    X   . X @ % % @                   X         ",
"                    X   # # @ % % % # $                 X       ",
"                  X   $ O % @ O O O % O #                       ",
"                        @ @ @ @ % % + @                         ",
"                .         . @ % # @                             ",
"                            .     .                     X       "
};
