/* XPM */
static char *coin_11671053642[] = {
/* columns rows colors chars-per-pixel */
"32 32 159 2 ",
"   c #000100",
".  c #010000",
"X  c #030000",
"o  c #040000",
"O  c #000200",
"+  c #000004",
"@  c #000002",
"#  c #010300",
"$  c #000102",
"%  c #000103",
"&  c black",
"*  c #040300",
"=  c #010100",
"-  c #030002",
";  c #010002",
":  c #070000",
">  c #090000",
",  c #0B0000",
"<  c #020202",
"1  c #070300",
"2  c #746842",
"3  c #786B37",
"4  c #7A6A37",
"5  c #000203",
"6  c #000302",
"7  c #010200",
"8  c #6E6A3D",
"9  c #E1D775",
"0  c #E5DA5C",
"q  c #E7D95C",
"w  c #030200",
"e  c #736F30",
"r  c #E1D952",
"t  c #ECE235",
"y  c #040301",
"u  c #040100",
"i  c #716B2D",
"p  c #FFF867",
"a  c #FFFC42",
"s  c #010101",
"d  c #746F2F",
"f  c #FFFA62",
"g  c #FFFE3A",
"h  c #FFFD3B",
"j  c #040001",
"k  c #070100",
"l  c #706D2A",
"z  c #FCFB63",
"x  c #FEFE3A",
"c  c #FEFE3C",
"v  c #000104",
"b  c #010006",
"n  c #030007",
"m  c #060200",
"M  c #060100",
"N  c #73702D",
"B  c #F8F960",
"V  c #FFFF3D",
"C  c #FFFF3F",
"Z  c #000106",
"A  c #020006",
"S  c #070200",
"D  c #73702B",
"F  c #F9FA60",
"G  c #FEFF3A",
"H  c #FEFF3B",
"J  c #030106",
"K  c #050000",
"L  c #6E6B26",
"P  c #FFFC61",
"I  c #FFFE39",
"U  c #010004",
"Y  c #010005",
"T  c #776F2E",
"R  c #FCF55E",
"E  c #FFFF3C",
"W  c #000005",
"Q  c #010103",
"!  c #010204",
"~  c #080200",
"^  c #73692C",
"/  c #CCBE2A",
"(  c #D3C203",
")  c #D3C105",
"_  c #060300",
"`  c #050100",
"'  c #776B31",
"]  c #D2BB31",
"[  c #DBBE0A",
"{  c #DBBE0B",
"}  c #000501",
"|  c #776831",
" . c #F1D651",
".. c #FCDA30",
"X. c #060000",
"o. c #F6DB5A",
"O. c #F8D732",
"+. c #030102",
"@. c #7A6B34",
"#. c #E9D252",
"$. c #F9DC38",
"%. c #030104",
"&. c #746B32",
"*. c #EEDE57",
"=. c #EFDE30",
"-. c #000403",
";. c #6D663C",
":. c #C6BB52",
">. c #CBBE34",
",. c #CBBD36",
"<. c #746840",
"1. c #796A33",
"2. c #796935",
"3. c gray1",
"4. c #0A0000",
"5. c #020107",
"6. c #040203",
"7. c #040005",
"8. c #030005",
"9. c #010400",
"0. c #020300",
"q. c #020100",
"w. c #040002",
"e. c #040004",
"r. c #030004",
"t. c #050102",
"y. c #1B1515",
"u. c #181617",
"i. c #181818",
"p. c #191718",
"a. c #181310",
"s. c #1D1513",
"d. c #1D1415",
"f. c #1C171B",
"g. c #161419",
"h. c #181319",
"j. c #020001",
"k. c #181715",
"l. c #1B1716",
"z. c #1F1619",
"x. c #1C1318",
"c. c #1B141C",
"v. c #1B161D",
"b. c #1C151D",
"n. c #171312",
"m. c #1B1217",
"M. c #1D131B",
"N. c #1A131A",
"B. c #1C121B",
"V. c #020401",
"C. c #050400",
"Z. c #050001",
"A. c #1D1417",
"S. c #1B1215",
"D. c #201718",
"F. c #21161A",
"G. c #080000",
"H. c #000300",
"J. c white",
/* pixels */
"    . X o .   O + @ X o O O   # #   O O o X @ $ $   X o X .   O ",
"    . X o X     % & . .     * = X *     . . & %     X o X .   O ",
"@   . X o - @     O   = + ; : > , : ; + =   O     @ - o X .     ",
"@ @ & . - - @ $ #   O & < 1 2 3 4 2 1 < & O   # $ @ - - . & @ @ ",
"@ @ & . - ; + @ 5   6   7 8 9 0 q 9 8 7   6   5 @ + ; - . & @ @ ",
"@ @ & & . . &     5 $ 7 w e r t t r e w 7 $ 5     & . . & & @ @ ",
"@     & . .         + y u i p a a p i u y +         . . &       ",
"@     & . .       s @ X u d f g h f d u X @ s       . . &       ",
"@ @ @ @ ; @ @ + + + j o k l z x c z l k o j + + + @ ; ; @ @ @ @ ",
"@ @ @ @ ; @ @ v b n X m M N B V C B N M m X n Z + @ @ ; @ @ @ @ ",
"    & & .     O + A X S M D F G H F D M S X A +       . & &     ",
"& & &   .   O   + J - K M L P I I P L M K X n +   O   .   & &   ",
". & & & U @     @ Y ; X k T R E E R T k X ; Y @     @ U & & & & ",
". .     W W &   @ Q !   ~ ^ / ( ) / ^ _ . ! Q @   & W W     . . ",
"; .     + + & &       O ` ' ] [ { ] ' ` O       & & + +   O . - ",
"; .     @ @ &   &   } O u |  ..... .| u O }   &   & @ @     . ; ",
". &   @ @ & . . . @   O X.| o.O.O.o.| X.O   @ . . . & @ @   & & ",
"& &     @ & . X j +.  O X.@.#.$.$.#.@.X.O   %.j X . & @     & & ",
"& &       & . . . = $ O ` &.*.=.=.*.&.` O   = . . . &       & @ ",
"& &     & & & . . = -.  _ ;.:.>.,.:.;._   -.= . . & &       & @ ",
"@ @ . & & @ @ @ @ & O O & X.<.1.2.<.X.& O O @ @ @ @ @ & . . @ + ",
"@ @ . . & @ @ @ W +     3.X : 4.4.: X 3.    + W @ @ @ & . . @ + ",
"+ @     & &   @ 5.Y =   & . X ` ` X . &   = Y 5.@   & &     @ W ",
"+ @     & &     Y + +.. 6.  = O =   . 6.. +.+ Y &   & &     @ W ",
"+ @     @ @ & & . . - 7.8.;   9.0.  U 8.7.- . & & & @ @     @ + ",
"+ @     @ @ & & q.+.w.e.e.r.=     = r.e.e.- t.q.& & @ @     @ + ",
"+ @   O   & & . ; ; o X.K y.u.i.p.u.y.K X.X - ; . & &       @ @ ",
"; @       & . . %.; X a.s.d.f.g.h.f.d.s.a.X ; %.. . &       @ @ ",
". . @ $ @ & ; . . j.k.l.z.x.c.v.b.c.x.z.l.k.j.. . . @ @ $ @ . . ",
"X . @ $ @ @ ; ; & & 7 n.m.M.M.N.B.M.M.m.n.7 & & ; ; @ @ $ @ . X ",
"X .       & U U   V.  C.Z.A.S.D.F.S.A.Z.C.  V.  U U &       . o ",
"X .   O   & U U   O O   X.X.G.: : G.X.X.  H.O   U U & O     X o "
};
