/* XPM */
static char *coin_31671053643[] = {
/* columns rows colors chars-per-pixel */
"32 32 97 2 ",
"   c #010101",
".  c #090300",
"X  c #0A0800",
"o  c #030408",
"O  c #1B0F12",
"+  c #151412",
"@  c #1B1315",
"#  c #1C1B17",
"$  c #1E1518",
"%  c #1E1918",
"&  c #211316",
"*  c #22151B",
"=  c #211819",
"-  c #7C6E04",
";  c #7E7300",
":  c #7F7C00",
">  c #73750A",
",  c #7B710F",
"<  c #726E17",
"1  c #7B6E15",
"2  c #736C1D",
"3  c #7A6C1C",
"4  c #777214",
"5  c #7B701E",
"6  c #6D6E2A",
"7  c #746C25",
"8  c #7A6C22",
"9  c #76672E",
"0  c #746C2C",
"q  c #6F6D32",
"w  c #726B34",
"e  c #726739",
"r  c #746A3B",
"t  c #79683A",
"y  c #906E00",
"u  c #857400",
"i  c #8B7100",
"p  c #D6BE02",
"a  c #DCBD03",
"s  c #DEBC0C",
"d  c #D2BD14",
"f  c #D9BB15",
"g  c #D6BA1B",
"h  c #D8BF1D",
"j  c #E1BD02",
"k  c #E2BD0D",
"l  c #CCBC2F",
"z  c #D6BC24",
"x  c #DABC23",
"c  c #D4BC28",
"v  c #C9B53C",
"b  c #C7BF38",
"n  c #CEBD3E",
"m  c #D2B830",
"M  c #D2BA3E",
"N  c #CFC300",
"B  c #D5C401",
"V  c #DCC001",
"C  c #D6C20B",
"Z  c #DBC10B",
"A  c #D0C015",
"S  c #DCC213",
"D  c #D4C11C",
"F  c #E2C002",
"G  c #E1C21A",
"H  c #FFE603",
"J  c #FFEC04",
"K  c #FEE50C",
"L  c #FDE416",
"P  c #FEE914",
"I  c #F5E41A",
"U  c #FAE51B",
"Y  c #F5E433",
"T  c #F6E53A",
"R  c #FFFB37",
"E  c #FFF638",
"W  c #FFFE3A",
"Q  c #CDB942",
"!  c #CDBC4C",
"~  c #D1B748",
"^  c #CBB65B",
"/  c #EEE34E",
"(  c #F4E643",
")  c #FFFC43",
"_  c #FFFA4C",
"`  c #EBE257",
"'  c #F0E154",
"]  c #FDFB53",
"[  c #FFF75B",
"{  c #FEFA5C",
"}  c #F1E263",
"|  c #FDF866",
" . c #FFFD6C",
".. c #F6F672",
"X. c #FFF573",
"o. c #FBF17B",
"O. c #FCF58D",
/* pixels */
"                  .                   .   o   o                 ",
"                .       X . 0 7 q X .       o                   ",
"                  .   . 2 - ( T / u 3 .     o             o     ",
"                  . r 3 } T P K U Y ' , X                   o   ",
"                  r Q D f V V K K P I ( 4     X                 ",
"o                 8 c F a j a F K H J I ` 2                     ",
"o               7 ! c g y f k j F K H P Y u X                   ",
"              . 1 Q c y x f s s j F K K U / 6                   ",
"              . 1 Q M i f s s a a j L L B { 4                   ",
"                3 ! v i f a a V a V V B W { O.0             o   ",
"                9 ^ M i g G s a F V N W R ] o.7 X               ",
"  o           . . 3 M z i f s F B B W W W ) X.3                 ",
"  o               t Q g S p V p B W R W W ) n 3                 ",
"                  . - z Z p Z C ) ) ) W W A ! 7     o   o       ",
"                  . 8 ~ f j d u : _ ) E V c 5 X                 ",
"                    . 8 m h [ { [ ] _ D x ~ e                   ",
"    o               . . 3 o. .] _ ] l ! u t o                   ",
"                  o     . 6 > ..| b 4 0 .   o                   ",
"                      o   . . e w w .                           ",
"                    o .     . . . .     o o                     ",
"                                            o                   ",
"  o               o                                             ",
"                o                                               ",
"                              o                                 ",
"        o   o                           X                       ",
"          o             o   .     .               o o           ",
"                            @ & * $             o o             ",
"                      # @ @ & @ O * @ @ %   o                   ",
"o                     # @ @ & @ & & & @ =                       ",
"  o                   + @ @ $ @ & & @ $ @ o                     ",
"                          o O % % +                             ",
"                    o   o   .                         o         "
};
