/* XPM */
static char *coin_71671053643[] = {
/* columns rows colors chars-per-pixel */
"32 32 96 2 ",
"   c #010101",
".  c #0A0200",
"X  c #060108",
"o  c #1C1414",
"O  c #1D1815",
"+  c #1C1419",
"@  c #1E1919",
"#  c #211314",
"$  c #201418",
"%  c #7F6D07",
"&  c #7F6E09",
"*  c #706F15",
"=  c #7D6D14",
"-  c #756A1B",
";  c #7B6C1D",
":  c #767116",
">  c #756B24",
",  c #7D6F24",
"<  c #756728",
"1  c #756B2E",
"2  c #7B6D2A",
"3  c #7D7021",
"4  c #6F6939",
"5  c #736B33",
"6  c #786C32",
"7  c #756A3C",
"8  c #7C6C39",
"9  c #787032",
"0  c #876D00",
"q  c #896E00",
"w  c #877100",
"e  c #8A7000",
"r  c #D6BF00",
"t  c #DCBD04",
"y  c #D7BD08",
"u  c #DCBD0A",
"i  c #D6BA11",
"p  c #DBBD12",
"a  c #D4BD1B",
"s  c #DABE1A",
"d  c #CCBB27",
"f  c #CAB72A",
"g  c #CFBA2D",
"h  c #D6BB22",
"j  c #D3BA2A",
"k  c #D9BE2E",
"l  c #CEB733",
"z  c #CEBB3A",
"x  c #D1B631",
"c  c #D2BA35",
"v  c #D3C303",
"b  c #DBC101",
"n  c #DDC00A",
"m  c #D6C015",
"M  c #DDC117",
"N  c #D5C11B",
"B  c #E0C009",
"V  c #EFDB22",
"C  c #F4DD2D",
"Z  c #ECDC3E",
"A  c #F3D934",
"S  c #FADC36",
"D  c #F9DC38",
"F  c #F9E02B",
"G  c #FBFD37",
"H  c #FFF73A",
"J  c #FFFD3C",
"K  c #CABC44",
"L  c #C5B74E",
"P  c #C9B64F",
"I  c #CAB754",
"U  c #CAB856",
"Y  c #EDDC44",
"T  c #EFDA4B",
"R  c #F2DB43",
"E  c #F1DA49",
"W  c #ECD553",
"Q  c #E9DB5E",
"!  c #F3D951",
"~  c #F1D75C",
"^  c #FFF544",
"/  c #FFFB43",
"(  c #FFF749",
")  c #FFF94A",
"_  c #FEFD52",
"`  c #F6FA5D",
"'  c #E7D565",
"]  c #ECD960",
"[  c #E7D569",
"{  c #EBD76B",
"}  c #E5D870",
"|  c #FFF46B",
" . c #F6F672",
".. c #FBF472",
"X. c #FDF579",
"o. c #F8F687",
/* pixels */
"    X X                       X X X               X             ",
"        X         X               .                             ",
"                X       . . 9 : ; 2 .                           ",
"                      . . 9 } Q Q } : 9 4 .                   X ",
"                    X . : ..Y Z Y Y E c I 2 .                   ",
"                      9  ._ ) / ) m i s j & .   .               ",
"                      * ` J J J / p k j a z 7   .               ",
"                    9 o._ G J G v M 0 q M j 1 .                 ",
"                    3 X._ J J v b u c e s j 2   .               ",
"                  . = | ) / / v b u j e p k 1                   ",
"  X             . 7 { Z ) J G v b t p D u j >                   ",
"                . 5 ~ D C V b b t t u ^ M x 9                   ",
"                . 1 x p C F t t t B v / d & .                   ",
"                  1 E S C n B u p p H ) K - .                   ",
"          X       1 W D A D u p j w / N L 6 . .                 ",
"                  7 [ T R A u p e T a g , . .   X               ",
"    X             . 2 { E C u t y N c 0 . .   X                 ",
"                    . 3 K f h s a j I 1 .                       ",
"                      . 7 2 = U I ; 8 .                 .       ",
"        X           X     .   5 7 . . .               .         ",
"                              . . .                     X   X   ",
"                              .                           X     ",
"                                X                               ",
"X                         .                                     ",
"  X                     X                 X                     ",
"            X         X   X       .                           . ",
"  .             X         O o O O o +                   X       ",
"                    . @ + o o o o # $ + @                       ",
".                 .   o o # o o # # # o +                       ",
"                      + o o o o # # $ + O                       ",
"                    .     + + + + o o                           ",
"                          X X     .                   .         "
};
