/* XPM */
static char *grass1671053384[] = {
/* columns rows colors chars-per-pixel */
"48 48 207 2 ",
"   c #0A5400",
".  c #045F04",
"X  c #0B5C00",
"o  c #0E5708",
"O  c #1F5C00",
"+  c #145F00",
"@  c #265C00",
"#  c #006300",
"$  c #006900",
"%  c #0B6C00",
"&  c #136400",
"*  c #1D6A00",
"=  c #1D6407",
"-  c #107400",
";  c #1D7201",
":  c #256300",
">  c #2A6700",
",  c #246C00",
"<  c #2C6B02",
"1  c #356C03",
"2  c #33650E",
"3  c #2E7400",
"4  c #2B7901",
"5  c #267600",
"6  c #337400",
"7  c #337A02",
"8  c #3A7A01",
"9  c #33710A",
"0  c #3A740D",
"q  c #397A0E",
"w  c #276710",
"e  c #38681D",
"r  c #3B7615",
"t  c #3B7913",
"y  c #386721",
"u  c #3C6C24",
"i  c #3C6D29",
"p  c #3E722B",
"a  c #35722C",
"s  c #3D7531",
"d  c #407600",
"f  c #417D0A",
"g  c #447C12",
"h  c #497D1A",
"j  c #437917",
"k  c #517A10",
"l  c #416F27",
"z  c #426E29",
"x  c #44732C",
"c  c #49762E",
"v  c #457A2D",
"b  c #4A792E",
"n  c #447227",
"m  c #50762D",
"M  c #457632",
"N  c #4A7631",
"B  c #467A34",
"V  c #4C7B33",
"C  c #4C7D39",
"Z  c #4A773A",
"A  c #527734",
"S  c #527D35",
"D  c #527E3A",
"F  c #5A7E38",
"G  c #607F33",
"H  c #3E7B40",
"J  c #487844",
"K  c #547D43",
"L  c #3F850A",
"P  c #3A8208",
"I  c #3F8512",
"U  c #3E883B",
"Y  c #428608",
"T  c #43890C",
"R  c #45850B",
"E  c #428214",
"W  c #488510",
"Q  c #448D13",
"!  c #4A8D13",
"~  c #44821B",
"^  c #4B8318",
"/  c #52821F",
"(  c #4C9114",
")  c #408E21",
"_  c #4C8B23",
"`  c #4D8721",
"'  c #518424",
"]  c #548A23",
"[  c #5A8E2A",
"{  c #4D8135",
"}  c #4D813A",
"|  c #4A8A34",
" . c #538136",
".. c #5B8536",
"X. c #54833B",
"o. c #5A853D",
"O. c #578C3C",
"+. c #5B8A3E",
"@. c #5E8834",
"#. c #5F9130",
"$. c #61863E",
"%. c #628A3E",
"&. c #648337",
"*. c #7C8E3C",
"=. c #689230",
"-. c #67913D",
";. c #4F8240",
":. c #558541",
">. c #598541",
",. c #568942",
"<. c #5C8B43",
"1. c #548549",
"2. c #5C8D4A",
"3. c #598949",
"4. c #5D9146",
"5. c #5E904A",
"6. c #549046",
"7. c #598E57",
"8. c #638642",
"9. c #628D45",
"0. c #698E47",
"q. c #638D4A",
"w. c #6B8E4A",
"e. c #649146",
"r. c #6A9246",
"t. c #64934B",
"y. c #6A954D",
"u. c #66994E",
"i. c #6C994D",
"p. c #70964D",
"a. c #729A4E",
"s. c #658E51",
"d. c #798D50",
"f. c #649553",
"g. c #6C9554",
"h. c #6C9A52",
"j. c #679957",
"k. c #729C54",
"l. c #779D58",
"z. c #68A049",
"x. c #6AA450",
"c. c #74A055",
"v. c #74A35A",
"b. c #779F61",
"n. c #79A564",
"m. c #81A14E",
"M. c #8FA96C",
"N. c #85A27E",
"B. c #8AA37E",
"V. c #8BAB7E",
"C. c #8AA675",
"Z. c #91A97F",
"A. c #96A77A",
"S. c #8CA582",
"D. c #8DAA84",
"F. c #88AA86",
"G. c #92AB84",
"H. c #94AC8B",
"J. c #98A88E",
"K. c #91A783",
"L. c #94B185",
"P. c #98B187",
"I. c #96B28C",
"U. c #9BB48D",
"Y. c #9DAD94",
"T. c #9AAD9A",
"R. c #99AA94",
"E. c #9EB296",
"W. c #99B899",
"Q. c #A1A68F",
"!. c #A1AB93",
"~. c #A0AF98",
"^. c #A2B395",
"/. c #A3B39A",
"(. c #ABB4A3",
"). c #A4BAA1",
"_. c #A7B8A3",
"`. c #B2BCA4",
"'. c #B4C6AD",
"]. c #BED6B4",
"[. c #C5CDBF",
"{. c #D4CBBC",
"}. c #C4D6BB",
"|. c #BBCFC4",
" X c #BFD1C5",
".X c #C4CFC5",
"XX c #D2CECB",
"oX c #C5D2C2",
"OX c #CCD3C4",
"+X c #C6D2CB",
"@X c #CDD9CA",
"#X c #C8D4C8",
"$X c #D4DACC",
"%X c #CAD0D0",
"&X c #D3D7D8",
"*X c #E5DFE1",
"=X c #F9EEEC",
"-X c #FDFDED",
";X c #EFFEFF",
":X c #F6F6F5",
">X c #FDF6F5",
",X c #F5FDF6",
"<X c #FDFDF5",
"1X c #F6F6FB",
"2X c #FCF6FC",
"3X c #F5FCFD",
"4X c #FDFEFD",
/* pixels */
"4X<X<X4X;X2X3X<X3X4X4X<X<X4X:X4X<X3X4X4X4X4X4X4X3X4X4X<X4X2X4X4X4X4X<X<X2X2X4X3X3X,X2X<X4X4X-X4X",
"3X<X4X4X,X<X4X<X4X4X2X4X<X4X4X1X4X4X4X3X4X2X4X4X4X4X4X4X4X4X2X4X3X<X4X;X<X4X3X4X2X4X4X<X4X4X4X4X",
"4X<X2X*X].{.%X%X[.@X.X$X@X@X%X X#X#X[.OX$XOX.X+X#XoXoX[.oX@X X].OX.X@XOX$XOXOXoXXXoX|.}.&X<X,X3X",
"4X4X4XF.% ) # $ 8 6 W ! 7 7   & & 5 T R 6 P q   6 3 8 ( 7 3 I + 4 . o ! 4 4 T * ; - # ; V.<X<X4X",
",X4X:X`._ ..8.9.y.w.F p.C ;.n.f.,.j.>.w.p.q.K q.F k.y.8.g.V 2.<.j.9.} 2.p.A 3.+.d.h.1.2 /.4X4X1X",
"<X2X<XQ.q a.w.9.X.t.<.B :.5.} ,.t.y.9.9.A 0.l.q.g.X.9.X.S o.f.f.<.e.>.<.8.q.>.g.%.O.,.] K.4X4X4X",
"<X3X:XT.. 7.J K o.V +...n +.X.n v v v 4.v x } b D c  ...o.<.S D e.a +.%.C ,.r.s s.Z K =.C.4X<X>X",
"<X4X<XR.- Z %.=.K q.<.9.h.9.9.i.9...B f.:.M D t.X.2.,.t.<.o.M :.C r.e.q.0.S M o.| +.h.k U.3X4X4X",
"4X4X4X/.T g.n.X.q.D N o.C t.X.5.B { t.<.+.e.l.i.X.y.x S 9.9.9.k.M 2.5.S o.9.9.k.} X.t.0 F.4X4X4X",
"4X2X4X_., D >.c >.c X.t.X.x ,.B p X.M X.<.x S o.u 5.p o.y.<.<.A V V n X.h.9.+.S C x ,.1 L.2X4X4X",
"2X4X4XY.7 Z N t.+.<.X.X.V o.C t.2.t.z B X.>.x 2.t.:.X.2.C <.o.X.y.<.y.9.o.D <.C y.<.f.^ L.<X2X4X",
"4X4X4XY.! s.N <.C X.5.o.t.o.e S o.F o.y.q.2.M x <.o.<.t. .<.f.x X.D 9.q.p.9.>.i F S <.] G.4X4X4X",
"4X4X4X)., s.F o.S n +.t.V V h.<...%.i.4...V j.{ A F +...i.....x c y.X.>.f.x 3.t.X.D 2.g L.4X4X3X",
"4X2X4XY., s.q.i.y.V X.h.X.X.9.y.r.r.%.i.O.S +.t.%.r.t.e.<.9.<.i.t.+.y...X.o.X.<.<.y.g.g L.2X4X4X",
"4X4X4XR.Q s.>.+.b e.u.x o.c.9.o.r.k.%. .u y.B v p t.b t.u C f.o.o.X.S <.A b t.v u X.:.g L.4X2X4X",
"4X4X4X/.3 K A <. .<.<.y.S 9.o.c w.X.c y.t.X.9.<.,.{ p 2.5.i s B X.V >.9.t.9. .5.<.,.C @ I.4X4X3X",
"4X4X4X!.L D h.{ <.y.>.X...k.%.y.S <.y.o.C v.S t.t.V h.X.S X.9.k.t.t.o.X.C t.j.V j. .t.] D.4X4X4X",
":X4X<X^.! b.>.{ C D V y.9.+.>.o.h.+.o.t.<.n e.<.x y <.o.t.t.%.p.u <.N p t.V V t.B u B h D.4X<X4X",
"4X3X4X/.6 :.c o.<.D :.2.N C } o.9.y.X.V C V C o.V t.B u o.u u X.<.:.D >.<.M B X.,.o.<.@ S.1X4X3X",
"4X<X4X/.W q.N u.:.h.t.:.<.t.V 5.%.<.<.X.<.<.x ,.j.X.o.} 3.t.o.N y.>.9.D <.o.t.p 5.+.<.0 D.4X4X4X",
"4X4X4X/.3 s.N v n +.9.9.X.<.+.e X.+.e.h. .<.t.v D i X.t.<.X.<.C X.n N h.q.>.D V D S $.] U.4X4X4X",
"4X2X4X^.* 3.g.,.9.9...9.h.o.V <.+.p.A <.<.X.V f.t.t.u 9.t.p 2.X.i.<.M V h.N c v.9.r.h./ G.2X4X4X",
"4X4X4XJ.7 3.o.} 4.9.y.V V h.y.y.9.X.t.V C <.y.<.t.V 9.i.X.X.t.t.4.+.9.9.X.e.y.9.y.a.r.[ G.4X>X4X",
"4X4X4XE.* f.X.p X.x C <.B p X.x D V o.9.o.<.V o...n t.<.V y.o.V 4.e <.y...b p.9.c r.t.q D.4X4X3X",
"4X<X3X_.! k.$.i.,. .<.e.n m 9.9.X.t.+.<.o.V S <.X.t.t.q.9.V c <.X.<.u.<.<.9.9.X... .>.h I.4X<X4X",
"4X2X,XT.E X.+.<.u <.<.X.h.9.v.t.o.+.x X.<.y.t.y.M ,.S D X.y.t.h.c X.<.S o.9.h.9.t.e.+.[ D.2X<X1X",
"2X4X4X(.& :.9.p } :.B :.} p X.B C X.u i.<.<.<.v x <.C w.t.X.9.N V C C >.t.C V X.>.p.e.1 N.4X4X4X",
"4X<X4XT.3 1.V t.>.>.i <.X.:.x j.<.<.X.X.X.t.x y.t...+.+.X.<.X.X.t.e.e.9.<.X.X.b t...t.h S.4X4X4X",
"4X>X4X_.I 2.x X...o.o.y.t.<.z M o.X.t.t.X.<.V x X...9.9.o.t.X.V <.c X.<.<.<.h.S S ..o.[ I.2X4X4X",
"4X3X4X(.X >.w.} r.e.e.t.V X.t.<. .X. .i.S n y.<...9.9.y.e.x e.C e.B V +.t.o.X.N N $.t.r I.4X4X4X",
"4X<X3XE.R %.y.l...a.<.9.X.<.,.5.<.k.<.<.<.O.X.c.w.%.k.+.t.V 9.9.<.t.o. .t.9.y.w.g. .h.h G.2X4X4X",
"4X<X<XR.T l.&...c.y.<.V x 2.B u S O.S <.b i.c.A p.a.+.X.V t.9.o.5.x <.y.C z 9.9.D 9.V ' N.4X2X4X",
"4X2X4X/.8 q.D A 9.A A i.9. .e.e.4.v n y.X.o.9.c o.<.N q.<.M C C +.o.<.<.y.x x M  .V 2.t U.4X4X4X",
",X2X4XJ.( g.9.q.c y.y.C y.y.V i.{ ,.y.D 9.y.y.q.9.S y.o. .t.X.h.n y.t.t.V +.t.c.t.y.j.> G.4X4X4X",
"4X2X4X).6 q.X.t.k...<.<.V } <.B u V ,.<.o.o.<.V k.+.o.9.e.e.i.X.S l C V i.2.V q.V A C > G.4X<X4X",
"3X2X4XE.< D X.<.9.<.V o.C x X.4.,.5.y C S C V <.9.t.o.V X. .S D o.<.+.9.o.c c V +.o.2.9 V.4X4X4X",
"4X4X3XE.L g.C <.F y.q.+.o.u.V ,.<.:.o.<.2.t.C D e.X.4.X.X.t.9.V t.o.y.>.+.9.e.n 5.8.1.~ K.4X4X4X",
"4X2X3X/.8 q.x c 9.X.o.i.C <. .y o.<.<.h.C <.+.X.D x V h.q.D t.n b >.D y.y.D >.D X.A x q U.4X:X4X",
"4X>X4X/.f 9.<.X.<.y.X.9.y.X.o.t.X.k.X.<.X. ...q.t.o.x X.h.9. .9.o.9.h.N 9.S D 9.t.e.5.> E.<X4X<X",
"4X4X3XJ.f h.9.g.9.o.+.n V y.i.+.8.+.<.v o.<.t.9.e.{ t.y.n <.y.y.t.X.9.9.n >.y.9.+.9.1._ V.4X4X4X",
"<X4X,X).. | V H C C 2.2.M M C B } B <.2.:.2.B ,.,.M t.5.:.x M V K C B 2.2.:.2.s 9.N V ..A.4X4X3X",
"2X2X<X!.w  .*.r.%.$.9.q.F c 0.p.&.9.$.r.A F m %.o.w.9.9.o.A +.9.r...w.$.+.$.c <.X.<.x.' M.<X4X-X",
"<X3X-XE.| z.m.+.t.{ x 4.u.e.k.t.<.,.p <.4.h.h.u.x <.,.<.4.u.t.v.} 5.X.V <.t.t.h.1.;.7.i G.4X1X4X",
"4X3X3XW.o = t = q 0 q ~ 9 = < 9 9 t < _ ~ ~ 9 < 0 t > _ ~ @ O r , ~ > r ] h ` 1 d 1 I @ C.4X4X2X",
">X<X=X'.F.F.B.W.H.D.G.H.D.S.G.H.H.I.S.E.B.H.G.E.D.H.E.G.D.U.B.H.U.U.S.G.G.B.K.G.E.H.I.V.'.,X4X<X",
"4X4X2X<X,X-X-X-X4X<X4X4X<X4X4X<X4X4X2X4X<X4X<X<X4X4X4X4X4X1X4X4X4X2X4X4X4X4X2X4X3X3X4X4X3X3X4X4X",
"3X<X4X3X4X4X4X2X<X4X4X4X4X4X4X<X4X<X4X4X2X4X4X<X<X3X4X3X4X4X4X4X4X4X<X2X3X4X4X4X1X4X4X4X4X4X4X4X",
"4X4X4X<X4X4X4X4X4X4X2X4X4X4X4X4X<X4X4X4X4X4X4X4X4X4X4X4X4X4X4X4X4X4X4X4X4X4X3X4X<X<X<X2X4X4X<X4X"
};
