/* XPM */
static char *snow1671055583[] = {
/* columns rows colors chars-per-pixel */
"90 90 44 1 ",
"  c #010101",
". c #9E9E9E",
"X c #A09E9F",
"o c #9EA09E",
"O c #A0A19E",
"+ c #9F9EA1",
"@ c #A19EA3",
"# c #A49DA9",
"$ c #9FA1A0",
"% c #A1A1A1",
"& c #A4A1A9",
"* c #A8A0AF",
"= c #C1BCD0",
"- c #C7C6C7",
"; c #CACBC7",
": c #CAC7CB",
"> c #CCCBCD",
", c #D0CDCF",
"< c #D0D0CE",
"1 c #CBC5D3",
"2 c #CECCD1",
"3 c #CEC9DC",
"4 c #D2C7D3",
"5 c #D1CCD3",
"6 c #D1CBDA",
"7 c #D1D1D2",
"8 c #D7D4DD",
"9 c #D9D6DC",
"0 c #DAD9DD",
"q c #DCD4E4",
"w c #ECE7ED",
"e c #EEEEEE",
"r c #F0EEEF",
"t c #EEF0ED",
"y c #F0F0EE",
"u c #EDE7F4",
"i c #EEEDF1",
"p c #F3E6F7",
"a c #F1EDF3",
"s c #F2E6FC",
"d c #F2EBF9",
"f c #EFF1F0",
"g c #F1F1F1",
"h c #FEFEFE",
/* pixels */
"                                                                                          ",
"                       %%.%                            %%.%                               ",
"                      %%o%..O&     %%                 .O.%..O&     O%                     ",
"                .%   %%%%%%%%.%   %o%%          .%%  $.o%%%%%.%   o&%.                    ",
"               %%.  .%%O.%..%O%     %%         oO%  %%%%.%.oOO%     .%                    ",
"               %%%  .+%.%X.%%%.  .%%           %%.  .%%.%%.%%%.  %%                       ",
"        %%%%.%       %%%%.%..%  %.%.    O@%@.%       o%@%.%%o%  %..%    .&OO%%            ",
"       %%O%%O.%        .$%%%    %O%%   .%o%%o.%        %.%%%    .O%.   %%.%%.%%           ",
"      .%o..%%%O@   .%%           %.   O>>%$>>o%$   %%%           %O   %%%+%%.%.%   %%.    ",
"      %%@%o%%.%o  .%..%     o.%       %>>o>><>>o  O%O.$    %o%%       %.oO%%.%%o  %..%%   ",
"      %%%.%..%.o  ..&oo%   O.@%O%%%%  %%Oo>>>>>O..@o..o% O%%O.+%o%.&  .%%%..o.%%  .%.%.%  ",
"       %o%..%%%   .%.OO%   %%..>o.%.%o.%%%o><>O.>>$%%%oo.%%%%%%O%OO%.  .@O.%%%.    O%.%.  ",
"          &%%.     %%%.   %%%%><>%%>>%Ooo%o+.o&>>>O%>>><$%o..%..o..%%     %o%.       %.   ",
"               %%.%%%   .%%.O%o>.%>>>>O&.%o.+$$.%%o><>:>>..%.%%%.%%%%.         %.%%       ",
"      %%O%.+  +.%%....%%Oo%>>O%.%.>>;o%o<:<><>>>$.%>>>>>>%o<>>>.%%O@O%%%.%%%  O%%%$%      ",
"     %%o%%$O%O%%.%%$%O.%%>>>>>>%%.%.%%o>>2>>>2>>>>+o%o%o%.;<>>>>>.%.$.o.@%o.% .%%..%      ",
"    O%%oo%.%..%X.$ooO.$.:,>:7>>:$$+$@%++>aa,4:5422>%+@+$$O<;>;>>>>XO:>O%.%%%   O%%%       ",
"     %%%%%  %%%%%%.>>%%%>>5w>>25o$:>>22>@4:55uaai>>+&22>>.$2>>><>>,%.<>O%%                ",
"           %.%.$%>>>>>&.>>hha>@@2>2>5ue>5>,::5aa>O%5>:2>2>2+22idi2:@O.%%+%$%%..O%         ",
"   &o     %%.O%%><>>;>Oo@2wh,>>><>><2>iu>:45:5:&>:>hi>>uhhi:33uu252+Oo>>2++%.%OoO.        ",
"  %.%o    %%%o%+>>hh>$.%@.&@:2>hu22>2222:,>>>.&>,>ih>:>>he:2>&2412@+%>>;2<+$+$&+%o%    .% ",
" %%.%.   ....&>o;>e>>O%+%2>>>>ihh>2wahh2,-,X%%%:>22:22>>::,:5+@##+#+@>ee>2+$$++%.+%   %%%.",
"  %.%    .%O%;<o$22>+%$$>>5>2>>2>22-hhhhh,:<>>>%%:222ihhr>>24###@&@@%>:r>22$$$+$%%  .  %. ",
"         %%.o>%o$$$&+$>2>>>ew5>>ffffgehhteeyehhe222ifhhhhg2:4#qqq8&@@@,,>;<$$&$$O  %%.    ",
".%.%.      .o%.O$&$$$222>2ihh2ifiiettiifeeghhhhhheyyeyrhga2adqqshu1>@@OX>:+%O%X%   %.     ",
"%%%.%%   %%%..&>2+&%$>he>fhhfiitteehhefeyyhhhhhhhhherarra0waddqhhhh>>@OXOo%o.%X       %%% ",
".%%O..% %%O%.O>>>2+$>fhh2feegegitthhhhe$.ehhhhhhhhhhaeyyeeyeagaahhi2:XO%%X%.%O%O.    %%.%O",
"  ..%%  ..%.%o<e>7$$2hhifiefyeefthhhhhheO.ythhhhhhhhrraeeyeyaaaai2:>,>%XX,>>%%OX.%  .%%%.%",
"           +%.>hh>$.>eefffhheetgythhhhfetytwyehhhhhgiiffhhftgaeageg;>>>%>>2>>X%X$    O.%%.",
"          .%o>>he>$$>>>eihhhegeeeyifeeefwtyyrtrryefiiifhhhheageayege:5>.ii2>7%.O%.O    .%%",
"         %%%O>>>>o>$o<>feghgeeghhhhggiefthhtryttttegefeehhhteyhhhety>>:&iiu2:,%%.%+%      ",
"        %%Oo>>>>>>>>:>tftiefehhhhhhhhifehhhhhhttthhhhffettttthhhhht>>222312>>@%>>>.O%     ",
"       %$$$$.<>o2><it>yeffgfaehhhhhegefhhhhhhhheethheeiegegegthhhrey>>u2313>>Oooo%%$      ",
"       %+22+%..<>2fegeigifwigteytetegeghhhhhhhhgegegetehhhheeegeieey><hh3=2>ooo%%o$       ",
"   %%  %22:%o%>>>>fiegyefhhhhhyegighhgehhhhhhhgegegegghhhhhhhgegiagfe>gh36#+oo>-%         ",
"  OOOO  $$2$$>>>>2gg9errhhhhhhhyeehhhhgghhhheegghheeehhhhhhhheeehhigy>2241++$>>2%o        ",
"    %+     *.7>22>-2rerrhhhhhhhefegehheeegefgeehhhighhhhhhhhheghhhhe>251261@%;<:O&        ",
" &+      +$q+$.$>>2irarrghhhhhhyehheggegfegergfhhhtyhhhhhhhhhgehhhhe:iiudu2#X%<OO%        ",
"%.&.    $$$qq$+>5u>fhhhiigghhhyehhhheeeehhhhhhgegtegghhhhhhhhethhhheghhhhpd@X%.oo%.       ",
"$%o$   $$$++&$#2wa>hhhhhfiiegtgehhhhtgehhhhhhhheeeieeethhhhhgegehhifhhhhhhu#&X:<%%.       ",
" %.   .%OO>+%+#>gu:hhhhhfdffifeeehhgeehhhhhhhhhhegehhhgeeetgeiteyagihhhhhhq#%>>>>>o%%%    ",
"      %%X<>>#2#2>52ahhhhffifhhhgeegegehhhhhhhhhheehhhhheegithhhheeiithhhhgq#.<>>>>%...%   ",
"      .%O:,,>>2@225:ahhpiqihhhhhhhhhgghhhhhhhhhhgghhhhhhtfehhhhhhhg>;wippq##.O>>>.o%.%.%  ",
"       %@%.%22uu2:22:raii0ihhhhhhhhhheghhhhhhhheegehhhhhieehhhhhhhge,>564##@XX%.%%.%%.O%  ",
"          O%>2pai22>,:<eiefhhhhhhhhhheeftfhhhheeegefahhiitghhhhhheeta>5:=445,X%@%%$ %%.   ",
"           X2>5ui2>%>:gyegiiehhhhhggegettigeeeehhhhgeftttgegehhhyytrai26664,:7&+%>.       ",
"      &%XOXX,>2>2>>%>eghhhhhyeehhiteeahhhhhhgehhhhhhgeehhhheggeeertyey12ssp:,:+%%>%.      ",
"     $%oO;XX551d2:%O;yhhhhhhhytyfeegthhhhhhhhehhhhhheghhhhhhegtehhhtrr2dssdi>>>+O$%o      ",
"%O  $*$$>>:O,5puu2$+>ehhhhhhhheyhheyhhhhhhhhtighhhheeghhhhhhhhehhhhhr;5pudui2>2%O%%       ",
"$o   ++$;>%%#5sdp#222fehhhhhhhyhhheaehhhhhegiteegegefehhhhhhhhghhhhhh,:5pip52>+$%%        ",
"O        OOO@#8d4,,:2effhhhhieehhegeeegefeethhhhhegegtehhhhhheehhhhhh>5242>2>@%O>o        ",
"   .*      O###@:5:,<ffiagwrggyeeefhheefeeghhhhhhheteegeegegeggehhhhh>:22%22%Oo>>%        ",
"  %%%$    O.%+&154p,:2gefihhhhetgehhhheegehhhhhhhhhetgehheefhheggthhe:>>2++@&.%O.%.    %% ",
" O.O%+   OOO.%>54spr2>egghhhhhhtehhhhhggihhhhhhhhhhaeehhhhehhhhetete<>aa22@+.+oO.%o   %%%.",
"  %%+    %OO%>,:sssd4ayeehhhhhhteghhheeeehhhhhhhhhefhgghheghhhhtegeegrfei2$$%>>>>%. .  %. ",
"  O      oO..,>2sssduhhhttthhhteeeeeygitehhhhhhhhgehhhegegeehhgefeeyhhhhhi>$>>>;>.%%%.    ",
".O.%+      oo;>>sssshhhhhtttyefihhhhhefegeehhhhhetehhteegeegyegehithhhhhhh2$>>>>>%O%o     ",
"O%%.%&   %oOoo<>ppd4hhhhhyegetehhhhhhheeehhefeeeegegeehhhegeefehhhfhhhhhhi<+O<;;O.>%  %%% ",
".O%$$$. $%>>O.O>4pp5ahhieeiiegethhhhhhhghhhhetghheggehhhhhegeeehhifihhhef>>&.Oo&.>>. .o%%O",
"  ++%%  oo>>%.OX,5,::wiiifiggegeefhhhhiehhheahhhhhgehhhhhhhgeegegg+eegggf>%%Oo%.%.%%&o%%.%",
"         %%oO>>%%>,,>gegiaiiiehhhgtgeegeggtetghhhgegehhhhhhgeghfitf>fte<>>$>>oOoo.%  %.o%.",
"          $&>;>>>>>>:>gy0igaghhhhhhhhegtegegeitegeeeigghhhteehhhief>;;>>2.2>>>%%>>%.   o%%",
"         %$+>>>>2:>><>::eaaeihhhhhhhhhgeehhegeegehhhgetegegeghhhhgft>;:;2<:;>>O.>7>%      ",
"        $+%%>><>i22>><;,yergtthhhhheggeehhhhhhfeehhhhegeegeegehhetet>$$$o>><>OO.%O.%%     ",
"       %OO%.>>>euu&>>,rrrryerraregegeetethhhhtttwyhhggeeteegegefeag>>>%@>iw>>%XX..%.      ",
"       %Ooo%%>>2ii@>>erhhhhygeerfehhhgffeeeytthhhtyyeegegegeefegyeegf>@@2ae5X&X%%%        ",
"   %%  %+&%%o>>>12+2>gehhhhheeeyhhhhhhwggetehhhhhheyeeeteggeeeeeetehh>%%2>i>%+.%%         ",
"  %%%+  o..%.%<>2$#%>eyyhhhhtgyrghhhhhiweehhhhhhhhhreegeeeeegegee>hhh>@@>:>>+@.%%O        ",
"    %$    %O%%.%&+&o<;ythhhffeefyrehhiigighhhhhhhhhyeeeggfegfehh>>eh>+@@@:<%.%%..%        ",
" %.          %.%$$$oo>;yeffeg>terregifiageehhhhhhhegefehtigeefhh>>>>2%@%.&%+%%.%o&        ",
"%.%.    %.%..%.%2>.&o.;>->eif><>rrreahhheayythhteitighhhhg;<ifg>;>>5.X@@&%o%>.            ",
".%%%   %+O%%%$o>2>>>.Oo;;>>>2>>>>>>2hhhhh>>>;;;O$>>>>ehhefe>>>:2>>@.@&>2>@%>>o$           ",
" %.   %%O%%o.%%>>,r;,X@X$>2222eha5:aphhuia5@+&+22:22>5raaeea>222>$$%%>2i>>O>o%oo   %%o    ",
"      &O%o%.%%.%>:wr:X%X$$$3>2>hh14dddsppp:52@@227ew5>ageh>>>>@@%$&+%,we>>O.@%$%  %%.%%   ",
"      .%%%.%%%%%:,-,:%X+222:>22>2>2auudhd215>22$222hw>>ahha>>2hw>%.%;>,>>>%%.%%+  .%.%.O  ",
"       %.O%%.o.O&,,,X%@56>ff22++5545auha2522>>ih2++>>,>>>:0&2ihh2>$%>>>:>.%%$%.    O%.&.  ",
"          %+%O %O.O.@O@>2iii:2:>%.:>>555#,::>hhhu2>@@2:>>%%>>>i2>>%o+>>%%%..%.       %.   ",
"               %%X%>;%@X222>2>>>OO%O@X@@-rr;>>>>>2>%%@OO@X:<>>2>>>$%%$%.O%     $%.%       ",
"      %%.%%%  %.oo%o>>%%++$2>><oooO.@@%>,,;<>><>>>$$.%.OXO:>:7>>>$$%$..%o%o%  %+%%O+      ",
"     %%O%$O%o @%o%ooo $+$+$%$.Ooo.@%@%XO>:,>>>>>&o$$%>>>XOO,:>>%oo$%%%O$%%$%% %%%@o%      ",
"    %%O%%%%o   %$%%   %%.o%%$@O.>>O.o%%O.%.%%O$>>>$%><>>>%%+o%%%.. %%%%%O%%.   %O%.       ",
"     %.%.%            ..%%.O.%%>>><%%oo%7->>%%>>>>..<>>>>>%$%. .%%   %.%.%                ",
"            .%+%$      +%%.%%.%%>>>%&o.%.<>%o%>>>>%$;>>>>>.%.  %o           .%o%%         ",
"           X%o%%%o           o.%o%.%.  %%.o.%.%><%o$o>>><%O%%      %o      .%O%o.%        ",
"          %%..%.o%%    ..   %%o%%.o>>%  $%%%%.O$.o% %%.%O..O..    %.%%    %%$.@.%%.       ",
"         %.%%OO%%.%   %O%o %.%% .%%>>%   .$>>>%.o.%  ..%%% o&%O  @%%%.   %.%%Oo&o%%       ",
"         .%%.%+.%%  %  %%  %o&.   %.%    %>>><>o+%  .  %.  ..%%   ...    .%%.%..%%        ",
"         %o.%%%.%  o%%      O.           %.O>>>o%  o%O      %.           %@o%%%..         ",
"           .%.%o   .%           .%.%.      %o%%.   .%           O%.%.      %O$%.          ",
"                      %.%      O%%.%%%   %.           %..      .%%.%o%   .%               "
};
