/* XPM */
static char *coin_81671053643[] = {
/* columns rows colors chars-per-pixel */
"32 32 256 2 ",
"   c black",
".  c #000100",
"X  c #010000",
"o  c #000002",
"O  c #050004",
"+  c #010002",
"@  c #000102",
"#  c #000505",
"$  c #030002",
"%  c #030000",
"&  c #010101",
"*  c #010300",
"=  c #040000",
"-  c #000007",
";  c #000005",
":  c #000200",
">  c #040404",
",  c #020001",
"<  c #050100",
"1  c #010506",
"2  c #020100",
"3  c #000104",
"4  c #000004",
"5  c #010005",
"6  c #030004",
"7  c #010200",
"8  c #080000",
"9  c #080100",
"0  c #060200",
"q  c #020300",
"w  c #020202",
"e  c #75683E",
"r  c #766730",
"t  c #746A2F",
"y  c #736D3D",
"u  c #060100",
"i  c #030200",
"p  c #000201",
"a  c #010100",
"s  c #6F663F",
"d  c #E5D774",
"f  c #EBDC5B",
"g  c #E8D755",
"h  c #E7D66A",
"j  c #766827",
"k  c #0A0100",
"l  c #060000",
"z  c #000105",
"x  c #080500",
"c  c #766E25",
"v  c #E8DD50",
"b  c #EDDD30",
"n  c #F3E335",
"m  c #EBDB48",
"M  c #B8A94C",
"N  c #786C3C",
"B  c #040002",
"V  c #060600",
"C  c #6E6F23",
"Z  c #F6F47B",
"A  c #FFFA55",
"S  c #FFFB41",
"D  c #FFFA3E",
"F  c #FFF657",
"G  c #B7AD4B",
"H  c #6F6834",
"J  c #090300",
"K  c #010004",
"L  c #040400",
"P  c #747615",
"I  c #F9F868",
"U  c #FFFB4A",
"Y  c #FFFE3B",
"T  c #FFFD39",
"R  c #FFFD59",
"E  c #756F0D",
"W  c #6F6939",
"Q  c #050200",
"!  c #080400",
"~  c #717014",
"^  c #F9F86A",
"/  c #FFFF4C",
"(  c #FFFE3A",
")  c #FFF959",
"_  c #746D15",
"`  c #716C46",
"'  c #030100",
"]  c #030305",
"[  c #040003",
"{  c #73711A",
"}  c #FBF970",
"|  c #FAFB48",
" . c #FFFF3B",
".. c #FFFA5A",
"X. c #776D18",
"o. c #726A46",
"O. c #040005",
"+. c #070100",
"@. c #746F1D",
"#. c #FCF974",
"$. c #FFFF4F",
"%. c #FFFF3C",
"&. c #FFFC3C",
"*. c #CFBF21",
"=. c #7E6F12",
"-. c #74673B",
";. c #030102",
":. c #030007",
">. c #766F1E",
",. c #FCF873",
"<. c #FCFB4B",
"1. c #FFFB38",
"2. c #FFFB3B",
"3. c #D0C120",
"4. c #E1D36A",
"5. c #796F34",
"6. c #070200",
"7. c #020400",
"8. c #070300",
"9. c #756D18",
"0. c #FDF570",
"q. c #FFFB4E",
"w. c #FFFE3D",
"e. c #FFFB3C",
"r. c #CAC219",
"t. c #FDF87A",
"y. c #737021",
"u. c #030300",
"i. c #777018",
"p. c #CBBF39",
"a. c #FFFA51",
"s. c #FFF83B",
"d. c #FFFA3D",
"f. c #CEC319",
"g. c #F8F26A",
"h. c #737218",
"j. c #040300",
"k. c #020200",
"l. c #000300",
"z. c #060500",
"x. c #726B13",
"c. c #CDBC38",
"v. c #D0B915",
"b. c #DCC20D",
"n. c #DBBF06",
"m. c #D7C018",
"M. c #FFF66F",
"N. c #786E17",
"B. c #030400",
"V. c #7A6F1D",
"C. c #ECD85B",
"Z. c #F5DB3E",
"A. c #FADA2D",
"S. c #FCD927",
"D. c #D9BA14",
"F. c #CFBB36",
"G. c #7C6D18",
"H. c #7A6C23",
"J. c #EAD465",
"K. c #F4D846",
"L. c #FAD932",
"P. c #FCD82C",
"I. c #DBBB1B",
"U. c #CEBA37",
"Y. c #786C16",
"T. c #000407",
"R. c #776928",
"E. c #E9D670",
"W. c #F3DC52",
"Q. c #F5D938",
"!. c #FADC30",
"~. c #D8BE21",
"^. c #CAB947",
"/. c #756C27",
"(. c #060400",
"). c #020308",
"_. c #766D32",
"`. c #E4D779",
"'. c #E8DA57",
"]. c #EDDD3F",
"[. c #F2DD2A",
"{. c #D2BF25",
"}. c #796A19",
"|. c #080200",
" X c #020204",
".X c #000106",
"XX c #040100",
"oX c #080300",
"OX c #756E2A",
"+X c #797011",
"@X c #C7BD44",
"#X c #CBBE31",
"$X c #C7BB45",
"%X c #776D3C",
"&X c #060105",
"*X c gray1",
"=X c #746C3E",
"-X c #756831",
";X c #776A3D",
":X c #070000",
">X c #080403",
",X c #000103",
"<X c #010103",
"1X c #010008",
"2X c #040500",
"3X c #010006",
"4X c #020005",
"5X c #030104",
"6X c #030005",
"7X c #020106",
"8X c #050001",
"9X c #040001",
"0X c #1B1612",
"qX c #1C1713",
"wX c #1E1614",
"eX c #1D1513",
"rX c #050007",
"tX c #17140F",
"yX c #1F1714",
"uX c #1B1310",
"iX c #1C1210",
"pX c #1D1512",
"aX c #1B1613",
"sX c #181118",
"dX c #181715",
"fX c #1B1714",
"gX c #1D1815",
"hX c #1C1412",
"jX c #1E1413",
"kX c #1F1514",
"lX c #1F1715",
"zX c #1A1613",
"xX c #151314",
"cX c #181415",
"vX c #1B1515",
"bX c #1E1415",
"nX c #1D1314",
"mX c #1C1314",
"MX c #1B1517",
"NX c #1D1417",
"BX c #1B1213",
"VX c #1A120F",
"CX c #030301",
"ZX c #050306",
"AX c #1B1519",
"SX c #1B1215",
"DX c #20171A",
"FX c #1E181A",
"GX c #191317",
"HX c #1B141B",
"JX c #070302",
"KX c #040203",
"LX c #050006",
"PX c #070003",
"IX c #050003",
"UX c white",
/* pixels */
"  . . . X X   o     O + @ # o o $ % & * @ .   X = % % o - ; : : ",
"X   . . X X       > X , . . X < = % & o 1 . . 2 % % X o ; 3 : : ",
"% X o 4 5 6 X       7 7 . % 8 8 9 0 o ; 3 . q X % % X   o . : : ",
"% X o 4 5 6 + X w . . . X 9 e r t y u i   p . . X X X     .   . ",
"= % 4 4   X $ + o o o a u s d f g h j k l X w o o 4 4 o   X % X ",
"= % o o . X X + 4 z o a x c v b n m M N 9 % o o o o 4 4   X B $ ",
"$ + o . . .     4 4   V C Z A S D F G H J X   . .   4 4   X X + ",
"6 K o .   . .   o o a L P I U Y T R E W Q   * .     o o         ",
"K 4 4 o . . : . . o X ! ~ ^ / T ( ) _ ` '   . . 4 K o   . . .   ",
"o o o o . . . . . ] [ 0 { } |  .( ..X.o.= & : . 4 K   . . . .   ",
". .     4 @ . . 5 ; O.+.@.#.$.%.&.*.=.-.l ;.. :     . . .       ",
": .     4 4 .   ; :.O.+.>.,.<.1.2.3.4.5.6.X . 7.    . .         ",
". .     o . . . o 4 + 8.9.0.q.w.e.r.t.y.u.  * . o K K 4 ; 4 o . ",
".   X + o   X X X &   8.i.p.a.s.d.f.g.h.j.k.l.. o 5 5 ; ; 4 o . ",
"    + + o   % = i 7 . z.x.c.v.b.n.m.M.N.6.X l.. o 4 o     X + X ",
"    $ + o   % % X B.7 0 V.C.Z.A.S.D.F.G.9 + . : o 4   . X X % X ",
".   $ $ + + X   . . a J H.J.K.L.P.I.U.Y.J K p p o + X X     X X ",
"    X $ $ X   o T.o % 9 R.E.W.Q.!.~.^./.(.4 o o + + X       X X ",
". .   X X X   4 - ).X +._.`.'.].[.{.}.|.B.:  XK = $ 4 3 . . + % ",
"@ @ o   X X   o .Xz X XXoXOX+X@X#X$X%XXX: :   &X= % 4 3 . : o X ",
". @ o o + X X   &   *Xi = |.|.=X-X;X:Xi . *   X % %   . : : .   ",
": . o o o X X X .   w   + % >X= :Xl % 5 ,X. 7 X X X     . . . . ",
". . . .         j.X     w   <Xa i X <X- 1X4 2X.         . . o 4 ",
"    . .         X X a &   o o o   a z ; 1X3XX X       . .   + ; ",
"K K o   . . . o o 4 K 4XK o o  X5X+   o 5 K % % X   . : :   $ 6 ",
"6X6 K o   . o o 5 7XK + + X , % B 8XX   o K O 9XX   : . . o $ B ",
"$ $ + o o o 4 o o   X < = 0X0XqXwXeX0X= rX5 % X o o 3 3 4 o $ B ",
"% X X + o o o . w   X tX0X0XyXuXiXyXpXaXsX6 X k.. o 4 4 o + % % ",
"X       X   . . . 7 dXfXgXhXjXkXwXeXhXlXwXzX2 . . .   X X X . X ",
". .     X X . . .   2 xXcXvXbXnXmXMXNXBXVXXX. . . .   X X X . . ",
". . .   X X X X   CXo ZX[ AXSXDXFXGXHX[ JXX KX              . . ",
": : o o + X X X     <X4 LX$ PXl B IX6XLXX 2 + + + + o o . . . o "
};
