/* XPM */
static char *coin_21671053642[] = {
/* columns rows colors chars-per-pixel */
"32 32 83 1 ",
"  c #010101",
". c #0A0200",
"X c #010308",
"o c #171310",
"O c #1C1414",
"+ c #1B1813",
"@ c #1B151A",
"# c #1C191B",
"$ c #746F09",
"% c #7B7500",
"& c #73740E",
"* c #6E6C1F",
"= c #736F14",
"- c #7D6C14",
"; c #7B6C1B",
": c #6F7013",
"> c #747015",
", c #76711F",
"< c #78741B",
"1 c #6F6C22",
"2 c #766D23",
"3 c #796B22",
"4 c #736D2D",
"5 c #7C692F",
"6 c #737222",
"7 c #797120",
"8 c #74712E",
"9 c #6F6D30",
"0 c #6D6B3B",
"q c #726C34",
"w c #796E30",
"e c #756B38",
"r c #7A6E3E",
"t c #6E7031",
"y c #DABD02",
"u c #DCBE0E",
"i c #DABD12",
"p c #D3BE1A",
"a c #D8BF1D",
"s c #D4BF23",
"d c #D3B92E",
"f c #CCBB3E",
"g c #D3BA35",
"h c #D1B839",
"j c #C9C50E",
"k c #D5C304",
"l c #DCC303",
"z c #C4C231",
"x c #F2DE2F",
"c c #ECDA3C",
"v c #EFE02F",
"b c #F5E02D",
"n c #F0E231",
"m c #FEFF37",
"M c #FFFD3A",
"N c #CDB84B",
"B c #C4BC51",
"V c #ECDD42",
"C c #E3D84B",
"Z c #E6D85E",
"A c #FFFD43",
"S c #FDFD4C",
"D c #FBF756",
"F c #FEFD52",
"G c #FDFA5E",
"H c #E8DC64",
"J c #E5D76C",
"K c #E7D96E",
"L c #E3DA73",
"P c #E6D97B",
"I c #F6F664",
"U c #FDF763",
"Y c #FEFB64",
"T c #FDF76B",
"R c #FAFA6D",
"E c #F5F476",
"W c #F5F579",
"Q c #FBF67E",
"! c #F6F879",
"~ c #FBF97B",
"^ c #F6F484",
"/ c #F4F689",
"( c #F9F788",
/* pixels */
"             . X        X       ",
"             ..  .              ",
"         X  ..w77q . .          ",
"        ....t7KZHPr..  X        ",
"        X .*~TVVVCL4 .          ",
"          t/GAnvAFU&.           ",
"          6WYFAMAAARq           ",
"   .X     :~%DAmMMMG4          X",
"       ...>W%TSmMMmUw.          ",
"         .>Q%TSMMMMG2           ",
"          <E%GAMvxbVK4.X        ",
"  X      .1(zFAAxiijf7          ",
"   X      .7ISAMMyyih;.         ",
"         . qRAMMMlyig-.         ",
"          .0!SMMMkyid-.         ",
"           .&YjMMylig;.         ",
"            4^FMMyypN5.         ",
"  XXX     ...,RSpssf3..         ",
"     X      .q/!B-2e..          ",
"            . 824 .  X    X     ",
"          X  ...    X X      X  ",
"         X        X         X   ",
"          X  X                  ",
"            X     .             ",
"                      X         ",
"                                ",
"        X . .+o@#o+  X X        ",
"           @OO#OOO+o#XXX       X",
"    XX     @@@OOOOOO@           ",
"    X      @@@OOOOOO@ X         ",
"    X     . .OO@O@O.            ",
"     X       ..   ..            "
};
